<svg width="512" height="512" viewBox="0 0 512 512" fill="none" xmlns="http://www.w3.org/2000/svg">
<g clip-path="url(#clip0_159_234)">
<g clip-path="url(#clip1_159_234)">
<path d="M306.79 486.769C341.177 487.62 375.084 478.575 404.477 460.709C414.242 471.142 424.994 480.605 436.584 488.964C451.638 497.68 449.74 495.915 459.435 502.54C461.266 493.188 456.619 497.037 455.356 493.585C444.811 484.182 435.279 475.826 425.23 467.897C401.755 447.438 401.456 447.251 415.578 418.578C425.151 399.477 434.978 381.036 445.451 362.496C447.192 359.167 447.847 355.578 449.288 352.063L447.331 350.927C436.132 360.235 426.428 371.208 418.56 383.461C422.828 369.577 427.747 356.071 433.319 342.943C441.983 321.694 453.119 301.153 460.081 279.426C463.805 269.438 465.439 258.791 464.883 248.146C464.327 237.5 461.593 227.082 456.848 217.535C463.784 243.377 461.203 270.85 449.575 294.947C449.266 293.204 449.434 291.41 450.063 289.755C454.111 254.93 447.109 219.713 430.048 189.084C412.987 158.456 386.729 133.966 354.988 119.076C322.514 106.632 287.941 100.581 253.171 101.256C218.416 100.922 183.703 98.7727 149.173 94.8178C104.695 88.4166 66.9901 70.747 44.7934 29.9314C44.5378 29.2725 43.6085 29.0264 40.6243 27C41.1013 30.0143 41.7758 32.994 42.6434 35.9198C50.0817 58.0459 65.2229 76.7626 85.3072 88.6585C90.815 91.5844 95.5968 95.708 99.3007 100.726C103.005 105.744 105.536 111.528 106.71 117.653C108.223 123.51 110.036 129.553 111.22 135.538C115.433 161.648 119.317 187.886 123.216 213.966C128.38 260.442 140.483 305.881 159.122 348.768C169.344 372.894 184.553 394.586 203.75 412.42C222.947 430.254 245.698 443.828 270.51 452.249C282.531 456.077 294.671 458.646 306.751 461.845L306.589 463.576L233.042 455.713C232.784 456.794 232.679 457.907 232.731 459.017C248.332 461.912 264.676 465.352 280.538 467.16C296.977 469.235 313.536 470.208 330.105 470.071C345.987 469.976 362.106 467.363 377.019 465.749C376.945 466.535 376.886 467.165 376.827 467.794L306.79 486.769ZM288.522 448.069C266.516 443.641 245.706 434.576 227.477 421.478C209.248 408.379 194.018 391.548 182.802 372.104C158.265 331.426 142.572 286.035 136.748 238.888C130.034 202.226 124.278 165.495 117.977 129.506C116.573 120.802 113.477 113.21 110.946 102.972C163.417 120.601 216.767 117.042 270.175 117.933C298.845 118.025 327.244 123.493 353.899 134.053C386.407 149.175 412.3 175.612 426.742 208.428C441.185 241.243 443.189 278.194 432.382 312.379C422.635 341.781 413.331 371.542 404.514 401.189C402.291 410.124 400.695 419.203 399.739 428.36C399.369 432.293 398.999 436.227 397.292 442.574L373.052 415.059C381.281 409.663 388.309 402.63 393.698 394.397C399.087 386.164 402.721 376.908 404.373 367.208C406.569 353.971 405.274 340.39 400.615 327.807C404.424 359.911 399.117 387.666 372.886 408.376L369.985 407.151C370.979 405.023 371.417 402.048 372.966 400.765C384.355 392.634 392.828 381.058 397.137 367.744C401.446 354.431 401.362 340.085 396.898 326.823C382.414 271.494 370.781 266.909 319.645 262.104C298.79 260.759 278.066 266.26 260.625 277.772C243.183 289.284 229.978 306.178 223.018 325.883C213.61 356.745 232.851 405.378 260.894 419.441C276.723 426.637 294.509 428.308 311.401 424.187C329.196 420.62 346.613 414.32 365.201 409.083C364.109 410.567 363.169 413.813 361.005 414.879C351.036 419.105 341.353 423.974 332.016 429.457L367.033 418.303C377.469 430.553 388.063 442.818 398.971 455.113C398.562 455.897 398.22 456.715 397.948 457.556C361.184 455.213 324.302 454.129 288.522 448.069ZM383.176 317.439C390.61 343.058 394.372 367.221 373.362 388.104C365.679 396.48 356.366 403.198 345.994 407.846C335.622 412.495 324.41 414.975 313.045 415.135L299.193 415.579C286.899 417.586 274.288 415.322 263.459 409.164C252.63 403.006 244.237 393.325 239.675 381.733C232.588 369.204 229.592 354.773 231.108 340.458C232.624 326.143 238.575 312.66 248.129 301.893C257.67 289.643 270.608 280.475 285.329 275.534C300.049 270.594 315.898 270.1 330.898 274.114C360.695 271.199 374.69 289.498 383.176 317.439Z" fill="#051839"/>
<path d="M142.941 178.042C149.848 239.592 167.426 299.469 194.887 354.985C159.498 302.886 141.331 241.003 142.941 178.042Z" fill="#051839"/>
<path d="M258.765 347.495C260.672 303.547 318.004 279.569 349.307 299.494C354.841 302.547 359.645 306.766 363.387 311.859C367.129 316.952 369.72 322.798 370.98 328.991C372.304 334.573 371.828 340.432 369.62 345.727C367.411 351.022 363.584 355.483 358.686 358.471C354.745 360.85 350.948 363.461 347.316 366.291C339.955 371.448 333.468 377.752 328.102 384.962C314.029 411.418 290.614 413.98 268.812 389.233C264.298 383.373 261.07 376.627 259.339 369.435C257.608 362.243 257.412 354.768 258.765 347.495Z" fill="#051839"/>
</g>
</g>
<defs>
<clipPath id="clip0_159_234">
<rect width="512" height="512" fill="white"/>
</clipPath>
<clipPath id="clip1_159_234">
<rect width="462.091" height="434.277" fill="white" transform="translate(40.6243 27) rotate(5.36757)"/>
</clipPath>
</defs>
</svg>
