<svg width="48" height="48" viewBox="0 0 48 48" fill="none" xmlns="http://www.w3.org/2000/svg">
<path d="M29.8899 2.5C27.1559 2.5 24.9499 2.5 23.2159 2.734C21.4159 2.974 19.8999 3.494 18.6959 4.696C17.6479 5.746 17.1159 7.036 16.8379 8.552C16.5679 10.026 16.5159 11.828 16.5039 13.992C16.5018 14.3898 16.6578 14.7722 16.9376 15.055C17.2174 15.3378 17.5981 15.4979 17.9959 15.5C18.3938 15.5021 18.7761 15.3461 19.0589 15.0663C19.3417 14.7865 19.5018 14.4058 19.5039 14.008C19.5159 11.822 19.5719 10.272 19.7879 9.094C19.9979 7.962 20.3319 7.304 20.8179 6.818C21.3719 6.264 22.1499 5.904 23.6179 5.706C25.1279 5.504 27.1299 5.5 29.9999 5.5H31.9999C34.8719 5.5 36.8739 5.504 38.3839 5.706C39.8519 5.904 40.6279 6.266 41.1839 6.818C41.7359 7.372 42.0959 8.148 42.2939 9.618C42.4979 11.126 42.4999 13.13 42.4999 16V32C42.4999 34.87 42.4979 36.872 42.2939 38.384C42.0959 39.852 41.7359 40.628 41.1819 41.182C40.6279 41.736 39.8519 42.096 38.3839 42.294C36.8739 42.496 34.8719 42.5 31.9999 42.5H29.9999C27.1299 42.5 25.1279 42.496 23.6159 42.294C22.1499 42.096 21.3719 41.734 20.8179 41.182C20.3319 40.694 19.9979 40.038 19.7879 38.906C19.5719 37.728 19.5159 36.178 19.5039 33.992C19.5029 33.795 19.463 33.6002 19.3867 33.4186C19.3103 33.237 19.199 33.0722 19.0589 32.9337C18.9189 32.7951 18.753 32.6855 18.5706 32.6111C18.3882 32.5367 18.1929 32.4989 17.9959 32.5C17.7989 32.5011 17.6041 32.5409 17.4225 32.6172C17.2409 32.6936 17.0762 32.805 16.9376 32.945C16.7991 33.085 16.6895 33.251 16.615 33.4334C16.5406 33.6158 16.5029 33.811 16.5039 34.008C16.5159 36.172 16.5679 37.974 16.8379 39.448C17.1179 40.964 17.6479 42.254 18.6979 43.304C19.8999 44.508 21.4179 45.024 23.2179 45.268C24.9499 45.5 27.1559 45.5 29.8899 45.5H32.1099C34.8459 45.5 37.0499 45.5 38.7839 45.268C40.5839 45.024 42.0999 44.508 43.3039 43.304C44.5079 42.1 45.0239 40.584 45.2679 38.784C45.4999 37.05 45.4999 34.844 45.4999 32.11V15.89C45.4999 13.156 45.4999 10.95 45.2679 9.216C45.0259 7.416 44.5079 5.9 43.3039 4.696C42.0999 3.492 40.5839 2.976 38.7839 2.734C37.0499 2.5 34.8439 2.5 32.1099 2.5H29.8899Z" fill="white"/>
<path d="M29.9999 22.5C30.3977 22.5 30.7792 22.658 31.0606 22.9393C31.3419 23.2206 31.4999 23.6022 31.4999 24C31.4999 24.3978 31.3419 24.7793 31.0606 25.0607C30.7792 25.342 30.3977 25.5 29.9999 25.5H8.05389L11.9759 28.86C12.2782 29.1188 12.4654 29.4872 12.4961 29.884C12.5269 30.2809 12.3987 30.6736 12.1399 30.976C11.881 31.2783 11.5127 31.4655 11.1159 31.4962C10.719 31.527 10.3262 31.3988 10.0239 31.14L3.02389 25.14C2.85923 24.9992 2.72702 24.8244 2.63637 24.6276C2.54572 24.4308 2.49878 24.2167 2.49878 24C2.49878 23.7833 2.54572 23.5692 2.63637 23.3724C2.72702 23.1756 2.85923 23.0008 3.02389 22.86L10.0239 16.86C10.1736 16.7318 10.3471 16.6344 10.5344 16.5733C10.7218 16.5121 10.9194 16.4885 11.1159 16.5038C11.3123 16.519 11.5039 16.5728 11.6796 16.662C11.8553 16.7513 12.0117 16.8743 12.1399 17.024C12.2681 17.1737 12.3655 17.3472 12.4266 17.5345C12.4877 17.7219 12.5114 17.9195 12.4961 18.116C12.4809 18.3124 12.4271 18.504 12.3379 18.6797C12.2486 18.8554 12.1256 19.0118 11.9759 19.14L8.05589 22.5H29.9999Z" fill="white"/>
</svg>
