<svg width="70" height="70" viewBox="0 0 70 70" fill="none" xmlns="http://www.w3.org/2000/svg">
<g clip-path="url(#clip0_126_235)">
<path d="M24.9373 54.0038C27.4258 56.2635 30.5111 57.7606 33.8261 58.3172C33.8817 59.7125 34.0724 61.0992 34.3955 62.4577C34.9519 64.064 34.9244 63.8122 35.2181 64.9215C35.9509 64.3469 35.3614 64.3346 35.4885 63.9987C35.3094 62.6296 35.1383 61.4027 34.9016 60.1745C34.4727 57.1619 34.4624 57.1289 37.3385 55.9107C39.2666 55.1097 41.1715 54.3737 43.1303 53.6717C43.4717 53.5368 43.7494 53.3132 44.0806 53.1453L44.0085 52.9363C42.5856 52.9092 41.1671 53.1007 39.8024 53.5043C41.005 52.7501 42.2316 52.0656 43.4822 51.4508C45.4804 50.4328 47.6161 49.6252 49.5189 48.4632C50.4324 47.9624 51.2334 47.2795 51.8724 46.4568C52.5113 45.634 52.9747 44.6888 53.2336 43.6798C52.0958 46.0339 50.1498 47.9007 47.7505 48.9398C47.839 48.7912 47.9661 48.6693 48.1183 48.587C50.6424 46.2703 52.3743 43.2187 53.0693 39.8638C53.7642 36.5088 53.3869 33.0203 51.9908 29.8916C50.3843 26.8968 48.2141 24.2407 45.5997 22.0693C43.0509 19.8244 40.6211 17.4479 38.3202 14.9496C35.44 11.6348 33.7804 7.91946 34.7464 3.48311C34.7696 3.41805 34.7166 3.34049 34.6253 3C34.468 3.25338 34.3276 3.51682 34.2048 3.78862C33.3414 5.90004 33.2655 8.25142 33.9908 10.4142C34.2112 10.9824 34.3014 11.5928 34.2547 12.2005C34.2081 12.8082 34.0258 13.3977 33.7212 13.9256C33.459 14.4554 33.207 15.0181 32.9123 15.5363C31.5559 17.7363 30.167 19.9248 28.7892 22.1025C26.202 25.8693 24.1943 30.0028 22.833 34.365C22.0477 36.8022 21.7866 39.3779 22.067 41.9231C22.3473 44.4683 23.1627 46.9255 24.4596 49.1334C25.104 50.1844 25.8376 51.1499 26.5266 52.1582L26.4041 52.2758L21.4675 46.9959C21.3793 47.0594 21.3005 47.135 21.2334 47.2205C22.2022 48.4311 23.1911 49.7296 24.2486 50.8766C25.3317 52.0803 26.4942 53.2101 27.7282 54.2584C28.9088 55.2659 30.2676 56.1024 31.4737 56.9358C31.4179 56.9892 31.3734 57.032 31.3288 57.0747L24.9373 54.0038ZM26.0586 49.9748C24.7141 48.2416 23.7543 46.2419 23.243 44.1087C22.7317 41.9755 22.6807 39.7579 23.0934 37.6035C23.8774 33.0278 25.6166 28.6687 28.1978 24.81C30.0434 21.6698 31.9642 18.5859 33.7973 15.5219C34.2495 14.7886 34.5055 14.0293 34.9724 13.1106C37.7265 17.7662 41.8992 20.9112 45.7919 24.3889C47.9061 26.2273 49.6569 28.4458 50.9535 30.9295C52.3915 34.1245 52.6174 37.7336 51.5891 41.083C50.5608 44.4324 48.3485 47.293 45.3654 49.1306C42.7664 50.6823 40.1772 52.2887 37.6311 53.9179C36.896 54.4366 36.198 55.0061 35.5423 55.6222C35.2637 55.8894 34.9851 56.1567 34.4533 56.517L34.4185 52.9337C35.3717 53.0604 36.3408 52.9893 37.2652 52.7247C38.1897 52.4601 39.0497 52.0078 39.7916 51.396C40.7996 50.5574 41.5713 49.4703 42.0306 48.2422C40.2614 50.8596 38.096 52.5732 34.8331 52.429L34.6968 52.1531C34.9063 52.0591 35.1288 51.8671 35.3253 51.8712C36.6869 51.9974 38.0531 51.6827 39.2222 50.9734C40.3913 50.2641 41.3016 49.1979 41.8186 47.9319C44.2821 42.915 43.7148 41.8328 40.2401 38.2108C38.7839 36.779 36.8999 35.862 34.8746 35.5991C32.8494 35.3362 30.7937 35.7419 29.0201 36.7545C26.3529 38.4358 24.6689 43.2614 25.8443 46.0929C26.5552 47.6362 27.7637 48.896 29.2762 49.6703C30.82 50.5434 32.5105 51.1902 34.2196 51.9902C34.044 52.0303 33.7672 52.2102 33.5391 52.1509C32.5319 51.8265 31.5048 51.568 30.4641 51.377L33.7661 52.7891C33.7553 54.3617 33.7552 55.9455 33.7765 57.5515C33.6961 57.5834 33.6186 57.622 33.5447 57.6669C30.9756 55.145 28.3174 52.7087 26.0586 49.9748ZM41.4034 46.3614C40.3166 48.7309 39.0511 50.758 36.1634 50.9602C35.0601 51.0888 33.9422 50.9907 32.8783 50.6718C31.8143 50.353 30.8267 49.8201 29.976 49.1059L28.9233 48.254C27.8859 47.6169 27.0979 46.6439 26.6905 45.4967C26.2831 44.3496 26.2808 43.0975 26.6841 41.9488C26.9603 40.5695 27.6607 39.311 28.6873 38.3492C29.7138 37.3874 31.0153 36.7705 32.4097 36.5846C33.8978 36.2882 35.4403 36.4367 36.8444 37.0117C38.2486 37.5868 39.4523 38.5627 40.3051 39.8178C42.6948 41.5058 42.5608 43.7531 41.4034 46.3614Z" fill="white"/>
<path d="M32.5428 20.7059C29.1216 25.6989 26.5964 31.2498 25.0806 37.1096C25.7919 30.996 28.4016 25.2592 32.5428 20.7059Z" fill="white"/>
<path d="M30.283 40.6364C33.2315 37.5082 39.0031 39.3976 40.045 42.8707C40.2593 43.45 40.345 44.0689 40.2964 44.6846C40.2478 45.3003 40.0659 45.8981 39.7635 46.4366C39.5048 46.934 39.0953 47.3368 38.5937 47.5873C38.0922 47.8378 37.5242 47.9232 36.9711 47.8313C36.5276 47.7554 36.08 47.706 35.6307 47.6833C34.7569 47.5943 33.8744 47.6461 33.017 47.8365C30.2863 48.8939 28.391 47.5876 28.3596 44.3647C28.4002 43.643 28.5924 42.9379 28.9238 42.2955C29.2552 41.6531 29.7184 41.0878 30.283 40.6364Z" fill="white"/>
</g>
<defs>
<clipPath id="clip0_126_235">
<rect width="45.1569" height="42.4388" fill="white" transform="translate(34.6253 3) rotate(46.1897)"/>
</clipPath>
</defs>
</svg>
