<svg width="519" height="135" viewBox="0 0 519 135" fill="none" xmlns="http://www.w3.org/2000/svg">
<g clip-path="url(#clip0_8_423)">
<g filter="url(#filter0_d_8_423)">
<path d="M37.8383 38.2609C43.2171 55.6975 51.5826 72.0585 62.5588 86.6087C49.5147 73.4652 40.8739 56.5656 37.8383 38.2609Z" fill="white"/>
<path d="M80.6121 80.9131C78.7505 68.087 93.9032 57.9131 104.077 62C105.838 62.5633 107.453 63.51 108.808 64.7727C110.163 66.0353 111.223 67.5827 111.913 69.3044C112.558 70.8082 112.726 72.4753 112.393 74.0782C112.059 75.6811 111.242 77.1418 110.052 78.2609C109.046 79.1623 108.092 80.1203 107.194 81.1304C105.406 83.0524 103.944 85.2555 102.865 87.6522C100.267 96.0435 93.6434 98.087 86.0238 92C84.4085 90.6273 83.0938 88.9335 82.1624 87.0254C81.231 85.1173 80.7032 83.0361 80.6121 80.9131Z" fill="white"/>
<path d="M306.517 0C305.651 0 304.785 0.73913 303.876 2.21739C299.855 8.38815 295.322 14.206 290.325 19.6087C285.274 25.0621 279.911 30.2158 274.263 35.0435C268.992 39.6916 263.471 44.046 257.725 48.087C252.27 51.913 247.161 55.1739 242.442 57.8696C238.532 60.1783 234.467 62.2122 230.277 63.9565C228 65.1007 225.505 65.7384 222.96 65.8261C222.441 66.1304 222.181 67.5217 222.181 70.1739C222.221 72.7241 222.452 75.2676 222.874 77.7826C223.434 80.9988 224.186 84.1784 225.125 87.3044C226.094 90.9028 227.339 94.4206 228.848 97.8261C230.581 101.75 232.854 105.409 235.602 108.696C238.237 111.887 241.455 114.544 245.083 116.522C248.681 118.441 252.699 119.427 256.773 119.391C260.263 119.418 263.723 118.738 266.946 117.391C270.373 115.876 273.554 113.853 276.384 111.391C279.018 109.208 281.17 106.498 282.705 103.435C283.056 102.886 283.264 102.259 283.311 101.609C283.311 101.13 283.311 100.913 282.835 100.913C282.359 100.913 281.709 101.435 281.233 102.522C279.777 105.259 277.683 107.601 275.129 109.348C272.499 111.191 269.569 112.559 266.47 113.391C263.49 114.276 260.4 114.73 257.292 114.739C252.91 114.764 248.688 113.081 245.516 110.043C241.699 106.295 238.744 101.755 236.858 96.7391C235.294 93.1086 233.936 89.3926 232.788 85.6087C231.781 82.3942 230.943 79.1288 230.277 75.8261C229.841 73.7638 229.566 71.6705 229.454 69.5652C229.454 68.6522 229.454 68.2609 229.801 68.3913C234.625 67.0636 239.275 65.1663 243.655 62.7391C249.385 59.5971 254.896 56.0672 260.149 52.1739C266.162 47.8144 271.942 43.1413 277.467 38.1739C283.224 33.0653 288.633 27.5747 293.658 21.7391C298.49 16.1057 302.835 10.0694 306.646 3.69565C307.128 2.97592 307.384 2.12801 307.382 1.26087C307.382 0.434783 307.382 0 306.517 0Z" fill="white"/>
<path d="M253.136 6.21739C252.695 5.81078 252.175 5.50039 251.609 5.30582C251.042 5.11125 250.442 5.03672 249.846 5.08696C249.113 5.11261 248.385 5.22945 247.681 5.43478C246.243 5.95844 244.962 6.84126 243.958 8C242.756 9.25499 241.643 10.5915 240.624 12C239.672 13.3043 239.022 14.1739 238.719 14.6522C233.74 15.1304 227.982 15.5652 221.402 15.9565C214.949 16.3843 208.538 17.2999 202.223 18.6957C195.777 19.9798 189.635 22.4885 184.126 26.087C179.994 28.7527 176.575 32.3952 174.169 36.6956C172.189 40.1991 171.117 44.146 171.052 48.1739C171.03 51.357 171.757 54.5002 173.173 57.3478C174.527 60.1148 176.589 62.4706 179.148 64.1739C181.709 65.8931 184.725 66.8017 187.806 66.7826C188.922 66.7806 190.037 66.6934 191.14 66.5217C192.366 66.2991 193.568 65.9644 194.733 65.5217C197.029 64.5705 199.063 63.0794 200.664 61.1739C202.441 59.2426 203.902 57.0415 204.994 54.6522C206.023 52.3387 206.568 49.8379 206.596 47.3043C206.596 46.4783 206.596 45.6087 206.596 44.7391C206.469 43.8682 206.221 43.0194 205.86 42.2174C205.383 41.3043 204.864 40.8261 204.214 40.8261C203.565 40.8261 203.782 40.8261 203.782 41.3043C204.008 42.4939 204.124 43.702 204.128 44.913C204.097 47.3604 203.718 49.7909 203.002 52.1304C202.328 54.5262 201.228 56.7799 199.755 58.7826C198.408 60.7618 196.489 62.2791 194.257 63.1304C192.526 63.7879 190.696 64.1409 188.845 64.1739C187.309 64.2256 185.783 63.9049 184.397 63.2389C183.01 62.5729 181.804 61.5813 180.879 60.3478C178.911 57.6086 177.905 54.2893 178.022 50.913C178.107 47.0886 179.039 43.3311 180.75 39.913C182.741 35.8135 185.591 32.1946 189.105 29.3043C193.419 25.8217 198.422 23.302 203.782 21.913C209.351 20.4317 215.048 19.4854 220.796 19.087C226.727 18.6087 232.269 18.0435 237.42 17.4348C236.641 18.8696 235.645 20.9565 234.433 23.6522C233.221 26.3478 231.836 29.3043 230.104 32.3478C228.372 35.3913 227.16 38.7826 225.775 41.913L221.965 50.3478C220.839 52.8261 220.06 54.6957 219.584 55.7826C217.243 61.175 214.627 66.4428 211.748 71.5652C208.511 77.3786 204.727 82.8674 200.448 87.9565C195.86 93.3692 190.542 98.1108 184.646 102.043C178.034 106.274 170.692 109.223 162.999 110.739C161.719 111.056 160.416 111.274 159.103 111.391C157.717 111.391 156.289 111.391 154.774 111.391C150.085 111.442 145.42 110.723 140.963 109.261L135.205 106C132.564 104.565 128.451 102.739 128.191 99.2609C128.205 98.2462 128.351 97.2377 128.624 96.2609C128.927 94.913 129.317 93.5652 129.663 92.2609C131.352 86.2174 133.387 80.3043 135.205 74.3478C135.427 73.2858 135.586 72.2114 135.681 71.1304L134.988 70.8696C132.247 74.4031 130.111 78.3704 128.668 82.6087C129.144 78.2609 129.793 74.1304 130.659 70.0435C132.001 63.4348 133.949 57 134.988 50.1304C135.513 47.0404 135.399 43.875 134.655 40.8309C133.91 37.7868 132.55 34.9289 130.659 32.4348C134.036 39.5564 134.728 47.666 132.607 55.2609C132.399 54.7813 132.296 54.2623 132.304 53.7391C131.579 43.3648 127.604 33.487 120.947 25.5207C114.29 17.5544 105.293 11.9084 95.2452 9.3913C85.2031 7.61904 74.9157 7.79614 64.9399 9.91304C54.9101 11.7182 44.7952 13.0097 34.6346 13.7826C21.9064 14.4348 10.044 11.3478 1.42868 0.73913C1.25551 0.608696 0.952452 0.565217 0 0C0.305522 0.905796 0.667001 1.79157 1.08233 2.65217C4.41375 8.71635 9.8315 13.3535 16.3216 15.6957C18.0715 16.2443 19.6783 17.1763 21.026 18.4245C22.3736 19.6726 23.4285 21.2057 24.1144 22.913C24.8936 24.5652 25.7162 26.1739 26.3656 27.8696C29.0498 35.1739 31.6474 42.5652 34.2017 49.913C38.2455 63.0809 44.2285 75.567 51.952 86.9565C56.229 93.3888 61.8179 98.8352 68.3484 102.935C74.879 107.035 82.2024 109.695 89.8336 110.739C93.4702 111.217 97.1502 111.304 100.83 111.522V112L79.1834 113.87C79.1619 114.188 79.1619 114.508 79.1834 114.826C83.9457 114.826 88.708 114.826 93.3836 114.522C98.2545 114.228 103.1 113.603 107.887 112.652C112.216 111.696 116.546 110.087 121.135 108.783L121.394 109.348L102.042 118.739C105.318 118.207 108.537 117.362 111.653 116.217C113.986 115.344 116.245 114.283 118.407 113.043L121.438 111.304C122.746 110.215 124.204 109.321 125.767 108.652C126.839 108.436 127.947 108.469 129.004 108.748C130.062 109.026 131.043 109.544 131.871 110.261C132.737 110.826 133.646 111.348 134.556 111.87C135.573 112.475 136.629 113.012 137.716 113.478C144.565 116.381 151.929 117.86 159.363 117.826H163.389L167.372 117.391C174.229 116.447 180.868 114.298 186.984 111.043C192.464 108.079 197.422 104.231 201.66 99.6522C205.879 95.0848 209.528 90.0185 212.527 84.5652C215.631 78.948 218.378 73.1393 220.753 67.1739C223.177 61.2174 225.385 55.2609 227.42 49.3043C229.454 43.3478 231.489 37.6087 233.567 31.913C235.589 26.9247 237.932 22.0738 240.581 17.3913C244.336 17.2047 247.97 16.003 251.101 13.913C251.951 13.3736 252.675 12.6547 253.22 11.8063C253.766 10.9579 254.121 10.0002 254.262 9C254.27 8.48392 254.175 7.97134 253.982 7.49314C253.789 7.01493 253.501 6.58097 253.136 6.21739ZM126.806 105.348C116.113 106.435 105.376 108.13 94.7257 108.348C88.1009 108.336 81.5561 106.893 75.5354 104.118C69.5147 101.342 64.1589 97.2983 59.8313 92.2609C50.4951 81.8423 43.4576 69.5593 39.1804 56.2174C35.4572 45.9565 31.7773 35.6087 27.9675 25.3478C27.0583 22.913 25.7162 20.6957 24.4607 18.0435C40.5225 20.2609 55.7185 16.2609 71.2175 13.6957C79.4879 12.1524 87.9706 12.1524 96.241 13.6957C106.456 16.2657 115.388 22.4868 121.365 31.1942C127.342 39.9015 129.953 50.4981 128.711 61C127.499 70.1014 126.445 79.1884 125.551 88.2609C125.428 90.9727 125.501 93.6899 125.767 96.3913C125.767 97.5652 125.767 98.7391 125.767 100.739C122.65 98.2609 120.009 96.3913 117.108 94.087C119.189 92.0689 120.833 89.6407 121.935 86.9547C123.038 84.2687 123.576 81.3829 123.516 78.4783C123.398 74.5172 122.264 70.6537 120.225 67.2609C123.126 76.2174 123.126 84.6522 116.719 92.1739C116.402 92.1499 116.083 92.1499 115.766 92.1739C115.766 91.5217 115.766 90.6522 116.286 90.1739C119.115 87.1756 120.915 83.3465 121.421 79.2471C121.927 75.1476 121.114 70.993 119.1 67.3913C111.827 52.2609 108.363 51.5652 93.1239 52.9565C87.1352 53.813 81.5808 56.5847 77.284 60.8608C72.9871 65.1368 70.1767 70.6894 69.2693 76.6956C68.2735 86.2609 76.4992 99.1739 85.3744 101.696C90.3218 102.953 95.5451 102.525 100.224 100.478C105.159 98.4348 109.835 95.6522 114.857 93.087C114.857 93.5652 114.554 94.6087 113.991 95.0435C111.359 96.8218 108.843 98.7678 106.458 100.87L115.723 95.6522C119.446 98.6522 123.213 101.609 126.979 104.565C126.936 104.826 126.849 105.087 126.806 105.348ZM115.896 86.3043C114.148 89.1662 111.83 91.6355 109.089 93.558C106.348 95.4805 103.242 96.815 99.9642 97.4783L96.0245 98.3913C92.5878 99.6343 88.833 99.6705 85.3732 98.4939C81.9134 97.3172 78.953 94.9974 76.9755 91.913C71.9102 84.3913 70.1351 76.6957 74.984 68.2609C77.0791 64.1988 80.3083 60.8384 84.276 58.5912C88.2438 56.344 92.778 55.3075 97.3233 55.6087C105.766 53.1304 110.831 57.6957 114.641 65.2609C118.45 72.8261 120.615 79.087 115.896 86.3043ZM250.105 11.1739C249.44 11.9285 248.649 12.5611 247.768 13.0435C246.155 13.7509 244.449 14.2196 242.702 14.4348C243.222 13.7391 243.914 12.8696 244.78 11.8696C245.483 11.0123 246.282 10.2391 247.161 9.56522C247.865 8.91553 248.763 8.51805 249.716 8.43478C249.885 8.35722 250.072 8.32859 250.256 8.35213C250.44 8.37567 250.614 8.45044 250.758 8.56801C250.902 8.68558 251.01 8.84125 251.071 9.01746C251.132 9.19367 251.142 9.38339 251.101 9.56522C251.001 10.2043 250.66 10.7802 250.149 11.1739H250.105Z" fill="white"/>
<path d="M282.965 98.5218C281.967 98.5678 280.973 98.374 280.064 97.9565C278.894 97.4002 277.915 96.5074 277.25 95.3913C276.368 93.8163 275.947 92.0224 276.038 90.2174C276.102 87.9504 276.451 85.7007 277.077 83.5217C276.168 85 274.999 86.7826 273.527 88.8696C272.149 90.8965 270.568 92.776 268.808 94.4783C267.545 95.718 266.081 96.7326 264.479 97.4783C263.361 98.0395 262.135 98.351 260.885 98.3913C259.952 98.3638 259.041 98.0979 258.238 97.6186C257.435 97.1394 256.767 96.4626 256.296 95.6522C255.001 93.5244 254.368 91.0567 254.478 88.5652C254.606 85.018 255.383 81.5248 256.773 78.2609C258.539 73.7656 261.009 69.5825 264.089 65.8696C266.323 63.1709 269.077 60.9527 272.185 59.3478C275.059 57.7806 278.266 56.9306 281.536 56.8696C283.262 56.8685 284.975 57.1626 286.602 57.7391C288.255 58.307 289.743 59.278 290.931 60.5652C291.187 60.7953 291.393 61.0766 291.534 61.391C291.676 61.7055 291.751 62.0462 291.754 62.3913C291.752 62.6166 291.701 62.8388 291.604 63.0418C291.506 63.2448 291.365 63.4236 291.191 63.5652C290.975 63.7221 290.724 63.8238 290.46 63.8617C290.196 63.8995 289.927 63.8724 289.675 63.7826C289.4 62.5722 288.704 61.5001 287.712 60.7589C286.72 60.0178 285.497 59.6562 284.264 59.7391C282.74 59.8364 281.26 60.2826 279.934 61.0435C276.853 62.799 274.111 65.0964 271.839 67.8261C269.116 70.8786 266.668 74.1668 264.522 77.6522C263.996 78.5084 263.519 79.3939 263.093 80.3044C262.444 81.6087 261.838 83.0435 261.188 84.6522C260.558 86.1809 260.08 87.7683 259.76 89.3913C259.728 89.7239 259.728 90.0587 259.76 90.3913V91.3044C259.76 93.8261 260.712 95.087 262.617 95.087C264.193 94.8345 265.7 94.2558 267.041 93.3876C268.383 92.5193 269.53 91.3806 270.41 90.0435C272.393 87.5949 274.201 85.0088 275.822 82.3044C277.423 79.6087 279.069 76.7391 280.757 73.6087C281.731 71.8134 282.801 70.0718 283.961 68.3913C284.456 67.716 285.112 67.1755 285.868 66.8186C286.623 66.4618 287.456 66.3 288.29 66.3478C289.14 66.3349 289.987 66.4522 290.801 66.6957C291.67 66.892 292.573 66.892 293.442 66.6957C292.515 67.7769 291.689 68.9412 290.974 70.1739C289.935 71.8696 288.853 73.7826 287.684 75.9565C286.515 78.1304 285.519 80.3044 284.61 82.5217C283.793 84.3882 283.141 86.3232 282.662 88.3044C282.662 88.7391 282.662 89.3913 282.359 90.2609C282.314 90.8687 282.314 91.4791 282.359 92.087C282.359 94.2609 282.965 95.3044 284.177 95.3044C284.952 95.2291 285.705 94.9978 286.389 94.6243C287.073 94.2508 287.676 93.7428 288.16 93.1304C289.783 91.4713 291.234 89.6503 292.489 87.6957C293.86 85.5909 295.117 83.4138 296.256 81.1739C297.425 79 298.334 77.2174 299.027 75.8261C299.719 74.4348 299.806 74.6522 300.412 74.6522C301.018 74.6522 300.975 74.9565 300.975 75.4783C300.936 75.9161 300.819 76.3432 300.629 76.7391C299.719 78.6522 298.594 80.8261 297.295 83.2609C295.987 85.6899 294.542 88.0416 292.966 90.3044C291.613 92.376 290.014 94.2741 288.203 95.9565C286.805 97.3938 284.954 98.3003 282.965 98.5218Z" fill="white"/>
<path d="M312.231 98.3044C311.291 98.2745 310.367 98.0491 309.519 97.6423C308.67 97.2355 307.914 96.6562 307.3 95.941C306.685 95.2259 306.225 94.3904 305.949 93.4875C305.672 92.5846 305.586 91.634 305.694 90.6957C305.829 88.2228 306.401 85.7938 307.382 83.5217C308.348 80.8508 309.611 78.2982 311.149 75.913C312.4 73.9869 313.528 71.9828 314.526 69.9131C314.727 69.399 314.844 68.8558 314.872 68.3044C314.872 66.9131 314.006 65.9131 312.275 65.3044C310.102 64.621 307.84 64.2693 305.564 64.2609L304.179 68.087C303.356 70.5217 302.187 73.3913 300.672 76.7826C299.209 80.0625 297.561 83.2561 295.736 86.3478C294.203 89.0549 292.293 91.529 290.065 93.6957C289.912 93.8371 289.711 93.9147 289.502 93.9131C289.199 93.9131 288.983 93.913 288.896 93.3478C288.81 92.7826 288.896 92.4783 289.416 91.9565C292.503 87.7737 295.185 83.3041 297.425 78.6087C299.789 73.7855 301.814 68.8023 303.486 63.6957C304.996 59.0858 306.196 54.3796 307.079 49.6087C307.199 48.5981 307.639 47.6529 308.335 46.9131C308.585 46.6442 308.886 46.4286 309.221 46.2792C309.556 46.1298 309.917 46.0496 310.283 46.0435C310.822 46.0614 311.35 46.1994 311.829 46.4476C312.308 46.6957 312.727 47.0478 313.054 47.4783C313.973 48.6315 314.422 50.0923 314.309 51.5652C314.329 51.9128 314.329 52.2612 314.309 52.6087C314.334 52.9851 314.334 53.3627 314.309 53.7391C313.929 55.5122 312.988 57.1139 311.625 58.3044C310.467 59.4228 309.253 60.4821 307.988 61.4783H310.413H313.184C316.627 61.4807 320.068 61.2774 323.487 60.8696C323.636 61.1988 323.724 61.5523 323.747 61.9131C323.675 63.2141 323.382 64.4933 322.881 65.6957C322.275 67.2609 321.712 68.6087 321.106 70.0435L319.245 73.7826C318.35 75.5797 317.354 77.6232 316.258 79.913C315.23 82.074 314.333 84.2954 313.573 86.5652C312.921 88.366 312.556 90.2588 312.491 92.1739C312.491 94.1739 313.227 95.1739 314.786 95.1739C315.533 95.072 316.252 94.8191 316.899 94.4305C317.547 94.042 318.109 93.5258 318.552 92.9131C320.086 91.2109 321.449 89.3615 322.622 87.3913C323.964 85.2174 325.219 83.0435 326.302 80.9131C327.384 78.7826 328.293 77.1304 328.899 75.913C329.505 74.6957 329.635 74.7391 330.155 74.7391C330.674 74.7391 330.631 75.0435 330.631 75.5652C330.584 76.0436 330.468 76.5125 330.285 76.9565C329.419 78.7246 328.423 80.7246 327.297 82.9565C326.129 85.2117 324.843 87.4031 323.444 89.5217C322.133 91.5614 320.593 93.4433 318.855 95.1304C317.365 96.604 315.513 97.6542 313.487 98.1739C313.078 98.2834 312.654 98.3274 312.231 98.3044Z" fill="white"/>
<path d="M317.773 98.7391C320.587 93.3043 323.271 87.8261 325.782 82.3043C328.293 76.7826 330.891 71.6087 333.488 66.6957C334.537 64.6063 335.83 62.6504 337.341 60.8696C337.892 60.2818 338.567 59.8246 339.316 59.5313C340.064 59.238 340.869 59.1159 341.671 59.1739C342.332 59.1752 342.989 59.2778 343.619 59.4783C344.299 59.6493 344.996 59.7369 345.697 59.7391C346.041 59.7903 346.392 59.7903 346.736 59.7391C345.022 60.8876 343.55 62.3652 342.407 64.087C340.531 66.7681 338.811 69.5553 337.255 72.4348C335.48 75.6087 333.921 78.5652 332.536 81.1304C333.964 79.3913 335.48 77.6087 337.082 75.8261C338.695 74.0259 340.431 72.3406 342.277 70.7826L347.645 65.9565C349.396 64.3873 351.247 62.9349 353.187 61.6087C354.597 60.5495 356.279 59.9161 358.036 59.7826H359.075C359.699 59.9976 360.243 60.4013 360.63 60.9383C361.018 61.4753 361.23 62.1195 361.239 62.7826C361.184 63.5076 360.993 64.2156 360.676 64.8696C359.597 67.6451 358.309 70.334 356.823 72.913C355.265 75.6087 353.793 78.3913 352.494 81.1304C353.62 79.7391 355.092 78.087 356.823 76.087C358.437 74.1916 360.188 72.4187 362.062 70.7826C364.075 68.9836 366.232 67.3549 368.513 65.913C370.992 64.31 373.566 62.8581 376.219 61.5652C378.088 60.5325 380.154 59.9101 382.28 59.7391H383.449C381.76 62.7391 380.288 65.4783 379.119 67.913C377.95 70.3478 376.565 72.913 375.266 75.6087C373.968 78.3043 372.799 80.9565 371.76 83.4783C370.863 85.4871 370.181 87.5858 369.725 89.7391C369.514 90.6521 369.398 91.5847 369.378 92.5217C369.329 92.9534 369.364 93.3906 369.483 93.8084C369.602 94.2262 369.802 94.6164 370.071 94.9565C370.491 95.3233 371.03 95.5242 371.586 95.5217C373.415 95.3575 375.108 94.4841 376.305 93.087C378.049 91.4286 379.616 89.5926 380.981 87.6087C382.426 85.4493 383.755 83.2143 384.964 80.913C386.09 78.7391 386.955 77.0435 387.475 75.913C387.995 74.7826 388.384 74.6522 388.86 74.6522C389.337 74.6522 389.553 74.9565 389.553 75.5652C389.534 76.0064 389.416 76.4376 389.207 76.8261L385.916 83.1739C384.632 85.6719 383.185 88.0829 381.587 90.3913C380.083 92.593 378.276 94.5693 376.219 96.2609C374.492 97.7802 372.28 98.6285 369.985 98.6522C368.234 98.6005 366.535 98.0418 365.092 97.0435C364.205 96.3383 363.512 95.4167 363.08 94.3663C362.648 93.316 362.491 92.172 362.625 91.0435C362.687 89.0326 363.037 87.0411 363.664 85.1304C364.326 83.2915 365.152 81.5162 366.131 79.8261C367.214 77.8261 368.599 75.4783 370.201 72.913C370.839 71.9849 371.227 70.9063 371.327 69.7826C371.355 69.5972 371.34 69.4079 371.283 69.2293C371.226 69.0507 371.129 68.8877 370.999 68.7531C370.869 68.6184 370.71 68.5157 370.534 68.4529C370.358 68.3902 370.17 68.3691 369.985 68.3913C368.851 68.5171 367.766 68.9202 366.824 69.5652C365.005 70.72 363.32 72.0763 361.802 73.6087C360.252 75.1022 358.806 76.7001 357.473 78.3913C355.828 80.4348 354.139 82.7391 352.451 85.0435C350.864 87.2839 349.418 89.6218 348.121 92.0435C347.067 93.975 346.267 96.0357 345.74 98.1739C345.196 98.1874 344.656 98.063 344.172 97.8123C343.688 97.5616 343.274 97.1925 342.969 96.7391C342.267 95.7514 341.902 94.5614 341.93 93.3478V92.6522C341.892 92.3782 341.892 92.1001 341.93 91.8261C342.295 89.535 342.904 87.2901 343.749 85.1304C344.615 83.0435 345.567 80.7826 346.649 78.6957C347.732 76.6087 348.295 75.3043 349.16 73.4348C349.847 72.0775 350.273 70.6025 350.416 69.087C350.416 68.4783 350.199 68.1739 349.723 68.1739C348.755 68.35 347.847 68.7687 347.082 69.3913C345.296 70.7211 343.603 72.1739 342.017 73.7391C339.533 76.2326 337.219 78.8908 335.09 81.6957C331.665 86.3329 328.679 91.282 326.172 96.4783C326.02 96.8272 325.801 97.1418 325.525 97.4033C325.25 97.6647 324.925 97.8677 324.57 98C323.639 98.2494 322.675 98.352 321.712 98.3044H319.591C318.962 98.3237 318.343 98.4716 317.773 98.7391Z" fill="white"/>
<path d="M371.5 135C368.417 135.323 365.326 134.47 362.841 132.609C362.044 131.911 361.407 131.049 360.973 130.081C360.54 129.113 360.32 128.062 360.33 127C360.306 125.983 360.452 124.969 360.763 124C361.066 123.174 361.542 122.087 362.148 120.783C363.167 118.581 364.643 116.624 366.478 115.043C368.34 113.431 370.425 112.098 372.669 111.087C377.037 109.167 381.593 107.71 386.263 106.739C391.371 105.565 396.264 104.304 400.939 102.913C402.492 100.118 403.838 97.2113 404.965 94.2174C406.178 90.9565 407.26 87.7391 408.256 84.6522C409.252 81.5652 410.074 78.9565 410.68 76.9565C409.771 78.6522 408.602 80.6957 407.173 83.1304C405.817 85.5499 404.298 87.874 402.628 90.087C401.007 92.264 399.099 94.2094 396.956 95.8696C395.144 97.3175 392.908 98.1272 390.592 98.1739C389.544 98.147 388.507 97.9563 387.518 97.6087C386.314 97.205 385.248 96.4662 384.444 95.4783C383.447 94.1275 382.97 92.4593 383.102 90.7826C383.121 88.7555 383.61 86.7607 384.531 84.9565C385.483 83.1015 386.393 81.2754 387.259 79.4783C386.986 79.4614 386.721 79.3873 386.479 79.2609C386.358 79.1907 386.258 79.0891 386.189 78.9667C386.121 78.8443 386.086 78.7056 386.09 78.5652C386.1 78.2493 386.173 77.9388 386.306 77.6522L387.345 75.6957C387.743 74.982 388.09 74.241 388.384 73.4783C389.553 71.087 390.679 68.8261 391.848 66.6087L394.965 60.8696C395.338 60.0508 395.954 59.3685 396.73 58.9168C397.505 58.4651 398.401 58.2663 399.294 58.3478H406.394C405.759 58.9057 405.095 59.4283 404.403 59.9131C403.483 60.602 402.717 61.4756 402.151 62.4783C400.073 66.0435 398.298 69.4348 396.74 72.6957C395.181 75.9565 393.579 79.4783 391.804 83.1304C391.04 84.6896 390.431 86.3207 389.986 88C389.627 89.2305 389.424 90.5013 389.38 91.7826C389.38 94.3478 390.246 95.6087 391.934 95.6087C393.623 95.6087 395.96 94.1304 398.601 91.2609C400.961 88.3776 403.131 85.3421 405.095 82.1739C407.26 78.6957 409.425 75.087 411.373 71.3478C413.321 67.6087 415.183 64.1739 416.741 61C417.114 60.1812 417.731 59.4989 418.506 59.0472C419.282 58.5955 420.178 58.3967 421.071 58.4783H427.391C425.195 59.9952 423.434 62.064 422.283 64.4783C421.114 66.9565 419.772 70.087 418.343 73.9565C416.914 77.8261 415.226 82.6522 414.014 87C412.802 91.3478 410.983 96 409.252 100.565C412.25 99.5097 415.148 98.1856 417.91 96.6087C421.194 94.7682 423.986 92.1578 426.049 89C427.627 86.5587 429.073 84.0332 430.379 81.4348L433.106 76.2174C433.409 75.4348 433.799 75.0435 434.362 75.0435C434.924 75.0435 435.141 75.3913 435.141 76.087C435.144 76.5314 435.024 76.968 434.795 77.3478C432.803 81.3478 431.028 84.7391 429.469 87.4348C428.018 89.9255 426.274 92.2319 424.274 94.3044C422.252 96.3608 419.949 98.1176 417.434 99.5217C414.137 101.216 410.722 102.669 407.217 103.87C405.355 107.174 403.277 110.652 400.939 114.217C398.595 117.791 395.944 121.151 393.017 124.261C390.169 127.293 386.868 129.86 383.232 131.87C379.653 133.906 375.613 134.984 371.5 135ZM368.772 132.696C371.553 132.666 374.275 131.885 376.652 130.435C379.475 128.797 382.104 126.843 384.488 124.609C386.889 122.322 389.172 119.913 391.328 117.391C393.449 114.957 395.138 112.826 396.437 111C396.897 110.33 397.316 109.633 397.692 108.913L399.078 106.478L386.739 109.783C382.761 110.796 378.867 112.119 375.093 113.739C371.665 115.116 368.673 117.4 366.434 120.348C364.61 122.487 363.505 125.15 363.274 127.957C363.256 128.584 363.366 129.208 363.597 129.791C363.827 130.374 364.174 130.904 364.616 131.348C365.774 132.324 367.265 132.807 368.772 132.696Z" fill="white"/>
<path d="M438.604 98.1739C437.368 98.2706 436.127 98.05 434.999 97.5329C433.87 97.0157 432.891 96.2189 432.154 95.2174C430.755 93.0939 430.044 90.5883 430.119 88.0435C430.171 84.2957 430.981 80.5976 432.5 77.1739C434.029 73.6958 436.009 70.4357 438.388 67.4783C440.539 64.7574 443.077 62.3695 445.921 60.3913C448.29 58.7318 451.087 57.7957 453.973 57.6957C455.201 57.6011 456.433 57.8137 457.559 58.3145C458.684 58.8153 459.669 59.5886 460.424 60.5652C461.874 62.699 462.603 65.2446 462.502 67.8261C462.453 71.5788 461.627 75.2803 460.078 78.6957C458.974 81.0917 457.671 83.3898 456.181 85.5652C454.501 88.0334 452.571 90.3208 450.423 92.3913C450.904 93.2521 451.57 93.9947 452.372 94.5652C453.422 95.1728 454.625 95.4599 455.835 95.3913C457.802 95.3426 459.67 94.5142 461.03 93.087C462.7 91.4219 464.155 89.5521 465.36 87.5217C466.701 85.3705 467.929 83.15 469.039 80.8696L471.68 75.4348C471.784 75.2148 471.95 75.031 472.159 74.907C472.367 74.783 472.608 74.7246 472.849 74.7391C472.992 74.7447 473.132 74.7878 473.253 74.8641C473.375 74.9403 473.474 75.0471 473.542 75.1739C473.701 75.564 473.701 76.0012 473.542 76.3913C473.066 77.5217 472.33 79.2174 471.247 81.5217C470.078 83.9397 468.778 86.291 467.351 88.5652C465.907 90.8632 464.126 92.9298 462.069 94.6957C460.231 96.3349 457.861 97.2467 455.402 97.2609C453.914 97.2872 452.437 96.9906 451.073 96.3913C449.952 95.8773 448.938 95.1544 448.086 94.2609C446.595 95.4169 444.966 96.381 443.237 97.1304C441.777 97.7837 440.202 98.1384 438.604 98.1739ZM440.336 95.6522C442.84 95.4692 445.2 94.4072 447.003 92.6522C446.411 91.7491 445.945 90.769 445.618 89.7391C445.327 88.8543 445.167 87.9315 445.142 87C445.115 85.7252 445.461 84.4706 446.137 83.3913C446.466 82.8968 446.92 82.4992 447.453 82.2394C447.986 81.9796 448.578 81.8669 449.168 81.913C449.634 81.8973 450.098 81.9868 450.525 82.1749C450.952 82.363 451.331 82.645 451.636 83C452.264 83.6724 452.619 84.5564 452.631 85.4783C452.655 85.695 452.655 85.9137 452.631 86.1304C452.664 86.332 452.664 86.5376 452.631 86.7391C454.077 84.8058 455.311 82.7213 456.311 80.5217C458.516 76.3501 459.815 71.7563 460.121 67.0435C460.242 65.5203 459.878 63.9979 459.082 62.6956C458.73 62.2036 458.26 61.8097 457.714 61.5511C457.169 61.2924 456.567 61.1776 455.965 61.2174C454.063 61.3378 452.247 62.0523 450.77 63.2609C448.703 64.8387 446.88 66.714 445.358 68.8261C443.639 71.2399 442.187 73.835 441.029 76.5652C439.879 79.0026 438.895 81.5157 438.085 84.087C437.441 86.1295 437.077 88.2503 437.002 90.3913C436.941 91.6858 437.257 92.9703 437.912 94.087C438.173 94.5134 438.527 94.8754 438.947 95.1463C439.366 95.4172 439.841 95.5901 440.336 95.6522Z" fill="white"/>
<path d="M463.758 135C456.484 135 452.848 132 452.848 126C452.839 123.161 453.907 120.425 455.835 118.348C457.901 116.07 460.312 114.133 462.978 112.609C466.52 110.434 470.243 108.572 474.105 107.043C477.698 105.696 481.118 104.478 484.365 103.435C487.612 102.391 490.729 101.261 493.63 100.043C495.041 95.8147 495.971 91.439 496.401 87C496.401 84.6957 496.747 82.6522 496.747 81C496.811 79.8296 496.695 78.6562 496.401 77.5217C495.535 79.1739 494.453 81.1304 493.067 83.4348C491.657 85.7919 490.08 88.0441 488.348 90.1739C486.691 92.2283 484.786 94.0684 482.677 95.6522C480.873 97.0384 478.671 97.801 476.399 97.8261C475.663 97.8452 474.929 97.7273 474.235 97.4783C472.28 96.7429 470.632 95.3634 469.559 93.5652C468.592 91.8104 468.099 89.8316 468.13 87.8261C468.244 83.9045 469.267 80.0636 471.118 76.6087C473.06 72.6961 475.442 69.0199 478.218 65.6522C480.393 63.0207 483.054 60.8357 486.054 59.2174C488.827 57.6373 491.957 56.799 495.145 56.7826C498.744 56.8076 502.226 58.0653 505.016 60.3478C505.513 60.683 505.927 61.1273 506.227 61.6471C506.527 62.1669 506.705 62.7485 506.748 63.3478C506.748 64.5217 506.272 65.087 505.363 65.087C504.453 65.087 504.064 64.5652 503.761 63.5652C503.494 62.3663 502.84 61.2896 501.9 60.5032C500.96 59.7167 499.788 59.2646 498.566 59.2174C496.191 59.3812 493.918 60.2431 492.028 61.6956C489.473 63.4405 487.159 65.5164 485.145 67.8696C483.171 70.1158 481.376 72.5145 479.776 75.0435C478.117 77.5711 476.669 80.2323 475.447 83C474.448 85.126 473.888 87.4333 473.802 89.7826C473.765 90.9647 474.081 92.1309 474.711 93.1304C475.019 93.5982 475.447 93.9741 475.95 94.2189C476.453 94.4637 477.012 94.5682 477.568 94.5217C479.674 94.3924 481.66 93.4957 483.153 92C485.253 90.128 487.141 88.0282 488.781 85.7391C490.529 83.4594 492.121 81.0626 493.544 78.5652C494.655 76.5311 495.596 74.4078 496.358 72.2174C496.473 71.5469 496.725 70.9075 497.098 70.339C497.47 69.7705 497.955 69.2851 498.522 68.913C499.396 68.5251 500.338 68.318 501.293 68.3043C502.114 68.3395 502.923 68.0943 503.588 67.6087C503.899 69.3041 504.101 71.0177 504.194 72.7391C504.194 74.4783 504.194 76.2174 504.194 78C504.193 84.0306 503.422 90.0362 501.899 95.8696L506.228 92.3478C507.665 91.1391 508.958 89.7677 510.082 88.2609C511.779 86.0186 513.231 83.5987 514.411 81.0435L516.662 75.913C517.138 75.1304 517.615 74.7391 518.177 74.7391C518.268 74.7316 518.36 74.7448 518.445 74.7778C518.53 74.8107 518.607 74.8626 518.669 74.9295C518.732 74.9963 518.778 75.0765 518.806 75.164C518.833 75.2515 518.84 75.3441 518.827 75.4348C518.806 75.9286 518.657 76.4083 518.394 76.8261C516.489 80.913 514.714 84.3913 513.112 87.2609C511.675 89.9157 509.899 92.3712 507.83 94.5652C505.746 96.6237 503.331 98.3141 500.687 99.5652C499.28 103.638 497.437 107.545 495.189 111.217C492.688 115.335 489.787 119.195 486.53 122.739C483.392 126.183 479.741 129.116 475.707 131.435C472.105 133.656 467.983 134.886 463.758 135ZM460.987 132.696C462.831 132.659 464.652 132.276 466.355 131.565C468.194 130.851 469.975 129.994 471.68 129C473.027 128.22 474.328 127.363 475.577 126.435C477.54 124.886 479.352 123.154 480.988 121.261C482.705 119.345 484.323 117.342 485.837 115.261C487.136 113.391 488.348 111.478 489.561 109.435C490.699 107.488 491.711 105.469 492.591 103.391L490.34 104.174C489.474 104.478 488.825 104.696 488.478 104.87C485.924 105.696 483.153 106.696 480.123 107.826C477.092 108.957 474.105 110.174 471.118 111.522C468.293 112.75 465.571 114.204 462.978 115.87C460.774 117.398 458.939 119.403 457.61 121.739C456.361 123.599 455.629 125.761 455.489 128C455.477 128.62 455.589 129.236 455.82 129.811C456.05 130.387 456.394 130.909 456.831 131.348C457.397 131.844 458.057 132.219 458.771 132.45C459.486 132.682 460.239 132.765 460.987 132.696Z" fill="white"/>
</g>
</g>
<defs>
<filter id="filter0_d_8_423" x="-4" y="0" width="526.833" height="143.067" filterUnits="userSpaceOnUse" color-interpolation-filters="sRGB">
<feFlood flood-opacity="0" result="BackgroundImageFix"/>
<feColorMatrix in="SourceAlpha" type="matrix" values="0 0 0 0 0 0 0 0 0 0 0 0 0 0 0 0 0 0 127 0" result="hardAlpha"/>
<feOffset dy="4"/>
<feGaussianBlur stdDeviation="2"/>
<feComposite in2="hardAlpha" operator="out"/>
<feColorMatrix type="matrix" values="0 0 0 0 0 0 0 0 0 0 0 0 0 0 0 0 0 0 0.25 0"/>
<feBlend mode="normal" in2="BackgroundImageFix" result="effect1_dropShadow_8_423"/>
<feBlend mode="normal" in="SourceGraphic" in2="effect1_dropShadow_8_423" result="shape"/>
</filter>
<clipPath id="clip0_8_423">
<rect width="519" height="135" fill="white"/>
</clipPath>
</defs>
</svg>
