<svg width="309" height="231" viewBox="0 0 309 231" fill="none" xmlns="http://www.w3.org/2000/svg">
<g opacity="0.5" clip-path="url(#clip0_228_1187)">
<path d="M225.631 219.485H219.482L216.556 195.765H225.631V219.485Z" fill="#9E616A"/>
<path d="M228.876 230.14H224.467L223.68 225.976L221.664 230.14H209.97C209.409 230.14 208.863 229.961 208.412 229.628C207.96 229.296 207.627 228.828 207.46 228.293C207.293 227.758 207.302 227.183 207.485 226.653C207.667 226.123 208.015 225.665 208.476 225.347L217.815 218.896V214.687L227.637 215.273L228.876 230.14Z" fill="#2F2E41"/>
<path d="M262.158 211.724L257.224 215.394L240.725 198.106L248.007 192.69L262.158 211.724Z" fill="#9E616A"/>
<path d="M271.118 218.337L267.58 220.969L264.464 218.097L265.331 222.642L255.947 229.621C255.497 229.956 254.952 230.138 254.392 230.141C253.831 230.144 253.284 229.967 252.831 229.637C252.378 229.307 252.042 228.841 251.873 228.307C251.703 227.772 251.709 227.198 251.889 226.667L255.534 215.916L253.023 212.539L261.255 207.146L271.118 218.337Z" fill="#2F2E41"/>
<path d="M232.789 97.1023C232.789 97.1023 244.454 107.183 239.072 135.92L232.501 164.078L253.93 199.638L247.098 207.952L219.239 169.463L209.143 145.777L206.311 103.621L232.789 97.1023Z" fill="#2F2E41"/>
<path d="M214.708 152.527L214.006 163.396L216.153 209.712L226.257 207.952L228.188 174.976L214.708 152.527Z" fill="#2F2E41"/>
<path d="M85.0472 225.062L90.5456 225.062L93.161 203.849L85.0465 203.85L85.0472 225.062Z" fill="#FFB6B6"/>
<path d="M83.6448 223.266L85.1924 223.266L91.2345 220.809L94.4728 223.266H94.4732C96.3033 223.266 98.0584 223.993 99.3524 225.288C100.646 226.582 101.374 228.337 101.374 230.168V230.392L83.6452 230.393L83.6448 223.266Z" fill="#2F2E41"/>
<path d="M106.354 221.596L111.717 222.807L118.94 202.692L111.025 200.905L106.354 221.596Z" fill="#FFB6B6"/>
<path d="M105.381 219.536L106.891 219.877L113.326 218.811L115.943 221.921L115.944 221.921C117.729 222.324 119.281 223.42 120.258 224.968C121.235 226.516 121.558 228.388 121.155 230.174L121.105 230.393L103.812 226.487L105.381 219.536Z" fill="#2F2E41"/>
<path d="M78.0836 95.3813C75.5058 103.158 75.7783 111.599 78.7033 120.659L79.9536 171.667C79.9536 171.667 78.0907 205.117 84.102 216.888H92.82L97.1364 168.612L97.6784 136.209L116.369 163.546L104.464 216.099L115.194 217.058L134.512 160.026L110.678 104.696L78.0836 95.3813Z" fill="#2F2E41"/>
<path d="M178.622 73.2309C185.29 67.2206 195.209 64.1985 203.528 67.5687C194.994 72.308 188.411 79.9139 184.943 89.0408C183.619 92.5655 182.513 96.6238 179.255 98.5109C177.228 99.6851 174.706 99.7424 172.433 99.1756C170.16 98.6087 168.077 97.4724 166.022 96.3475L165.437 96.3342C168.062 87.7483 171.953 79.2413 178.622 73.2309Z" fill="#E6E6E6"/>
<path d="M203.482 67.7512C196.113 68.7036 189.232 71.9541 183.816 77.041C182.63 78.1154 181.621 79.3699 180.827 80.7585C180.096 82.1362 179.747 83.6844 179.817 85.2424C179.853 86.6963 180.059 88.1793 179.741 89.6167C179.567 90.35 179.24 91.0384 178.782 91.6366C178.324 92.2348 177.744 92.7293 177.081 93.0878C175.453 94.0239 173.586 94.319 171.749 94.5441C169.711 94.7941 167.589 95.0214 165.824 96.1652C165.611 96.3037 165.408 95.9638 165.622 95.8254C168.692 93.8354 172.577 94.5595 175.879 93.2314C177.419 92.6116 178.782 91.5238 179.265 89.8791C179.687 88.4408 179.477 86.9113 179.427 85.4395C179.337 83.9207 179.62 82.4028 180.251 81.0185C180.973 79.5939 181.931 78.3026 183.086 77.1997C185.646 74.6754 188.587 72.5695 191.802 70.959C195.46 69.1006 199.409 67.8818 203.478 67.3554C203.73 67.3229 203.732 67.7189 203.482 67.7512Z" fill="white"/>
<path d="M185.463 75.3003C184.733 74.2754 184.392 73.0245 184.499 71.7708C184.606 70.517 185.155 69.3422 186.048 68.4561C186.229 68.2775 186.515 68.5509 186.334 68.7298C185.501 69.5534 184.989 70.6478 184.892 71.8155C184.795 72.9832 185.118 74.1472 185.803 75.0974C185.952 75.3041 185.611 75.5058 185.463 75.3003Z" fill="white"/>
<path d="M179.702 84.5074C182.234 84.9561 184.842 84.4338 187.007 83.0445C187.221 82.9066 187.424 83.2466 187.209 83.3842C184.955 84.8258 182.239 85.3638 179.605 84.8911C179.354 84.8458 179.452 84.4624 179.702 84.5074Z" fill="white"/>
<path d="M195.492 69.6241C195.692 70.0795 196.002 70.4781 196.394 70.7842C196.785 71.0903 197.247 71.2942 197.737 71.3776C197.989 71.4196 197.89 71.803 197.641 71.7613C197.099 71.6666 196.59 71.4408 196.156 71.1036C195.722 70.7664 195.378 70.3281 195.152 69.827C195.127 69.7815 195.12 69.7282 195.133 69.6778C195.146 69.6274 195.177 69.5837 195.221 69.5557C195.266 69.5291 195.32 69.5213 195.371 69.5341C195.421 69.5469 195.465 69.5793 195.492 69.6241Z" fill="white"/>
<path d="M212.69 96.5532C212.532 96.5315 212.374 96.5097 212.214 96.4903C210.092 96.2085 207.949 96.0997 205.809 96.1649C205.644 96.1673 205.476 96.1722 205.311 96.1794C200.156 96.3914 195.086 97.5588 190.357 99.6223C188.476 100.445 186.66 101.41 184.926 102.508C182.53 104.025 180.054 105.861 177.376 106.479C177.098 106.547 176.815 106.597 176.53 106.63L165.467 97.0484C165.452 97.014 165.436 96.982 165.421 96.9475L164.962 96.5851C165.048 96.5222 165.138 96.4589 165.223 96.396C165.273 96.3593 165.325 96.3247 165.374 96.288C165.408 96.2642 165.442 96.2405 165.471 96.2172C165.482 96.2092 165.493 96.2013 165.502 96.1959C165.531 96.1725 165.561 96.1539 165.588 96.133C166.09 95.7772 166.596 95.4244 167.105 95.0745C167.107 95.072 167.107 95.072 167.112 95.0716C170.965 92.3681 175.125 90.1313 179.505 88.4082C179.636 88.3585 179.77 88.3062 179.906 88.261C181.879 87.5274 183.908 86.9562 185.973 86.5533C187.105 86.3363 188.247 86.1768 189.395 86.0753C192.361 85.8188 195.35 86.0305 198.25 86.7028C204.033 88.0439 209.322 91.2197 212.454 96.1725C212.534 96.2992 212.612 96.424 212.69 96.5532Z" fill="#E6E6E6"/>
<path d="M212.543 96.6723C206.087 92.9954 198.636 91.4468 191.249 92.2466C189.656 92.3905 188.095 92.7848 186.625 93.4148C185.212 94.0748 184.002 95.1011 183.12 96.3872C182.274 97.5697 181.545 98.8774 180.426 99.8336C179.846 100.315 179.17 100.667 178.444 100.869C177.718 101.071 176.958 101.117 176.213 101.004C174.35 100.771 172.681 99.8816 171.079 98.9556C169.301 97.9274 167.47 96.8313 165.373 96.6818C165.119 96.6636 165.162 96.2702 165.415 96.2883C169.065 96.5485 171.731 99.4663 175.167 100.394C176.77 100.827 178.513 100.779 179.888 99.7567C181.091 98.8624 181.843 97.5146 182.69 96.3098C183.532 95.0426 184.671 94.0009 186.009 93.2757C187.442 92.5729 188.985 92.1191 190.571 91.934C194.135 91.4603 197.751 91.5499 201.287 92.1997C205.326 92.9189 209.213 94.324 212.779 96.3541C212.999 96.4799 212.763 96.7972 212.543 96.6723Z" fill="white"/>
<path d="M193.612 91.849C193.647 90.5911 194.127 89.3864 194.967 88.4499C195.807 87.5134 196.953 86.906 198.199 86.7364C198.451 86.7029 198.515 87.0936 198.263 87.1271C197.102 87.2829 196.034 87.8487 195.254 88.7224C194.473 89.5961 194.031 90.7201 194.006 91.8915C194 92.1461 193.607 92.1021 193.612 91.849Z" fill="white"/>
<path d="M183.47 95.731C185.222 97.6141 187.619 98.7677 190.183 98.9617C190.437 98.9808 190.394 99.3742 190.141 99.3552C187.473 99.1483 184.981 97.9427 183.162 95.979C182.989 95.7917 183.298 95.5447 183.47 95.731Z" fill="white"/>
<path d="M205.036 93.3563C204.922 93.8402 204.929 94.345 205.058 94.8254C205.187 95.3058 205.433 95.7466 205.774 96.1084C205.949 96.2934 205.64 96.5403 205.466 96.3565C205.09 95.955 204.819 95.4678 204.676 94.9374C204.533 94.407 204.521 93.8495 204.643 93.3137C204.65 93.2622 204.677 93.2155 204.717 93.1829C204.758 93.1503 204.809 93.1343 204.861 93.1383C204.913 93.1442 204.961 93.1704 204.994 93.2112C205.026 93.252 205.042 93.3042 205.036 93.3563Z" fill="white"/>
<path d="M18.3649 224.677C17.8455 226.626 16.4808 228.249 14.8332 229.431C14.5646 229.624 14.2888 229.803 14.0094 229.972C13.9235 230.022 13.8375 230.076 13.748 230.122C13.6513 230.18 13.5545 230.233 13.4578 230.283H5.71048C5.57079 230 5.43469 229.714 5.29858 229.431C1.97829 222.452 -0.353443 214.921 0.0441331 207.251C0.201866 204.276 0.826768 201.344 1.8959 198.563C4.02347 193.021 7.90611 188.224 13.2465 185.809C13.379 185.748 13.5187 185.687 13.6548 185.63C13.6119 185.784 13.5689 185.935 13.5259 186.089C12.953 188.153 12.5481 190.261 12.3153 192.39C12.2938 192.555 12.2759 192.72 12.2615 192.888C11.7527 198.025 12.2045 203.211 13.5939 208.182C13.5975 208.193 13.6011 208.208 13.6047 208.218C13.9092 209.318 14.2626 210.401 14.6649 211.468C14.9801 212.31 15.3204 213.141 15.6929 213.958C17.2474 217.386 19.3319 221.04 18.3649 224.677Z" fill="#E6E6E6"/>
<path d="M13.7516 185.791C13.6763 185.892 13.6011 185.988 13.5259 186.089C11.9527 188.174 10.6168 190.428 9.54299 192.81C9.48568 192.928 9.43196 193.046 9.38539 193.168C7.91399 196.493 6.96903 200.027 6.58445 203.643C6.58029 203.668 6.5779 203.693 6.57729 203.719C6.48775 204.564 6.43402 205.417 6.41253 206.269C6.33288 207.868 6.50573 209.468 6.92472 211.013C7.30675 212.274 7.9762 213.429 8.88036 214.388C8.96991 214.484 9.05945 214.581 9.15616 214.674C9.2278 214.749 9.30659 214.825 9.38181 214.896C10.1053 215.588 10.8969 216.229 11.5774 216.971C11.8894 217.303 12.171 217.663 12.4191 218.045C12.8151 218.687 13.0709 219.404 13.1697 220.152C13.2684 220.899 13.208 221.658 12.9922 222.38C12.5051 224.193 11.3912 225.723 10.2522 227.181C9.68268 227.912 9.09527 228.65 8.58666 229.431C8.40042 229.71 8.22848 229.993 8.07091 230.284H7.6196C7.77004 229.993 7.9348 229.71 8.11389 229.431C9.42123 227.371 11.2802 225.601 12.2437 223.333C12.8955 221.804 13.0925 220.07 12.2687 218.569C12.0273 218.132 11.7351 217.726 11.3984 217.358C10.7429 216.616 9.9585 215.982 9.24573 215.312C9.06664 215.144 8.89113 214.972 8.72279 214.792C7.83028 213.885 7.14157 212.798 6.70267 211.604C6.20563 210.087 5.97064 208.496 6.00781 206.9C6.00781 205.883 6.06154 204.858 6.16183 203.841C6.17257 203.712 6.1869 203.579 6.20123 203.446C6.93371 197.044 9.36635 190.954 13.2466 185.809C13.3182 185.709 13.3934 185.612 13.4686 185.516C13.6226 185.315 13.9056 185.594 13.7516 185.791Z" fill="white"/>
<path d="M6.34577 203.874C5.10516 203.666 3.97901 203.023 3.16844 202.061C2.35787 201.099 1.91566 199.879 1.92079 198.621C1.92148 198.57 1.94204 198.521 1.97817 198.484C2.01429 198.448 2.06314 198.427 2.11443 198.426C2.16572 198.425 2.21544 198.444 2.25312 198.478C2.29079 198.513 2.31349 198.561 2.31641 198.613C2.30948 199.784 2.72151 200.92 3.47814 201.814C4.23477 202.709 5.28616 203.303 6.44255 203.491C6.6938 203.532 6.59559 203.915 6.34577 203.874Z" fill="white"/>
<path d="M8.78093 214.46C10.8887 212.986 12.3637 210.772 12.9118 208.259C12.9659 208.01 13.3495 208.107 13.2954 208.356C12.7201 210.97 11.1805 213.271 8.98375 214.799C8.77427 214.945 8.57258 214.604 8.78093 214.46Z" fill="white"/>
<path d="M9.42448 192.768C9.8877 192.948 10.3885 193.011 10.882 192.95C11.3755 192.89 11.8461 192.707 12.2517 192.42C12.4593 192.271 12.6607 192.612 12.4545 192.759C12.005 193.075 11.4849 193.276 10.9398 193.344C10.3948 193.413 9.84127 193.346 9.32769 193.151C9.27774 193.137 9.23511 193.104 9.20847 193.06C9.18184 193.015 9.17319 192.962 9.18428 192.911C9.19735 192.86 9.22991 192.817 9.27489 192.79C9.31987 192.763 9.37362 192.755 9.42448 192.768Z" fill="white"/>
<path d="M40.6219 199.645C40.4966 199.742 40.3676 199.839 40.2423 199.939C38.5418 201.241 36.9498 202.678 35.4821 204.238C35.3675 204.356 35.2529 204.478 35.1418 204.6L35.1383 204.603C31.6582 208.382 28.9066 212.772 27.022 217.551L27.0112 217.583C27.0077 217.594 27.0041 217.601 27.0005 217.612C26.2535 219.525 25.6513 221.491 25.1989 223.494C24.7619 225.45 24.4037 227.546 23.7196 229.431C23.6157 229.721 23.5011 230.007 23.3793 230.283H7.4548C7.50853 230 7.56584 229.714 7.62315 229.431C8.43322 225.279 9.69929 221.23 11.3983 217.357C11.4556 217.228 11.5129 217.099 11.5774 216.97C12.4545 215.057 13.4859 213.218 14.6613 211.471L14.6616 211.47L14.6623 211.469L14.6635 211.468L14.6649 211.468C15.3103 210.515 16.0037 209.595 16.7423 208.713C18.6579 206.433 20.9207 204.47 23.4474 202.894C23.4617 202.884 23.4796 202.877 23.4939 202.866C28.5227 199.745 34.4828 198.259 40.1814 199.545H40.185C40.3318 199.577 40.4751 199.609 40.6219 199.645Z" fill="#E6E6E6"/>
<path d="M40.604 199.835C40.4823 199.867 40.3605 199.903 40.2423 199.939C37.732 200.656 35.3091 201.65 33.0179 202.902C32.9032 202.963 32.7886 203.027 32.674 203.092C29.5076 204.859 26.6333 207.106 24.153 209.752C24.151 209.754 24.1498 209.756 24.1494 209.759C24.1207 209.788 24.0885 209.82 24.0634 209.848C23.4904 210.465 22.9388 211.106 22.4158 211.765C21.3929 212.994 20.5687 214.376 19.9731 215.86C19.5179 217.097 19.3573 218.423 19.5039 219.733C19.5146 219.865 19.5325 219.994 19.5504 220.127C19.5647 220.231 19.5791 220.335 19.597 220.442C19.8334 221.879 20.2417 223.319 20.1271 224.784C20.0573 225.535 19.8295 226.263 19.4584 226.919C19.0874 227.575 18.5817 228.146 17.9744 228.592C17.5617 228.912 17.1204 229.192 16.6564 229.431C15.9928 229.773 15.3014 230.058 14.5897 230.283H13.182C13.3719 230.23 13.5581 230.176 13.748 230.122C14.4216 229.932 15.0831 229.701 15.7287 229.431C16.0975 229.277 16.4564 229.099 16.8032 228.901C18.2431 228.073 19.443 226.805 19.6937 225.11C19.9122 223.627 19.4895 222.144 19.2388 220.693C19.1958 220.442 19.1564 220.195 19.1349 219.948C18.9639 218.691 19.0678 217.413 19.4394 216.2C19.9547 214.688 20.7252 213.275 21.7174 212.023C22.3311 211.208 22.9863 210.425 23.6802 209.676C23.7662 209.58 23.8557 209.483 23.9488 209.386C26.4813 206.721 29.4054 204.459 32.6203 202.676H32.6239C35.0142 201.345 37.5502 200.294 40.1814 199.545H40.185C40.3032 199.509 40.4249 199.473 40.5431 199.441C40.7903 199.376 40.8476 199.767 40.604 199.835Z" fill="white"/>
<path d="M23.8071 209.812C22.942 208.899 22.4297 207.707 22.3618 206.451C22.2938 205.195 22.6745 203.955 23.436 202.953C23.5908 202.751 23.9121 202.982 23.7571 203.185C23.0463 204.116 22.6917 205.271 22.7574 206.441C22.8231 207.611 23.3047 208.718 24.1154 209.564C24.2913 209.748 23.9821 209.995 23.8071 209.812Z" fill="white"/>
<path d="M19.3799 219.73C21.9498 219.823 24.4602 218.944 26.4106 217.267C26.6037 217.101 26.8515 217.409 26.6586 217.575C24.6257 219.316 22.0114 220.226 19.3373 220.124C19.0824 220.114 19.1264 219.721 19.3799 219.73Z" fill="white"/>
<path d="M32.9507 202.799C33.2118 203.222 33.5739 203.573 34.0045 203.822C34.4351 204.071 34.9206 204.209 35.4176 204.223C35.6725 204.23 35.6283 204.623 35.3751 204.617C34.826 204.598 34.2899 204.445 33.8136 204.171C33.3373 203.898 32.9352 203.512 32.6425 203.047C32.6112 203.005 32.5969 202.953 32.6025 202.902C32.6081 202.85 32.6332 202.802 32.6726 202.768C32.7135 202.736 32.7658 202.721 32.8178 202.726C32.8699 202.732 32.9176 202.758 32.9507 202.799Z" fill="white"/>
<path d="M163.465 62.0251C163.098 62.5087 162.629 62.9059 162.091 63.1885C161.553 63.4712 160.96 63.6325 160.354 63.6611C159.747 63.6897 159.141 63.585 158.58 63.3541C158.018 63.1233 157.513 62.7721 157.102 62.3252L143.563 68.215L144.881 60.6552L157.536 56.2211C158.333 55.5795 159.337 55.2524 160.358 55.3017C161.38 55.3511 162.347 55.7735 163.078 56.489C163.809 57.2044 164.252 58.1631 164.324 59.1834C164.395 60.2038 164.09 61.2149 163.465 62.0251Z" fill="#FFB8B8"/>
<path d="M154.43 64.3855L122.983 78.3964L122.916 78.3722L87.0743 65.5971C84.4045 64.2015 82.3692 61.838 81.3849 58.9903C80.4006 56.1427 80.5419 53.0264 81.7798 50.2795C82.466 48.7619 83.4657 47.4068 84.7132 46.3035C85.9607 45.2001 87.4277 44.3736 89.0176 43.8782C90.6075 43.3828 92.2843 43.2299 93.9375 43.4294C95.5908 43.629 97.1831 44.1765 98.6095 45.0359L125.282 61.107L151.147 57.7542L154.43 64.3855Z" fill="#E6E6E6"/>
<path d="M309 230.574C309 230.63 308.989 230.685 308.968 230.737C308.946 230.789 308.915 230.836 308.876 230.876C308.836 230.915 308.789 230.947 308.737 230.968C308.685 230.989 308.63 231 308.574 231H0.438127C0.325084 231 0.216675 230.955 0.136741 230.875C0.0568075 230.795 0.0119019 230.687 0.0119019 230.574C0.0119019 230.461 0.0568075 230.352 0.136741 230.272C0.216675 230.192 0.325084 230.147 0.438127 230.147H308.574C308.63 230.147 308.685 230.158 308.737 230.18C308.789 230.201 308.836 230.232 308.876 230.272C308.915 230.312 308.946 230.359 308.968 230.41C308.989 230.462 309 230.518 309 230.574Z" fill="#CCCCCC"/>
<path d="M112.232 106.33L80.5316 101.258C79.7002 100.992 78.9362 100.548 78.2922 99.959C77.6482 99.3694 77.1393 98.6475 76.8005 97.8427C76.4618 97.0379 76.3011 96.1693 76.3296 95.2966C76.3582 94.4238 76.5752 93.5676 76.9657 92.7866L78.4033 89.9104L77.8449 59.6925C77.7776 55.7619 78.7464 51.8828 80.6538 48.4456C82.5613 45.0084 85.3401 42.1342 88.7107 40.1123L91.8021 38.2635L93.3644 34.2952L107.77 34.6466L107.812 39.8512L112.971 48.0797L112.971 48.1138L112.647 92.9011L111.226 97.5231L113.376 102.899L112.232 106.33Z" fill="#E6E6E6"/>
<path d="M101.887 29.3608C109.116 29.3608 114.976 23.4992 114.976 16.2685C114.976 9.03787 109.116 3.17627 101.887 3.17627C94.6576 3.17627 88.7973 9.03787 88.7973 16.2685C88.7973 23.4992 94.6576 29.3608 101.887 29.3608Z" fill="#FFB8B8"/>
<path d="M88.2566 19.1225C87.8662 17.4774 88.0455 15.1625 88.2661 13.5061C88.8445 9.16353 91.2556 5.03516 94.9186 2.58978C95.6132 2.06213 96.4385 1.73407 97.3057 1.64095C98.1723 1.60477 99.1116 2.06878 99.3776 2.8945C99.5959 2.34952 99.9236 1.85507 100.34 1.44168C100.757 1.02829 101.254 0.704715 101.801 0.490942C102.899 0.0701159 104.08 -0.0890304 105.25 0.0261179C107.519 0.213143 109.694 1.01096 111.546 2.33489C113.398 3.65882 114.856 5.45948 115.768 7.54577C116.117 8.3765 117.094 5.30801 117.537 6.09293C117.944 6.90881 118.654 7.53293 119.515 7.83171C120.383 8.07396 120.736 11.6509 121.077 10.8168C121.342 11.4332 121.447 12.1067 121.382 12.7745C121.316 13.4423 121.083 14.0827 120.704 14.6361C120.325 15.1895 119.811 15.6378 119.212 15.9394C118.613 16.241 117.947 16.386 117.277 16.3609C116.393 16.3279 115.549 16.0029 114.676 15.863C111.554 15.3627 108.243 17.6267 107.576 20.7176C107.337 19.8237 106.955 18.9744 106.445 18.2022C106.187 17.8182 105.84 17.5015 105.434 17.2785C105.028 17.0555 104.575 16.9327 104.112 16.9202C103.224 16.9534 102.444 17.5342 101.867 18.2109C101.291 18.8877 100.858 19.6773 100.278 20.3504C98.5745 22.3255 96.2707 26.9315 93.8434 26.5956C91.9278 26.3305 88.7897 21.3686 88.2566 19.1225Z" fill="#2F2E41"/>
<path d="M181.01 76.8609C181.101 76.264 180.979 75.654 180.663 75.1389C180.348 74.6239 179.861 74.2372 179.288 74.0473L144.038 62.3046C143.701 62.1915 143.343 62.1504 142.988 62.1839L134.153 63.0196L129.083 63.5006L119.728 64.3849C119.163 64.4389 118.632 64.679 118.219 65.0673C117.805 65.4557 117.532 65.9704 117.442 66.5308L112.692 96.208C112.602 96.7869 112.712 97.3791 113.004 97.8869C113.296 98.3947 113.753 98.7877 114.298 99.001L149.915 112.753C150.082 112.817 150.256 112.864 150.433 112.892C150.691 112.933 150.954 112.935 151.213 112.898L174.227 109.486C174.77 109.407 175.273 109.156 175.662 108.768C176.05 108.381 176.304 107.879 176.385 107.336L181.01 76.8609Z" fill="white"/>
<path d="M115.105 96.9099L150.723 110.661C150.774 110.681 150.831 110.688 150.886 110.68L173.898 107.269C173.966 107.259 174.03 107.228 174.078 107.179C174.127 107.131 174.159 107.067 174.168 106.999L178.796 76.5234C178.806 76.449 178.791 76.3732 178.752 76.309C178.712 76.2449 178.652 76.1964 178.581 76.1717L178.344 76.0915L143.33 64.4317C143.314 64.426 143.297 64.422 143.281 64.4198C143.253 64.4148 143.226 64.4134 143.198 64.4155L121.649 66.4552L119.939 66.6156C119.869 66.6231 119.803 66.6534 119.751 66.7017C119.7 66.7501 119.666 66.814 119.654 66.8836L114.905 96.5597C114.893 96.6322 114.907 96.7064 114.943 96.7702C114.98 96.8339 115.037 96.8832 115.105 96.9099Z" fill="#051839"/>
<path d="M121.649 66.4552L143.198 64.4155C143.226 64.4134 143.253 64.4148 143.281 64.4198C143.297 64.422 143.314 64.426 143.33 64.4317L178.344 76.0915L169.108 77.0694L165.652 77.4337L155.816 78.4731C155.787 78.4745 155.758 78.4742 155.73 78.472C155.712 78.4667 155.695 78.4615 155.674 78.4559L121.649 66.4552Z" fill="#2F2E41"/>
<path d="M114.297 99.0031L149.915 112.754C150.082 112.818 150.256 112.864 150.434 112.89C150.692 112.933 150.955 112.936 151.214 112.9L174.226 109.488C174.769 109.409 175.272 109.157 175.661 108.77C176.05 108.382 176.304 107.88 176.385 107.337L181.009 76.861C181.077 76.4117 181.026 75.9523 180.859 75.5295C180.836 75.4733 180.812 75.4171 180.785 75.3641C180.601 74.978 180.322 74.6453 179.974 74.3977C179.764 74.247 179.533 74.1291 179.288 74.0478L179.246 74.033L144.04 62.3045C143.897 62.2586 143.75 62.2229 143.601 62.1977C143.397 62.1689 143.191 62.1649 142.987 62.1858L134.153 63.0186L129.084 63.5023L119.727 64.3859C119.344 64.4216 118.975 64.5438 118.646 64.7432C118.621 64.7555 118.596 64.7701 118.573 64.7867C118.557 64.7973 118.542 64.8091 118.527 64.8218C118.24 65.0178 117.996 65.2702 117.809 65.5636C117.623 65.857 117.498 66.1853 117.443 66.5285L112.69 96.2078C112.6 96.7872 112.71 97.3798 113.003 97.888C113.295 98.3961 113.752 98.7895 114.297 99.0031ZM118.073 66.6319C118.131 66.2762 118.289 65.9443 118.528 65.6749C118.601 65.5882 118.682 65.5092 118.77 65.4389C119.012 65.2435 119.298 65.1102 119.603 65.0506C119.663 65.0382 119.724 65.0295 119.785 65.0248L135.539 63.5362L143.048 62.8215C143.099 62.8155 143.146 62.8164 143.193 62.8137C143.307 62.8113 143.42 62.8198 143.532 62.8389C143.635 62.8523 143.737 62.8765 143.835 62.911L179.082 74.6543C179.11 74.6642 179.135 74.6737 179.162 74.6835C179.483 74.8028 179.764 75.0077 179.977 75.276C180.144 75.4814 180.267 75.7198 180.336 75.9757C180.405 76.2316 180.419 76.4993 180.378 76.7611L175.75 107.241C175.689 107.647 175.5 108.023 175.209 108.314C174.918 108.604 174.542 108.793 174.135 108.853L151.12 112.264C150.791 112.312 150.455 112.273 150.145 112.153L114.527 98.406C114.119 98.2451 113.777 97.9502 113.559 97.5696C113.34 97.189 113.257 96.7454 113.324 96.3116L118.073 66.6319Z" fill="#3F3D56"/>
<path d="M118.45 64.9834C118.469 64.9294 118.502 64.8816 118.546 64.8451C118.561 64.8334 118.576 64.8229 118.593 64.8135C118.607 64.8077 118.623 64.7984 118.638 64.7926C118.709 64.7639 118.789 64.7625 118.861 64.7888L119.603 65.0504L155.82 77.8293L164.296 76.9335L169.039 76.4331L179.079 75.37L179.977 75.2758L180.151 75.2565C180.226 75.2496 180.302 75.2693 180.364 75.312C180.426 75.3548 180.472 75.418 180.492 75.4906C180.497 75.5074 180.5 75.5246 180.502 75.5419C180.509 75.6109 180.494 75.6804 180.458 75.74C180.423 75.7995 180.369 75.846 180.305 75.8722C180.276 75.884 180.246 75.892 180.216 75.8961L178.995 76.0241L169.108 77.0694L165.652 77.4337L155.816 78.4731C155.787 78.4745 155.758 78.4742 155.73 78.472C155.712 78.4668 155.695 78.4615 155.674 78.4559L118.77 65.4387L118.645 65.3943C118.616 65.3849 118.59 65.3701 118.566 65.3508C118.511 65.3099 118.469 65.2522 118.448 65.1861C118.427 65.1201 118.428 65.0491 118.45 64.9834Z" fill="#3F3D56"/>
<path d="M150.531 112.983C150.448 112.97 150.373 112.924 150.323 112.856C150.273 112.788 150.253 112.703 150.265 112.619L155.465 78.1067C155.477 78.0227 155.523 77.9472 155.591 77.8968C155.66 77.8464 155.745 77.8252 155.829 77.8378L155.832 77.8383C155.915 77.8516 155.99 77.8973 156.04 77.9655C156.09 78.0336 156.11 78.1187 156.098 78.2022L150.898 112.715C150.886 112.799 150.84 112.874 150.772 112.925C150.703 112.975 150.618 112.996 150.534 112.984L150.531 112.983Z" fill="#3F3D56"/>
<path d="M163.711 110.794L160.253 111.159L164.298 76.9327C164.298 76.9327 168.916 76.0962 169.04 76.4316C169.116 76.6319 163.744 110.574 163.711 110.794Z" fill="#3F3D56"/>
<path d="M118.646 65.394L118.553 81.0023L146.178 91.5308L156.098 78.2021L118.646 65.394Z" fill="#3F3D56"/>
<path d="M179.978 75.2763C179.747 74.986 179.436 74.7698 179.083 74.6542L143.837 62.9113C143.738 62.878 143.636 62.8533 143.533 62.8373C143.42 62.818 143.306 62.8095 143.192 62.8118L143.25 62.4545L143.602 62.199L151.972 56.1377L179.925 64.7062L179.973 74.3976L179.978 75.2763Z" fill="#3F3D56"/>
<path d="M120.054 90.4504C120.094 90.4542 120.133 90.4625 120.171 90.4749L130.985 94.0277C131.121 94.0721 131.233 94.1686 131.297 94.2958C131.361 94.423 131.373 94.5705 131.328 94.7059C131.284 94.8414 131.187 94.9536 131.06 95.0179C130.933 95.0822 130.786 95.0934 130.65 95.049L119.836 91.4962C119.71 91.4549 119.604 91.3688 119.538 91.2544C119.472 91.1399 119.45 91.0051 119.477 90.8757C119.504 90.7463 119.578 90.6314 119.684 90.5529C119.791 90.4745 119.922 90.438 120.054 90.4504Z" fill="white"/>
<path d="M163.688 155.927C166.062 155.927 167.986 154.002 167.986 151.628C167.986 149.253 166.062 147.329 163.688 147.329C161.314 147.329 159.39 149.253 159.39 151.628C159.39 154.002 161.314 155.927 163.688 155.927Z" fill="#F2F2F2"/>
<path d="M54.0858 171.69C56.4596 171.69 58.3839 169.765 58.3839 167.391C58.3839 165.017 56.4596 163.092 54.0858 163.092C51.712 163.092 49.7877 165.017 49.7877 167.391C49.7877 169.765 51.712 171.69 54.0858 171.69Z" fill="#F2F2F2"/>
<path d="M143.63 29.4617C146.004 29.4617 147.928 27.537 147.928 25.1626C147.928 22.7883 146.004 20.8635 143.63 20.8635C141.256 20.8635 139.332 22.7883 139.332 25.1626C139.332 27.537 141.256 29.4617 143.63 29.4617Z" fill="#F2F2F2"/>
<path d="M150.682 96.7732C150.125 97.0153 149.521 97.1323 148.914 97.1159C148.307 97.0995 147.711 96.9501 147.168 96.6784C146.625 96.4066 146.148 96.019 145.77 95.5428C145.393 95.0667 145.125 94.5136 144.984 93.9225L130.295 92.4381L135.141 86.4888L148.347 88.8105C149.356 88.6404 150.391 88.8461 151.258 89.3888C152.125 89.9314 152.763 90.7732 153.051 91.7547C153.338 92.7363 153.256 93.7892 152.82 94.7142C152.383 95.6391 151.622 96.3718 150.682 96.7732Z" fill="#FFB8B8"/>
<path d="M141.647 94.4132L107.366 91.254L107.319 91.1999L82.3004 62.5262C80.6539 60.003 80.034 56.9458 80.5676 53.9804C81.1012 51.015 82.7479 48.3658 85.1706 46.5753C86.5111 45.587 88.0456 44.894 89.6732 44.5417C91.3008 44.1894 92.9845 44.186 94.6135 44.5315C96.2425 44.877 97.7799 45.5637 99.1245 46.5464C100.469 47.529 101.59 48.7854 102.414 50.2327L117.824 77.2971L142.024 87.0228L141.647 94.4132Z" fill="#E6E6E6"/>
<path d="M227.689 39.2711C226.838 33.0253 225.77 26.3195 221.366 21.8107C219.969 20.3801 218.296 19.2474 216.449 18.4808C214.602 17.7142 212.619 17.3297 210.619 17.3504C208.62 17.3711 206.645 17.7966 204.814 18.6013C202.984 19.4059 201.335 20.573 199.967 22.0323C196.761 25.4532 195.345 30.2567 195.216 34.9438C195.086 39.631 196.13 44.266 197.288 48.8097C203.415 48.9321 209.496 47.7348 215.12 45.299C216.526 44.6885 217.91 43.9983 219.395 43.6201C220.881 43.2418 221.94 44.1936 223.322 44.8573L224.081 43.4044C224.702 44.5603 226.624 44.2177 227.322 43.1062C228.019 41.9947 227.867 40.5713 227.689 39.2711Z" fill="#2F2E41"/>
<path d="M203.403 74.1329L178.375 74.6682C177.99 74.0037 177.421 73.4652 176.736 73.1183C176.052 72.7714 175.281 72.631 174.518 72.7142C173.755 72.7975 173.033 73.1008 172.439 73.5872C171.845 74.0736 171.405 74.7221 171.173 75.4539C170.941 76.1857 170.927 76.9692 171.132 77.709C171.337 78.4489 171.752 79.1131 172.328 79.6211C172.903 80.129 173.614 80.4586 174.373 80.5699C175.133 80.6811 175.908 80.5692 176.605 80.2477C179.925 80.4364 205.894 84.1231 207.443 81.7472C209.016 79.3357 217.409 70.8253 217.409 70.8253L210.958 61.6382L203.403 74.1329Z" fill="#9E616A"/>
<path d="M209.501 45.4506C215.996 45.4506 221.26 40.1847 221.26 33.6889C221.26 27.1931 215.996 21.9272 209.501 21.9272C203.007 21.9272 197.742 27.1931 197.742 33.6889C197.742 40.1847 203.007 45.4506 209.501 45.4506Z" fill="#9E616A"/>
<path d="M228.335 56.3195C226.949 53.5609 226.276 50.1531 223.322 49.2588C221.327 48.6549 213.258 49.5599 211.44 50.5793C208.416 52.275 211.156 55.4525 209.372 58.4259C207.433 61.6584 202.161 68.1454 200.222 71.3778C198.888 73.6001 203.38 80.1227 202.659 82.6121C201.938 85.1015 201.903 87.8955 203.131 90.1775C204.231 92.2201 202.64 94.027 203.746 96.0662C204.895 98.187 206.306 106.116 205.236 108.278L204.52 110.428C211.629 110.846 217.606 102.351 224.67 101.457C226.425 101.234 228.247 100.944 229.693 99.9253C231.823 98.4246 232.665 95.7017 233.191 93.1496C235.723 80.6748 234.014 67.7112 228.335 56.3195Z" fill="#3F3D56"/>
<path d="M238.993 85.4466C238.003 82.7433 236.21 70.924 236.21 70.924L224.991 70.595L230.476 84.1271L215.508 105.086C215.508 105.086 215.535 105.132 215.586 105.214C214.799 105.088 213.992 105.202 213.271 105.542C212.55 105.882 211.948 106.432 211.545 107.119C211.141 107.807 210.955 108.6 211.009 109.395C211.064 110.191 211.358 110.951 211.851 111.577C212.345 112.203 213.016 112.665 213.777 112.903C214.538 113.141 215.353 113.144 216.115 112.911C216.877 112.678 217.551 112.22 218.049 111.598C218.547 110.975 218.846 110.217 218.906 109.422C218.961 109.454 219.026 109.465 219.088 109.454C219.151 109.444 219.208 109.411 219.249 109.363C220.915 107.273 239.983 88.1499 238.993 85.4466Z" fill="#9E616A"/>
<path d="M240.134 77.9822C239.104 73.6348 238.067 69.2638 236.33 65.1473C234.594 61.0309 232.109 57.1428 228.613 54.3618C227.495 53.4727 226.246 52.6879 224.845 52.4115C223.444 52.1351 221.865 52.4444 220.881 53.4796C219.306 55.136 219.78 57.7949 220.357 60.0063C222.06 66.5267 223.763 73.0472 225.466 79.5676C230.384 79.0463 235.301 78.5249 240.219 78.0035L240.134 77.9822Z" fill="#3F3D56"/>
<path d="M223.91 35.3204C223.477 32.4751 223.025 29.606 222.007 26.9269C220.99 24.2477 219.35 21.7384 216.998 20.2207C213.273 17.8178 208.451 18.2813 204.275 19.6635C201.046 20.7324 197.893 22.3571 195.616 24.969C193.338 27.581 192.059 31.308 192.906 34.7232C197.361 33.6705 201.815 32.6179 206.27 31.5652L205.782 31.9098C207.245 32.6393 208.522 33.6925 209.517 34.9894C210.512 36.2863 211.198 37.7929 211.524 39.3948C211.842 41.0162 211.797 42.6881 211.39 44.2896C210.983 45.8911 210.226 47.3822 209.172 48.655C212.21 47.5771 215.248 46.4991 218.286 45.4212C220.161 44.7559 222.168 43.9893 223.28 42.2827C224.569 40.3041 224.27 37.6816 223.91 35.3204Z" fill="#2F2E41"/>
</g>
<defs>
<clipPath id="clip0_228_1187">
<rect width="309" height="231" fill="white"/>
</clipPath>
</defs>
</svg>
