<svg width="31" height="31" viewBox="0 0 31 31" fill="none" xmlns="http://www.w3.org/2000/svg">
<path d="M27.9971 18.942L26.0142 17.2467C26.108 16.6715 26.1565 16.0842 26.1565 15.4969C26.1565 14.9096 26.108 14.3223 26.0142 13.7471L27.9971 12.0518C28.1466 11.9237 28.2537 11.7532 28.304 11.5628C28.3543 11.3725 28.3454 11.1713 28.2786 10.9861L28.2514 10.9074C27.7055 9.38172 26.888 7.96737 25.8386 6.73271L25.7841 6.66914C25.6568 6.51944 25.4871 6.41184 25.2974 6.3605C25.1077 6.30916 24.9069 6.31649 24.7215 6.38154L22.2603 7.25644C21.3521 6.51172 20.3379 5.92441 19.242 5.5127L18.7667 2.93945C18.7308 2.74583 18.6369 2.5677 18.4974 2.42873C18.3579 2.28976 18.1794 2.19653 17.9857 2.16143L17.9039 2.14629C16.3267 1.86172 14.6677 1.86172 13.0904 2.14629L13.0087 2.16143C12.8149 2.19653 12.6364 2.28976 12.4969 2.42873C12.3574 2.5677 12.2635 2.74583 12.2276 2.93945L11.7493 5.5248C10.6622 5.93661 9.64976 6.5236 8.75225 7.2625L6.27286 6.38154C6.08748 6.31598 5.88654 6.30837 5.69674 6.35975C5.50694 6.41112 5.33726 6.51903 5.21026 6.66914L5.15577 6.73271C4.10754 7.96825 3.29025 9.38236 2.74297 10.9074L2.71573 10.9861C2.5795 11.3646 2.69151 11.7884 2.99727 12.0518L5.0044 13.7652C4.91055 14.3344 4.86514 14.9156 4.86514 15.4938C4.86514 16.0751 4.91055 16.6563 5.0044 17.2225L2.99727 18.9359C2.84771 19.064 2.74066 19.2345 2.69037 19.4249C2.64008 19.6152 2.64892 19.8164 2.71573 20.0016L2.74297 20.0803C3.29092 21.6061 4.10225 23.0138 5.15577 24.255L5.21026 24.3186C5.33757 24.4683 5.50725 24.5759 5.69694 24.6272C5.88663 24.6785 6.08742 24.6712 6.27286 24.6062L8.75225 23.7252C9.6544 24.4669 10.6625 25.0542 11.7493 25.4629L12.2276 28.0482C12.2635 28.2419 12.3574 28.42 12.4969 28.559C12.6364 28.6979 12.8149 28.7912 13.0087 28.8263L13.0904 28.8414C14.6822 29.1275 16.3122 29.1275 17.9039 28.8414L17.9857 28.8263C18.1794 28.7912 18.3579 28.6979 18.4974 28.559C18.6369 28.42 18.7308 28.2419 18.7667 28.0482L19.242 25.475C20.3375 25.0644 21.3573 24.4751 22.2603 23.7313L24.7215 24.6062C24.9069 24.6717 25.1078 24.6793 25.2976 24.628C25.4874 24.5766 25.6571 24.4687 25.7841 24.3186L25.8386 24.255C26.8921 23.0107 27.7034 21.6061 28.2514 20.0803L28.2786 20.0016C28.4148 19.6292 28.3028 19.2054 27.9971 18.942ZM23.8648 14.1043C23.9404 14.5614 23.9798 15.0307 23.9798 15.4999C23.9798 15.9691 23.9404 16.4384 23.8648 16.8955L23.6649 18.1095L25.9264 20.0439C25.5835 20.8337 25.1508 21.5814 24.6367 22.2721L21.8274 21.2761L20.8768 22.0571C20.1532 22.6505 19.348 23.1167 18.4761 23.4437L17.3227 23.8766L16.7808 26.8131C15.9258 26.91 15.0625 26.91 14.2075 26.8131L13.6656 23.8705L12.5213 23.4315C11.6585 23.1046 10.8563 22.6384 10.1388 22.048L9.18819 21.264L6.36065 22.269C5.846 21.5758 5.41612 20.828 5.071 20.0409L7.35665 18.0883L7.15987 16.8773C7.08721 16.4263 7.04786 15.9601 7.04786 15.4999C7.04786 15.0367 7.08419 14.5735 7.15987 14.1225L7.35665 12.9115L5.071 10.9589C5.41309 10.1687 5.846 9.42402 6.36065 8.73076L9.18819 9.73584L10.1388 8.95176C10.8563 8.36143 11.6585 7.89521 12.5213 7.56826L13.6687 7.13535L14.2106 4.19277C15.0612 4.0959 15.9301 4.0959 16.7838 4.19277L17.3257 7.1293L18.4791 7.56221C19.348 7.88916 20.1563 8.35537 20.8798 8.94873L21.8304 9.72978L24.6398 8.73379C25.1544 9.42705 25.5843 10.1748 25.9294 10.9619L23.668 12.8964L23.8648 14.1043ZM15.5002 9.86904C12.5576 9.86904 10.1721 12.2546 10.1721 15.1972C10.1721 18.1397 12.5576 20.5253 15.5002 20.5253C18.4428 20.5253 20.8283 18.1397 20.8283 15.1972C20.8283 12.2546 18.4428 9.86904 15.5002 9.86904ZM17.8979 17.5948C17.5834 17.9102 17.2097 18.1603 16.7982 18.3307C16.3867 18.5011 15.9456 18.5885 15.5002 18.5878C14.595 18.5878 13.7443 18.2336 13.1025 17.5948C12.7872 17.2804 12.5371 16.9066 12.3667 16.4951C12.1963 16.0837 12.1089 15.6425 12.1096 15.1972C12.1096 14.292 12.4638 13.4413 13.1025 12.7995C13.7443 12.1577 14.595 11.8065 15.5002 11.8065C16.4054 11.8065 17.2561 12.1577 17.8979 12.7995C18.2132 13.114 18.4633 13.4877 18.6337 13.8992C18.8041 14.3107 18.8915 14.7518 18.8908 15.1972C18.8908 16.1023 18.5366 16.953 17.8979 17.5948Z" fill="#051839" fill-opacity="0.8"/>
</svg>
