<svg width="212" height="24" viewBox="0 0 212 24" fill="none" xmlns="http://www.w3.org/2000/svg">
<g id="Frame 20">
<g id="instagram">
<path id="Vector" d="M13.0281 2.00123C13.7578 1.99843 14.4876 2.00576 15.2171 2.02323L15.4111 2.03023C15.6351 2.03823 15.8561 2.04823 16.1231 2.06023C17.1871 2.11023 17.9131 2.27823 18.5501 2.52523C19.2101 2.77923 19.7661 3.12323 20.3221 3.67923C20.8305 4.17884 21.2239 4.78318 21.4751 5.45023C21.7221 6.08723 21.8901 6.81423 21.9401 7.87823C21.9521 8.14423 21.9621 8.36623 21.9701 8.59023L21.9761 8.78423C21.9939 9.51342 22.0015 10.2428 21.9991 10.9722L22.0001 11.7182V13.0282C22.0026 13.758 21.9949 14.4877 21.9771 15.2172L21.9711 15.4112C21.9631 15.6352 21.9531 15.8562 21.9411 16.1232C21.8911 17.1872 21.7211 17.9132 21.4751 18.5502C21.2247 19.218 20.8312 19.8228 20.3221 20.3222C19.8221 20.8306 19.2174 21.224 18.5501 21.4752C17.9131 21.7222 17.1871 21.8902 16.1231 21.9402C15.8561 21.9522 15.6351 21.9622 15.4111 21.9702L15.2171 21.9762C14.4876 21.994 13.7578 22.0017 13.0281 21.9992L12.2821 22.0002H10.9731C10.2434 22.0027 9.51361 21.995 8.78409 21.9772L8.59009 21.9712C8.3527 21.9626 8.11536 21.9526 7.87809 21.9412C6.81409 21.8912 6.08809 21.7212 5.45009 21.4752C4.78277 21.2246 4.17833 20.8311 3.67909 20.3222C3.17013 19.8225 2.77631 19.2178 2.52509 18.5502C2.27809 17.9132 2.11009 17.1872 2.06009 16.1232C2.04895 15.8859 2.03895 15.6486 2.03009 15.4112L2.02509 15.2172C2.00665 14.4877 1.99832 13.758 2.00009 13.0282V10.9722C1.9973 10.2428 2.00463 9.51343 2.02209 8.78423L2.02909 8.59023C2.03709 8.36623 2.04709 8.14423 2.05909 7.87823C2.10909 6.81323 2.27709 6.08823 2.52409 5.45023C2.77546 4.78285 3.17005 4.17868 3.68009 3.68023C4.17898 3.17098 4.78305 2.7768 5.45009 2.52523C6.08809 2.27823 6.81309 2.11023 7.87809 2.06023L8.59009 2.03023L8.78409 2.02523C9.51327 2.0068 10.2427 1.99847 10.9721 2.00023L13.0281 2.00123ZM12.0001 7.00123C11.3376 6.99186 10.6798 7.11425 10.0651 7.3613C9.45029 7.60834 8.89074 7.97511 8.41893 8.44029C7.94713 8.90546 7.57249 9.45977 7.31678 10.071C7.06106 10.6822 6.92938 11.3382 6.92938 12.0007C6.92938 12.6633 7.06106 13.3192 7.31678 13.9305C7.57249 14.5417 7.94713 15.096 8.41893 15.5612C8.89074 16.0264 9.45029 16.3931 10.0651 16.6402C10.6798 16.8872 11.3376 17.0096 12.0001 17.0002C13.3262 17.0002 14.5979 16.4734 15.5356 15.5358C16.4733 14.5981 17.0001 13.3263 17.0001 12.0002C17.0001 10.6741 16.4733 9.40238 15.5356 8.4647C14.5979 7.52701 13.3262 7.00123 12.0001 7.00123ZM12.0001 9.00123C12.3986 8.99389 12.7946 9.06603 13.1649 9.21344C13.5352 9.36085 13.8724 9.58057 14.1569 9.85978C14.4413 10.139 14.6673 10.4721 14.8215 10.8396C14.9758 11.2071 15.0553 11.6016 15.0554 12.0002C15.0554 12.3988 14.9761 12.7934 14.8219 13.1609C14.6678 13.5285 14.4419 13.8617 14.1576 14.141C13.8732 14.4203 13.5361 14.6401 13.1658 14.7876C12.7955 14.9352 12.3996 15.0074 12.0011 15.0002C11.2054 15.0002 10.4424 14.6842 9.87977 14.1216C9.31716 13.5589 9.00109 12.7959 9.00109 12.0002C9.00109 11.2046 9.31716 10.4415 9.87977 9.87891C10.4424 9.3163 11.2054 9.00023 12.0011 9.00023L12.0001 9.00123ZM17.2501 5.50123C16.9275 5.51414 16.6224 5.65138 16.3987 5.8842C16.175 6.11702 16.0501 6.42736 16.0501 6.75023C16.0501 7.0731 16.175 7.38344 16.3987 7.61626C16.6224 7.84908 16.9275 7.98632 17.2501 7.99923C17.5816 7.99923 17.8996 7.86753 18.134 7.63311C18.3684 7.39869 18.5001 7.08075 18.5001 6.74923C18.5001 6.41771 18.3684 6.09977 18.134 5.86535C17.8996 5.63093 17.5816 5.49923 17.2501 5.49923V5.50123Z" fill="#F0F3F8"/>
</g>
<g id="github">
<path id="Vector_2" d="M76 2.24707C73.6254 2.24702 71.3283 3.09195 69.5198 4.63068C67.7112 6.1694 66.5092 8.30149 66.1289 10.6454C65.7486 12.9893 66.2147 15.3921 67.4439 17.4237C68.6732 19.4554 70.5852 20.9833 72.838 21.7341C73.338 21.8221 73.525 21.5221 73.525 21.2591C73.525 21.0221 73.513 20.2341 73.513 19.3971C71 19.8591 70.35 18.7841 70.15 18.2221C69.9281 17.6748 69.5763 17.1898 69.125 16.8091C68.775 16.6221 68.275 16.1591 69.112 16.1471C69.4319 16.1817 69.7387 16.2929 70.0064 16.4714C70.2742 16.6498 70.4949 16.8902 70.65 17.1721C70.7867 17.4177 70.9706 17.634 71.1911 17.8085C71.4115 17.983 71.6643 18.1123 71.9348 18.1889C72.2053 18.2656 72.4883 18.2881 72.7675 18.2551C73.0467 18.2222 73.3167 18.1345 73.562 17.9971C73.6053 17.4884 73.8321 17.0129 74.2 16.6591C71.975 16.4091 69.65 15.5471 69.65 11.7221C69.6358 10.728 70.0026 9.76628 70.675 9.03407C70.3693 8.17029 70.4051 7.22236 70.775 6.38407C70.775 6.38407 71.612 6.12207 73.525 7.40907C75.1613 6.95902 76.8887 6.95902 78.525 7.40907C80.437 6.10907 81.275 6.38407 81.275 6.38407C81.645 7.22234 81.6808 8.1703 81.375 9.03407C82.0495 9.76502 82.4165 10.7276 82.4 11.7221C82.4 15.5591 80.062 16.4091 77.837 16.6591C78.0757 16.901 78.2595 17.1914 78.3759 17.5106C78.4924 17.8298 78.5388 18.1703 78.512 18.5091C78.512 19.8471 78.5 20.9221 78.5 21.2591C78.5 21.5221 78.687 21.8341 79.187 21.7341C81.4356 20.977 83.342 19.4455 84.5658 17.4128C85.7897 15.3802 86.2513 12.9788 85.8684 10.6373C85.4854 8.29573 84.2828 6.1665 82.4752 4.62965C80.6676 3.0928 78.3726 2.24836 76 2.24707Z" fill="#F0F3F8"/>
</g>
<g id="linkedin">
<path id="Vector_3" d="M147 3C147.53 3 148.039 3.21071 148.414 3.58579C148.789 3.96086 149 4.46957 149 5V19C149 19.5304 148.789 20.0391 148.414 20.4142C148.039 20.7893 147.53 21 147 21H133C132.47 21 131.961 20.7893 131.586 20.4142C131.211 20.0391 131 19.5304 131 19V5C131 4.46957 131.211 3.96086 131.586 3.58579C131.961 3.21071 132.47 3 133 3H147ZM146.5 18.5V13.2C146.5 12.3354 146.157 11.5062 145.545 10.8948C144.934 10.2835 144.105 9.94 143.24 9.94C142.39 9.94 141.4 10.46 140.92 11.24V10.13H138.13V18.5H140.92V13.57C140.92 12.8 141.54 12.17 142.31 12.17C142.681 12.17 143.037 12.3175 143.3 12.5801C143.563 12.8426 143.71 13.1987 143.71 13.57V18.5H146.5ZM134.88 8.56C135.326 8.56 135.753 8.383 136.068 8.06794C136.383 7.75288 136.56 7.32556 136.56 6.88C136.56 5.95 135.81 5.19 134.88 5.19C134.432 5.19 134.002 5.36805 133.685 5.68499C133.368 6.00193 133.19 6.43178 133.19 6.88C133.19 7.81 133.95 8.56 134.88 8.56ZM136.27 18.5V10.13H133.5V18.5H136.27Z" fill="#F0F3F8"/>
</g>
<g id="portfolio" clip-path="url(#clip0_302_656)">
<path id="Vector_4" d="M201 14H193V20C193 20.5304 193.211 21.0391 193.586 21.4142C193.961 21.7893 194.47 22 195 22H209C209.53 22 210.039 21.7893 210.414 21.4142C210.789 21.0391 211 20.5304 211 20V14H203V16H201V14ZM201 13H192V7C192 5.9 192.9 5 194 5H198V4C198 3.46957 198.211 2.96086 198.586 2.58579C198.961 2.21071 199.47 2 200 2H204C204.53 2 205.039 2.21071 205.414 2.58579C205.789 2.96086 206 3.46957 206 4V5H210C210.53 5 211.039 5.21071 211.414 5.58579C211.789 5.96086 212 6.46957 212 7V13H203V11H201V13ZM204 5V4H200V5H204Z" fill="#F0F3F8"/>
</g>
</g>
<defs>
<clipPath id="clip0_302_656">
<rect width="20" height="20" fill="white" transform="translate(192 2)"/>
</clipPath>
</defs>
</svg>
