<svg width="60" height="60" viewBox="0 0 60 60" fill="none" xmlns="http://www.w3.org/2000/svg">
<path d="M30 3.125C30.4973 3.125 30.9742 3.32254 31.3258 3.67417C31.6775 4.02581 31.875 4.50272 31.875 5V7.5C31.875 7.99728 31.6775 8.47419 31.3258 8.82583C30.9742 9.17746 30.4973 9.375 30 9.375C29.5027 9.375 29.0258 9.17746 28.6742 8.82583C28.3225 8.47419 28.125 7.99728 28.125 7.5V5C28.125 4.50272 28.3225 4.02581 28.6742 3.67417C29.0258 3.32254 29.5027 3.125 30 3.125Z" fill="white"/>
<path fill-rule="evenodd" clip-rule="evenodd" d="M15.625 30C15.625 26.1875 17.1395 22.5312 19.8353 19.8353C22.5312 17.1395 26.1875 15.625 30 15.625C33.8125 15.625 37.4688 17.1395 40.1647 19.8353C42.8605 22.5312 44.375 26.1875 44.375 30C44.375 33.8125 42.8605 37.4688 40.1647 40.1647C37.4688 42.8605 33.8125 44.375 30 44.375C26.1875 44.375 22.5312 42.8605 19.8353 40.1647C17.1395 37.4688 15.625 33.8125 15.625 30ZM30 19.375C28.6047 19.375 27.2231 19.6498 25.934 20.1838C24.6449 20.7177 23.4736 21.5004 22.487 22.487C21.5004 23.4736 20.7177 24.6449 20.1838 25.934C19.6498 27.2231 19.375 28.6047 19.375 30C19.375 31.3953 19.6498 32.7769 20.1838 34.066C20.7177 35.3551 21.5004 36.5264 22.487 37.513C23.4736 38.4996 24.6449 39.2823 25.934 39.8162C27.2231 40.3502 28.6047 40.625 30 40.625C32.8179 40.625 35.5204 39.5056 37.513 37.513C39.5056 35.5204 40.625 32.8179 40.625 30C40.625 27.1821 39.5056 24.4796 37.513 22.487C35.5204 20.4944 32.8179 19.375 30 19.375Z" fill="white"/>
<path d="M13.65 10.9976C13.2965 10.6558 12.823 10.4666 12.3314 10.4707C11.8397 10.4747 11.3694 10.6717 11.0216 11.0191C10.6738 11.3666 10.4764 11.8368 10.4718 12.3284C10.4673 12.82 10.6561 13.2938 10.9975 13.6476L12.765 15.4151C12.9367 15.5993 13.1437 15.747 13.3737 15.8495C13.6037 15.952 13.8519 16.0071 14.1037 16.0115C14.3555 16.016 14.6055 15.9697 14.839 15.8754C15.0725 15.7811 15.2845 15.6407 15.4626 15.4626C15.6406 15.2846 15.781 15.0725 15.8753 14.839C15.9696 14.6056 16.0159 14.3555 16.0115 14.1037C16.007 13.852 15.9519 13.6037 15.8495 13.3737C15.747 13.1437 15.5992 12.9367 15.415 12.7651L13.65 10.9976ZM56.875 30.0001C56.875 30.4973 56.6775 30.9742 56.3258 31.3259C55.9742 31.6775 55.4973 31.8751 55 31.8751H52.5C52.0027 31.8751 51.5258 31.6775 51.1742 31.3259C50.8225 30.9742 50.625 30.4973 50.625 30.0001C50.625 29.5028 50.8225 29.0259 51.1742 28.6742C51.5258 28.3226 52.0027 28.1251 52.5 28.1251H55C55.4973 28.1251 55.9742 28.3226 56.3258 28.6742C56.6775 29.0259 56.875 29.5028 56.875 30.0001ZM49.0025 13.6501C49.1817 13.4772 49.3246 13.2703 49.423 13.0416C49.5213 12.8129 49.5732 12.5669 49.5755 12.318C49.5777 12.069 49.5304 11.8221 49.4362 11.5916C49.3421 11.3611 49.203 11.1517 49.027 10.9756C48.851 10.7995 48.6417 10.6601 48.4114 10.5657C48.181 10.4714 47.9341 10.4238 47.6851 10.4258C47.4362 10.4279 47.1901 10.4795 46.9613 10.5777C46.7325 10.6758 46.5255 10.8186 46.3525 10.9976L44.585 12.7651C44.4008 12.9367 44.253 13.1437 44.1505 13.3737C44.0481 13.6037 43.993 13.852 43.9885 14.1037C43.9841 14.3555 44.0304 14.6056 44.1247 14.839C44.219 15.0725 44.3594 15.2846 44.5374 15.4626C44.7155 15.6407 44.9275 15.7811 45.161 15.8754C45.3945 15.9697 45.6446 16.016 45.8963 16.0115C46.1481 16.0071 46.3963 15.952 46.6263 15.8495C46.8563 15.747 47.0633 15.5993 47.235 15.4151L49.0025 13.6501ZM30 50.6251C30.4973 50.6251 30.9742 50.8226 31.3258 51.1742C31.6775 51.5259 31.875 52.0028 31.875 52.5001V55.0001C31.875 55.4973 31.6775 55.9742 31.3258 56.3259C30.9742 56.6775 30.4973 56.8751 30 56.8751C29.5027 56.8751 29.0258 56.6775 28.6742 56.3259C28.3225 55.9742 28.125 55.4973 28.125 55.0001V52.5001C28.125 52.0028 28.3225 51.5259 28.6742 51.1742C29.0258 50.8226 29.5027 50.6251 30 50.6251ZM47.235 44.5851C47.0633 44.4008 46.8563 44.2531 46.6263 44.1506C46.3963 44.0481 46.1481 43.993 45.8963 43.9886C45.6446 43.9841 45.3945 44.0304 45.161 44.1247C44.9275 44.2191 44.7155 44.3594 44.5374 44.5375C44.3594 44.7155 44.219 44.9276 44.1247 45.1611C44.0304 45.3945 43.9841 45.6446 43.9885 45.8964C43.993 46.1481 44.0481 46.3964 44.1505 46.6264C44.253 46.8564 44.4008 47.0634 44.585 47.2351L46.3525 49.0026C46.5242 49.1868 46.7312 49.3345 46.9612 49.437C47.1912 49.5395 47.4394 49.5946 47.6912 49.599C47.943 49.6035 48.193 49.5572 48.4265 49.4629C48.66 49.3686 48.8721 49.2282 49.0501 49.0502C49.2281 48.8721 49.3685 48.66 49.4628 48.4265C49.5571 48.1931 49.6034 47.943 49.599 47.6912C49.5945 47.4395 49.5394 47.1912 49.437 46.9612C49.3345 46.7312 49.1867 46.5242 49.0025 46.3526L47.235 44.5851ZM9.375 30.0001C9.375 30.4973 9.17746 30.9742 8.82583 31.3259C8.47419 31.6775 7.99728 31.8751 7.5 31.8751H5C4.50272 31.8751 4.02581 31.6775 3.67417 31.3259C3.32254 30.9742 3.125 30.4973 3.125 30.0001C3.125 29.5028 3.32254 29.0259 3.67417 28.6742C4.02581 28.3226 4.50272 28.1251 5 28.1251H7.5C7.99728 28.1251 8.47419 28.3226 8.82583 28.6742C9.17746 29.0259 9.375 29.5028 9.375 30.0001ZM15.415 47.2351C15.7462 46.8796 15.9265 46.4095 15.9179 45.9237C15.9094 45.438 15.7126 44.9745 15.3691 44.631C15.0255 44.2875 14.5621 44.0907 14.0763 44.0821C13.5906 44.0735 13.1204 44.2539 12.765 44.5851L10.9975 46.3526C10.6663 46.708 10.486 47.1781 10.4946 47.6639C10.5031 48.1496 10.6999 48.6131 11.0434 48.9566C11.387 49.3001 11.8504 49.4969 12.3362 49.5055C12.8219 49.5141 13.2921 49.3338 13.6475 49.0026L15.415 47.2351Z" fill="white"/>
</svg>
