<svg width="325" height="314" viewBox="0 0 325 314" fill="none" xmlns="http://www.w3.org/2000/svg">
<g clip-path="url(#clip0_8_425)">
<path d="M201.928 182.466H82.8843C78.8473 182.461 74.977 180.74 72.1225 177.681C69.268 174.622 67.6623 170.474 67.6577 166.148V16.3181C67.6623 11.9918 69.268 7.84404 72.1225 4.78486C74.977 1.72568 78.8473 0.00488702 82.8843 0H193.635L217.155 20.0905V166.148C217.15 170.474 215.544 174.622 212.69 177.681C209.835 180.74 205.965 182.461 201.928 182.466Z" fill="#E6E6E6"/>
<path d="M82.8842 4.69764C80.0094 4.70111 77.2533 5.92652 75.2205 8.10503C73.1878 10.2835 72.0443 13.2372 72.0411 16.3181V166.148C72.0443 169.229 73.1878 172.183 75.2205 174.361C77.2533 176.54 80.0094 177.765 82.8842 177.769H201.928C204.803 177.765 207.559 176.54 209.592 174.361C211.625 172.183 212.768 169.229 212.771 166.148V22.3536L192.102 4.69764H82.8842Z" fill="white"/>
<path d="M178.774 48.2642H124.575C124.242 48.2642 123.912 48.1939 123.605 48.0573C123.297 47.9208 123.018 47.7206 122.782 47.4683C122.547 47.2159 122.36 46.9164 122.232 46.5867C122.105 46.257 122.039 45.9036 122.039 45.5468C122.039 45.1899 122.105 44.8366 122.232 44.5069C122.36 44.1772 122.547 43.8776 122.782 43.6253C123.018 43.3729 123.297 43.1728 123.605 43.0362C123.912 42.8996 124.242 42.8294 124.575 42.8294H178.774C179.107 42.8294 179.437 42.8996 179.744 43.0362C180.052 43.1728 180.332 43.3729 180.567 43.6253C180.802 43.8776 180.989 44.1772 181.117 44.5069C181.244 44.8366 181.31 45.1899 181.31 45.5468C181.31 45.9036 181.244 46.257 181.117 46.5867C180.989 46.9164 180.802 47.2159 180.567 47.4683C180.332 47.7206 180.052 47.9208 179.744 48.0573C179.437 48.1939 179.107 48.2642 178.774 48.2642Z" fill="#CCCCCC"/>
<path d="M189.234 57.4354H124.575C123.903 57.4354 123.258 57.1491 122.782 56.6395C122.307 56.1299 122.039 55.4387 122.039 54.718C122.039 53.9973 122.307 53.3061 122.782 52.7965C123.258 52.2869 123.903 52.0006 124.575 52.0006H189.234C189.906 52.0006 190.551 52.2869 191.026 52.7965C191.502 53.3061 191.769 53.9973 191.769 54.718C191.769 55.4387 191.502 56.1299 191.026 56.6395C190.551 57.1491 189.906 57.4354 189.234 57.4354Z" fill="#CCCCCC"/>
<path d="M178.774 89.3649H124.575C123.903 89.3649 123.258 89.0786 122.782 88.5689C122.307 88.0593 122.039 87.3681 122.039 86.6474C122.039 85.9267 122.307 85.2356 122.782 84.726C123.258 84.2163 123.903 83.9301 124.575 83.9301H178.774C179.447 83.9301 180.092 84.2163 180.567 84.726C181.043 85.2356 181.31 85.9267 181.31 86.6474C181.31 87.3681 181.043 88.0593 180.567 88.5689C180.092 89.0786 179.447 89.3649 178.774 89.3649Z" fill="#CCCCCC"/>
<path d="M189.234 98.5361H124.575C123.903 98.5361 123.258 98.2498 122.782 97.7402C122.307 97.2306 122.039 96.5394 122.039 95.8187C122.039 95.098 122.307 94.4068 122.782 93.8972C123.258 93.3876 123.903 93.1013 124.575 93.1013H189.234C189.906 93.1013 190.551 93.3876 191.026 93.8972C191.502 94.4068 191.769 95.098 191.769 95.8187C191.769 96.5394 191.502 97.2306 191.026 97.7402C190.551 98.2498 189.906 98.5361 189.234 98.5361Z" fill="#CCCCCC"/>
<path d="M178.774 130.466H124.575C123.903 130.466 123.258 130.179 122.782 129.67C122.307 129.16 122.039 128.469 122.039 127.748C122.039 127.027 122.307 126.336 122.782 125.827C123.258 125.317 123.903 125.031 124.575 125.031H178.774C179.447 125.031 180.092 125.317 180.567 125.827C181.043 126.336 181.31 127.027 181.31 127.748C181.31 128.469 181.043 129.16 180.567 129.67C180.092 130.179 179.447 130.466 178.774 130.466Z" fill="#CCCCCC"/>
<path d="M189.234 139.637H124.575C123.903 139.637 123.258 139.35 122.782 138.841C122.307 138.331 122.039 137.64 122.039 136.919C122.039 136.199 122.307 135.508 122.782 134.998C123.258 134.488 123.903 134.202 124.575 134.202H189.234C189.906 134.202 190.551 134.488 191.026 134.998C191.502 135.508 191.769 136.199 191.769 136.919C191.769 137.64 191.502 138.331 191.026 138.841C190.551 139.35 189.906 139.637 189.234 139.637Z" fill="#CCCCCC"/>
<path d="M102.005 59.7369C106.955 59.7369 110.967 55.4368 110.967 50.1324C110.967 44.8279 106.955 40.5278 102.005 40.5278C97.0556 40.5278 93.0432 44.8279 93.0432 50.1324C93.0432 55.4368 97.0556 59.7369 102.005 59.7369Z" fill="#051839"/>
<path d="M101.117 53.7962C100.916 53.7966 100.719 53.7267 100.558 53.5971L100.548 53.589L98.4418 51.8623C98.245 51.7004 98.1163 51.4613 98.0839 51.1977C98.0515 50.9341 98.1181 50.6675 98.2691 50.4565C98.42 50.2455 98.643 50.1074 98.8889 50.0724C99.1348 50.0375 99.3837 50.1086 99.5807 50.2702L100.945 51.3914L104.169 46.8841C104.243 46.7796 104.337 46.6919 104.443 46.6261C104.549 46.5602 104.667 46.5174 104.789 46.5002C104.91 46.4829 105.034 46.4915 105.153 46.5256C105.272 46.5596 105.383 46.6183 105.48 46.6985L105.461 46.7284L105.481 46.6987C105.678 46.8607 105.807 47.0997 105.839 47.3633C105.872 47.6269 105.805 47.8936 105.654 48.1047L101.862 53.4039C101.775 53.5259 101.662 53.6247 101.533 53.6926C101.404 53.7604 101.262 53.7955 101.118 53.795L101.117 53.7962Z" fill="white"/>
<path d="M102.928 100.838C107.878 100.838 111.89 96.5375 111.89 91.2331C111.89 85.9286 107.878 81.6285 102.928 81.6285C97.9784 81.6285 93.966 85.9286 93.966 91.2331C93.966 96.5375 97.9784 100.838 102.928 100.838Z" fill="#CCCCCC"/>
<path d="M102.005 141.938C106.955 141.938 110.967 137.638 110.967 132.334C110.967 127.029 106.955 122.729 102.005 122.729C97.0556 122.729 93.0432 127.029 93.0432 132.334C93.0432 137.638 97.0556 141.938 102.005 141.938Z" fill="#CCCCCC"/>
<path d="M216.697 20.7371H198.273C196.928 20.7371 195.638 20.1645 194.687 19.1453C193.736 18.126 193.202 16.7437 193.202 15.3023V0.719328C193.202 0.655482 193.219 0.592924 193.25 0.538837C193.282 0.48475 193.327 0.441319 193.381 0.413525C193.435 0.38573 193.494 0.374696 193.554 0.381691C193.613 0.388686 193.669 0.413424 193.716 0.453069L216.894 20.1311C216.945 20.1749 216.983 20.2348 217.001 20.3026C217.02 20.3703 217.018 20.4425 216.996 20.5091C216.974 20.5757 216.934 20.6334 216.88 20.6743C216.827 20.7151 216.763 20.7371 216.697 20.7371Z" fill="#E6E6E6"/>
<path d="M91.9814 210.539L21.549 226.45C19.5136 226.907 17.392 226.48 15.6498 225.263C13.9076 224.046 12.687 222.138 12.2558 219.958L0.169741 158.508C-0.256896 156.327 0.141267 154.053 1.27688 152.186C2.41249 150.319 4.1928 149.011 6.22724 148.549L76.6596 132.638C78.695 132.181 80.8165 132.608 82.5587 133.825C84.3009 135.042 85.5215 136.95 85.9528 139.13L98.0389 200.58C98.4655 202.761 98.0673 205.035 96.9317 206.902C95.7961 208.769 94.0158 210.077 91.9814 210.539Z" fill="white"/>
<path d="M91.9814 210.539L21.549 226.45C19.5136 226.907 17.392 226.48 15.6498 225.263C13.9076 224.046 12.687 222.138 12.2558 219.958L0.169741 158.508C-0.256896 156.327 0.141267 154.053 1.27688 152.186C2.41249 150.319 4.1928 149.011 6.22724 148.549L76.6596 132.638C78.695 132.181 80.8165 132.608 82.5587 133.825C84.3009 135.042 85.5215 136.95 85.9528 139.13L98.0389 200.58C98.4655 202.761 98.0673 205.035 96.9317 206.902C95.7961 208.769 94.0158 210.077 91.9814 210.539ZM6.41757 149.516C4.62248 149.924 3.05163 151.078 2.04962 152.726C1.04761 154.373 0.696283 156.379 1.07271 158.304L13.1588 219.754C13.5393 221.678 14.6163 223.361 16.1535 224.435C17.6908 225.509 19.5627 225.885 21.3586 225.482L91.791 209.572C93.5861 209.164 95.157 208.01 96.159 206.362C97.161 204.715 97.5123 202.709 97.1359 200.784L85.0498 139.334C84.6693 137.41 83.5923 135.727 82.0551 134.653C80.5178 133.579 78.6459 133.203 76.85 133.606L6.41757 149.516Z" fill="#3F3D56"/>
<path d="M72.2833 152.9L36.737 160.93C36.4259 161.007 36.099 160.955 35.8224 160.784C35.5458 160.613 35.3401 160.336 35.2469 160.009C35.2043 159.838 35.1946 159.66 35.2184 159.485C35.2421 159.31 35.2989 159.142 35.3852 158.992C35.4715 158.841 35.5855 158.711 35.7203 158.609C35.8551 158.507 36.0078 158.436 36.1691 158.399L72.3531 150.226C73.7659 151.079 73.3198 152.666 72.2833 152.9Z" fill="#CCCCCC"/>
<path d="M73.5975 159.582L38.0512 167.612C37.7402 167.689 37.4133 167.637 37.1367 167.466C36.8601 167.295 36.6544 167.018 36.5612 166.691C36.5186 166.52 36.5088 166.342 36.5326 166.167C36.5564 165.992 36.6131 165.824 36.6994 165.674C36.7857 165.523 36.8997 165.393 37.0345 165.291C37.1693 165.189 37.322 165.118 37.4834 165.082L73.6673 156.908C75.0801 157.761 74.634 159.348 73.5975 159.582Z" fill="#CCCCCC"/>
<path d="M31.1152 173.152L20.2669 175.603C19.9126 175.682 19.5433 175.608 19.24 175.396C18.9368 175.185 18.7243 174.852 18.6493 174.473L15.9509 160.753C15.8766 160.373 15.9458 159.978 16.1435 159.653C16.3412 159.328 16.6511 159.1 17.0052 159.02L27.8536 156.569C28.2079 156.49 28.5771 156.564 28.8803 156.776C29.1836 156.987 29.396 157.32 29.4712 157.699L32.1696 171.419C32.2439 171.798 32.1746 172.194 31.9769 172.519C31.7793 172.844 31.4694 173.072 31.1152 173.152Z" fill="#CCCCCC"/>
<path d="M76.185 173.287L21.9349 185.542C21.6238 185.619 21.2969 185.567 21.0203 185.396C20.7437 185.225 20.538 184.948 20.4448 184.621C20.4022 184.45 20.3925 184.272 20.4162 184.097C20.44 183.922 20.4968 183.754 20.5831 183.604C20.6694 183.453 20.7834 183.323 20.9181 183.221C21.0529 183.119 21.2057 183.048 21.367 183.011L76.2553 170.613C77.6681 171.466 77.2215 173.053 76.185 173.287Z" fill="#CCCCCC"/>
<path d="M77.4997 179.971L23.2495 192.226C22.9384 192.303 22.6116 192.251 22.335 192.08C22.0584 191.909 21.8527 191.632 21.7595 191.305C21.7168 191.134 21.7071 190.956 21.7309 190.781C21.7546 190.606 21.8114 190.438 21.8977 190.288C21.984 190.137 22.098 190.007 22.2328 189.905C22.3676 189.803 22.5203 189.732 22.6816 189.695L77.5699 177.297C78.9827 178.15 78.5362 179.737 77.4997 179.971Z" fill="#CCCCCC"/>
<path d="M78.8135 186.651L24.5633 198.906C24.2522 198.983 23.9253 198.931 23.6487 198.76C23.3721 198.589 23.1665 198.312 23.0732 197.984C23.0306 197.814 23.0209 197.635 23.0447 197.46C23.0684 197.286 23.1252 197.118 23.2115 196.967C23.2978 196.817 23.4118 196.686 23.5466 196.585C23.6813 196.483 23.8341 196.412 23.9954 196.375L78.8837 183.976C80.2965 184.83 79.85 186.417 78.8135 186.651Z" fill="#CCCCCC"/>
<path d="M80.128 193.334L25.8778 205.589C25.5667 205.666 25.2399 205.614 24.9633 205.443C24.6867 205.272 24.481 204.995 24.3878 204.668C24.3451 204.497 24.3354 204.319 24.3592 204.144C24.3829 203.969 24.4397 203.801 24.526 203.651C24.6123 203.5 24.7263 203.37 24.8611 203.268C24.9959 203.166 25.1486 203.095 25.3099 203.059L80.1982 190.66C81.611 191.513 81.1645 193.1 80.128 193.334Z" fill="#CCCCCC"/>
<path d="M81.4418 200.014L27.1917 212.269C26.8806 212.346 26.5537 212.294 26.2771 212.123C26.0005 211.952 25.7948 211.675 25.7016 211.348C25.659 211.177 25.6493 210.999 25.673 210.824C25.6968 210.649 25.7536 210.481 25.8399 210.331C25.9262 210.18 26.0402 210.05 26.175 209.948C26.3097 209.846 26.4624 209.775 26.6238 209.739L81.5121 197.34C82.9249 198.193 82.4783 199.78 81.4418 200.014Z" fill="#CCCCCC"/>
<path d="M91.0182 169.422C90.895 169.662 90.7895 169.911 90.7029 170.169L68.4937 176.075L64.6301 171.791L57.8358 177.195L63.9879 185.491C64.4849 186.161 65.1714 186.64 65.9442 186.857C66.717 187.073 67.5345 187.015 68.274 186.691L92.3731 176.138C93.1652 176.763 94.1161 177.114 95.0992 177.146C96.0823 177.178 97.0511 176.888 97.8768 176.315C98.7024 175.742 99.3457 174.913 99.7211 173.939C100.097 172.965 100.186 171.891 99.9785 170.861C99.7706 169.831 99.275 168.893 98.5576 168.171C97.8401 167.45 96.9349 166.981 95.9622 166.824C94.9894 166.668 93.9954 166.833 93.1123 167.297C92.2291 167.761 91.4987 168.502 91.0182 169.422Z" fill="#A0616A"/>
<path d="M15.21 221.982C15.9024 221.753 16.5395 221.364 17.0764 220.842C17.6133 220.321 18.0369 219.68 18.3175 218.964C18.5981 218.247 18.7288 217.474 18.7004 216.698C18.6719 215.922 18.4851 215.162 18.153 214.472L33.4369 168.946L22.8227 166.93L11.1368 212.315C10.0917 212.989 9.314 214.052 8.95088 215.3C8.58777 216.548 8.66452 217.896 9.16661 219.087C9.66869 220.279 10.5612 221.232 11.675 221.765C12.7889 222.299 14.0467 222.376 15.21 221.982Z" fill="#A0616A"/>
<path d="M31.4958 177.027L21.016 172.717C20.7178 172.594 20.4478 172.404 20.2244 172.16C20.0009 171.915 19.8293 171.622 19.7211 171.3C19.613 170.978 19.5709 170.634 19.5977 170.293C19.6245 169.952 19.7196 169.621 19.8764 169.323L25.3741 158.877C25.9684 157.246 27.142 155.934 28.6375 155.228C30.1331 154.523 31.8286 154.482 33.3524 155.114C34.8762 155.746 36.1038 157 36.7663 158.601C37.4287 160.202 37.4719 162.019 36.8863 163.653L34.4614 175.322C34.3918 175.656 34.2559 175.97 34.0629 176.243C33.8699 176.516 33.6244 176.741 33.3429 176.902C33.0615 177.064 32.7508 177.159 32.4321 177.181C32.1133 177.202 31.794 177.15 31.4958 177.027Z" fill="#051839"/>
<path d="M55.1501 307.456L60.807 307.455L63.4979 284.072L55.1491 284.073L55.1501 307.456Z" fill="#A0616A"/>
<path d="M53.707 305.477L64.8472 305.476H64.8477C65.78 305.476 66.7032 305.673 67.5645 306.055C68.4259 306.438 69.2085 306.998 69.8678 307.705C70.527 308.411 71.05 309.25 71.4068 310.173C71.7635 311.096 71.9472 312.085 71.9472 313.085V313.332L53.7074 313.333L53.707 305.477Z" fill="#2F2E41"/>
<path d="M23.3128 307.456L28.9696 307.455L31.6606 284.072L23.3118 284.073L23.3128 307.456Z" fill="#A0616A"/>
<path d="M21.8697 305.477L33.0099 305.476H33.0104C33.9427 305.476 34.8659 305.673 35.7272 306.055C36.5886 306.438 37.3712 306.998 38.0305 307.705C38.6897 308.411 39.2127 309.25 39.5695 310.173C39.9262 311.096 40.1099 312.085 40.1099 313.085V313.332L21.8701 313.333L21.8697 305.477Z" fill="#2F2E41"/>
<path d="M29.2429 298.044H22.0843C21.8033 298.044 21.5253 297.983 21.267 297.865C21.0088 297.746 20.7756 297.573 20.5817 297.355C20.3878 297.137 20.2372 296.879 20.139 296.597C20.0408 296.315 19.997 296.014 20.0103 295.713L23.4106 217.42L23.6249 217.414L58.1934 216.448L64.9579 294.786C64.9839 295.08 64.9551 295.376 64.8733 295.658C64.7915 295.94 64.6583 296.201 64.4814 296.427C64.3044 296.653 64.0873 296.839 63.8427 296.974C63.5981 297.109 63.3308 297.191 63.0565 297.215L55.0158 297.904C54.5107 297.947 54.0083 297.791 53.6032 297.464C53.1981 297.138 52.9182 296.665 52.8162 296.133L42.5312 240.366C42.5032 240.197 42.4193 240.044 42.295 239.935C42.1706 239.826 42.0139 239.769 41.8534 239.773H41.8506C41.6895 239.769 41.5326 239.828 41.4084 239.937C41.2841 240.047 41.201 240.202 41.174 240.372L31.2802 296.249C31.1865 296.754 30.9323 297.209 30.5609 297.537C30.1895 297.864 29.7238 298.043 29.2429 298.044Z" fill="#2F2E41"/>
<path d="M42.3561 147.592C48.615 147.592 53.6888 142.155 53.6888 135.447C53.6888 128.74 48.615 123.302 42.3561 123.302C36.0972 123.302 31.0234 128.74 31.0234 135.447C31.0234 142.155 36.0972 147.592 42.3561 147.592Z" fill="#A0616A"/>
<path d="M38.5561 226.595C33.1547 226.595 27.6067 225.074 23.0075 220.575C22.7627 220.337 22.5738 220.041 22.456 219.71C22.3382 219.379 22.2948 219.023 22.3295 218.671C22.8217 213.931 25.2097 189.456 23.8649 173.107C23.6024 170.054 24.0058 166.976 25.0433 164.118C26.0807 161.26 27.7237 158.7 29.8427 156.639C31.9246 154.582 34.4239 153.073 37.1434 152.229C39.8629 151.385 42.7282 151.23 45.5132 151.776C45.6543 151.803 45.7955 151.831 45.9368 151.86C55.0097 153.742 61.3137 162.741 60.6004 172.792C59.5595 187.459 58.6264 207.298 60.0915 218.517C60.1523 218.976 60.0775 219.444 59.8777 219.855C59.6779 220.266 59.363 220.6 58.9773 220.81C55.6437 222.615 47.2916 226.595 38.5561 226.595Z" fill="#051839"/>
<path d="M53.3439 177.901C53.078 177.712 52.8534 177.463 52.6854 177.172C52.5175 176.881 52.4101 176.554 52.3706 176.214L50.9899 164.352C50.5516 162.665 50.7554 160.86 51.5566 159.334C52.3579 157.808 53.6911 156.684 55.264 156.21C56.837 155.735 58.5213 155.949 59.9476 156.803C61.374 157.658 62.4261 159.083 62.8732 160.768L67.4209 171.726C67.5507 172.039 67.6161 172.378 67.6125 172.72C67.609 173.062 67.5367 173.4 67.4005 173.709C67.2643 174.019 67.0675 174.293 66.8234 174.514C66.5793 174.735 66.2937 174.897 65.986 174.988L55.1718 178.214C54.8641 178.305 54.5415 178.325 54.226 178.271C53.9106 178.217 53.6097 178.091 53.3439 177.901Z" fill="#051839"/>
<path d="M38.3999 147.421C37.3272 147.442 36.2613 147.236 35.2636 146.813C34.8246 146.632 34.3689 146.483 33.9307 146.301C30.0611 144.699 27.512 140.282 27.4207 135.837C27.3294 131.393 29.4772 127.079 32.6665 124.236C35.8558 121.393 39.9868 119.933 44.1233 119.595C48.5789 119.232 53.5962 120.443 56.0859 124.419C56.7487 125.478 57.2121 126.762 56.8195 128.04C56.7018 128.426 56.4918 128.772 56.2103 129.043C55.0984 130.103 53.9898 129.306 52.8564 129.236C51.2984 129.139 49.8991 130.49 49.3961 132.074C48.8932 133.657 49.1146 135.4 49.5207 137.015C49.83 137.986 50.0251 138.996 50.1012 140.019C50.134 140.532 50.0439 141.046 49.8396 141.511C49.6352 141.977 49.3233 142.379 48.9334 142.679C47.9599 143.309 46.6814 142.944 45.7073 142.315C44.7332 141.685 43.8915 140.81 42.8393 140.346C41.787 139.883 40.3734 139.986 39.761 141.013C39.5663 141.387 39.4346 141.795 39.3718 142.217C38.8228 144.898 38.9489 144.74 38.3999 147.421Z" fill="#2F2E41"/>
<path d="M88.4375 314H0.769546C0.647173 314 0.529811 313.948 0.44328 313.855C0.356748 313.762 0.308136 313.637 0.308136 313.506C0.308136 313.374 0.356748 313.249 0.44328 313.156C0.529811 313.063 0.647173 313.011 0.769546 313.011H88.4375C88.5599 313.011 88.6772 313.063 88.7638 313.156C88.8503 313.249 88.8989 313.374 88.8989 313.506C88.8989 313.637 88.8503 313.762 88.7638 313.855C88.6772 313.948 88.5599 314 88.4375 314Z" fill="#CCCCCC"/>
<path d="M312.842 211.952L250.063 249.69C248.249 250.778 246.105 251.051 244.103 250.447C242.101 249.844 240.404 248.414 239.385 246.471L210.717 191.699C209.702 189.754 209.448 187.457 210.011 185.311C210.574 183.166 211.909 181.348 213.721 180.255L276.5 142.517C278.314 141.429 280.458 141.157 282.46 141.76C284.462 142.364 286.159 143.794 287.178 145.736L315.846 200.508C316.861 202.453 317.115 204.75 316.552 206.896C315.989 209.041 314.654 210.86 312.842 211.952Z" fill="white"/>
<path d="M312.842 211.952L250.063 249.69C248.249 250.778 246.105 251.051 244.103 250.447C242.101 249.844 240.404 248.414 239.385 246.471L210.717 191.699C209.702 189.754 209.448 187.457 210.011 185.311C210.574 183.166 211.909 181.348 213.721 180.255L276.5 142.517C278.314 141.429 280.458 141.157 282.46 141.76C284.462 142.364 286.159 143.794 287.178 145.736L315.846 200.508C316.861 202.453 317.115 204.75 316.552 206.896C315.989 209.041 314.654 210.86 312.842 211.952ZM214.173 181.118C212.573 182.082 211.396 183.686 210.899 185.579C210.402 187.472 210.626 189.499 211.522 191.215L240.19 245.987C241.089 247.701 242.586 248.963 244.353 249.495C246.119 250.028 248.011 249.788 249.612 248.828L312.39 211.09C313.99 210.126 315.167 208.521 315.664 206.628C316.161 204.735 315.937 202.708 315.041 200.992L286.373 146.22C285.474 144.506 283.977 143.244 282.21 142.712C280.444 142.179 278.552 142.419 276.951 143.38L214.173 181.118Z" fill="#3F3D56"/>
<path d="M277.973 163.254L246.289 182.3C246.014 182.474 245.688 182.529 245.376 182.454C245.064 182.379 244.791 182.181 244.611 181.898C244.522 181.749 244.463 181.582 244.437 181.408C244.411 181.233 244.418 181.055 244.459 180.883C244.499 180.712 244.572 180.551 244.672 180.411C244.772 180.271 244.898 180.154 245.042 180.067L277.294 160.68C278.88 161.042 278.897 162.699 277.973 163.254Z" fill="#CCCCCC"/>
<path d="M281.09 169.21L249.407 188.256C249.131 188.43 248.805 188.485 248.493 188.41C248.182 188.335 247.908 188.137 247.728 187.854C247.64 187.705 247.581 187.538 247.555 187.363C247.528 187.189 247.536 187.011 247.576 186.839C247.617 186.668 247.689 186.507 247.789 186.367C247.89 186.227 248.015 186.11 248.159 186.023L280.411 166.636C281.997 166.998 282.014 168.655 281.09 169.21Z" fill="#CCCCCC"/>
<path d="M244.332 195.765L234.663 201.577C234.347 201.767 233.974 201.814 233.625 201.709C233.277 201.604 232.982 201.355 232.804 201.017L226.404 188.788C226.227 188.449 226.183 188.05 226.281 187.676C226.379 187.303 226.611 186.986 226.926 186.796L236.596 180.983C236.912 180.794 237.285 180.747 237.633 180.852C237.982 180.957 238.277 181.206 238.455 181.544L244.855 193.773C245.032 194.111 245.076 194.511 244.978 194.884C244.88 195.258 244.648 195.574 244.332 195.765Z" fill="#CCCCCC"/>
<path d="M287.381 181.46L239.026 210.528C238.751 210.701 238.424 210.756 238.113 210.682C237.801 210.607 237.527 210.408 237.347 210.126C237.259 209.977 237.2 209.81 237.174 209.635C237.148 209.461 237.155 209.282 237.195 209.111C237.236 208.94 237.308 208.779 237.409 208.639C237.509 208.498 237.635 208.381 237.778 208.295L286.702 178.886C288.288 179.247 288.304 180.905 287.381 181.46Z" fill="#CCCCCC"/>
<path d="M290.499 187.418L242.144 216.486C241.869 216.659 241.542 216.714 241.231 216.639C240.919 216.565 240.646 216.366 240.465 216.083C240.377 215.934 240.318 215.767 240.292 215.593C240.266 215.418 240.273 215.24 240.314 215.069C240.354 214.897 240.427 214.737 240.527 214.596C240.627 214.456 240.753 214.339 240.897 214.253L289.82 184.843C291.406 185.205 291.423 186.863 290.499 187.418Z" fill="#CCCCCC"/>
<path d="M293.615 193.372L245.26 222.439C244.985 222.613 244.659 222.668 244.347 222.593C244.035 222.518 243.762 222.32 243.582 222.037C243.493 221.888 243.434 221.721 243.408 221.547C243.382 221.372 243.389 221.194 243.43 221.022C243.47 220.851 243.543 220.69 243.643 220.55C243.743 220.41 243.869 220.293 244.013 220.206L292.936 190.797C294.522 191.159 294.539 192.816 293.615 193.372Z" fill="#CCCCCC"/>
<path d="M296.733 199.329L248.378 228.396C248.103 228.57 247.777 228.625 247.465 228.55C247.153 228.476 246.88 228.277 246.699 227.994C246.611 227.845 246.552 227.678 246.526 227.504C246.5 227.329 246.507 227.151 246.548 226.98C246.588 226.808 246.661 226.648 246.761 226.507C246.861 226.367 246.987 226.25 247.131 226.164L296.054 196.754C297.64 197.116 297.657 198.774 296.733 199.329Z" fill="#CCCCCC"/>
<path d="M299.849 205.283L251.495 234.351C251.219 234.524 250.893 234.579 250.581 234.504C250.27 234.43 249.996 234.231 249.816 233.949C249.728 233.799 249.669 233.632 249.643 233.458C249.616 233.283 249.624 233.105 249.664 232.934C249.705 232.762 249.777 232.602 249.877 232.461C249.978 232.321 250.103 232.204 250.247 232.118L299.171 202.708C300.757 203.07 300.773 204.728 299.849 205.283Z" fill="#CCCCCC"/>
<path d="M291.413 227.596C291.677 226.974 291.81 226.297 291.802 225.613C291.795 224.93 291.648 224.257 291.372 223.641C291.096 223.025 290.697 222.481 290.203 222.048C289.71 221.615 289.134 221.304 288.516 221.135L287.201 204.583L280.876 209.929L283.095 224.828C282.9 225.96 283.098 227.129 283.654 228.114C284.209 229.098 285.082 229.831 286.107 230.172C287.133 230.513 288.239 230.439 289.217 229.965C290.195 229.49 290.977 228.647 291.413 227.596Z" fill="#FFB8B8"/>
<path d="M287.32 219.402L282.068 220.073C281.801 220.107 281.531 220.082 281.273 219.999C281.016 219.915 280.777 219.776 280.573 219.59C280.368 219.403 280.201 219.173 280.083 218.915C279.965 218.656 279.898 218.374 279.887 218.086L279.121 199.097L269.165 169.949C268.766 169.044 268.584 168.047 268.635 167.048C268.687 166.05 268.971 165.08 269.461 164.229C269.705 163.817 269.984 163.431 270.295 163.075C270.908 162.368 271.671 161.83 272.519 161.507C273.368 161.184 274.277 161.086 275.168 161.22C276.087 161.352 276.963 161.715 277.724 162.282C278.485 162.849 279.109 163.602 279.544 164.479L286.037 179.06C288.752 185.158 290.035 191.877 289.772 198.628L289.039 217.413C289.02 217.904 288.84 218.373 288.53 218.736C288.22 219.099 287.801 219.334 287.346 219.398L287.32 219.402Z" fill="#051839"/>
<path d="M305.973 301.472L301.103 303.762L290.542 284.723L297.729 281.342L305.973 301.472Z" fill="#FFB8B8"/>
<path d="M309.287 305.946L293.586 313.332L293.498 313.12C293.146 312.26 292.955 311.333 292.937 310.394C292.918 309.455 293.073 308.521 293.391 307.646C293.71 306.771 294.186 305.972 294.792 305.294C295.399 304.616 296.124 304.072 296.927 303.695L306.517 299.183L309.287 305.946Z" fill="#2F2E41"/>
<path d="M240.596 307.808H235.278L232.748 285.824L240.597 285.825L240.596 307.808Z" fill="#FFB8B8"/>
<path d="M241.952 313.332L224.805 313.332V313.099C224.805 312.16 224.977 311.23 225.313 310.362C225.648 309.494 226.14 308.706 226.76 308.041C227.379 307.377 228.115 306.85 228.925 306.491C229.735 306.131 230.603 305.946 231.479 305.946L241.953 305.947L241.952 313.332Z" fill="#2F2E41"/>
<path d="M292.374 300.292L262.748 229.441C262.695 229.308 262.604 229.196 262.489 229.121C262.373 229.046 262.239 229.011 262.105 229.021C261.97 229.031 261.842 229.086 261.737 229.178C261.633 229.27 261.558 229.394 261.523 229.534L243.472 297.968C243.353 298.447 243.078 298.865 242.697 299.146C242.316 299.427 241.854 299.553 241.394 299.501L231.536 298.445C231.028 298.387 230.561 298.12 230.234 297.7C229.906 297.28 229.745 296.74 229.783 296.194C232.919 254.398 237.862 214.951 252.67 189.127L252.749 188.99L275.147 193.697L305.05 295.746C305.198 296.272 305.148 296.838 304.911 297.325C304.673 297.811 304.268 298.179 303.781 298.349L294.764 301.455C294.302 301.616 293.8 301.586 293.358 301.371C292.916 301.156 292.565 300.771 292.374 300.292Z" fill="#2F2E41"/>
<path d="M263.575 152.833C269.459 152.833 274.229 147.721 274.229 141.415C274.229 135.109 269.459 129.997 263.575 129.997C257.691 129.997 252.921 135.109 252.921 141.415C252.921 147.721 257.691 152.833 263.575 152.833Z" fill="#FFB8B8"/>
<path d="M251.293 191.104L251.157 191.074L251.125 190.93C249.69 184.434 249.656 177.346 251.024 169.862C251.718 166.037 253.649 162.597 256.477 160.148C259.305 157.699 262.849 156.398 266.484 156.474C270.429 156.559 274.194 158.257 277.009 161.22C279.824 164.183 281.476 168.186 281.627 172.411C282.084 185.284 277.175 196.444 277.126 196.555L277.053 196.718L251.293 191.104Z" fill="#051839"/>
<path d="M222.732 212.826C223.363 212.726 223.966 212.479 224.498 212.103C225.03 211.726 225.479 211.229 225.812 210.647C226.146 210.064 226.356 209.41 226.428 208.731C226.501 208.052 226.433 207.365 226.23 206.717L238.502 196.567L230.883 193.765L220.398 203.833C219.404 204.27 218.595 205.082 218.123 206.116C217.651 207.149 217.55 208.332 217.838 209.441C218.125 210.549 218.783 211.506 219.685 212.13C220.587 212.754 221.671 213.002 222.732 212.826Z" fill="#FFB8B8"/>
<path d="M229.435 205.172C229.035 205.425 228.564 205.516 228.107 205.43C227.65 205.344 227.237 205.085 226.943 204.701L223.571 200.332C223.4 200.11 223.273 199.853 223.199 199.576C223.125 199.299 223.105 199.009 223.141 198.724C223.176 198.438 223.266 198.163 223.405 197.917C223.544 197.671 223.729 197.458 223.949 197.291L238.429 186.317L255.901 161.56C256.394 160.711 257.077 160.007 257.889 159.512C258.701 159.018 259.614 158.749 260.548 158.729C261.003 158.726 261.457 158.768 261.904 158.856C262.791 159.025 263.626 159.421 264.339 160.01C265.052 160.6 265.621 161.366 265.998 162.242C266.393 163.14 266.582 164.127 266.55 165.119C266.517 166.112 266.265 167.082 265.812 167.948L252.875 190.401L252.847 190.451L229.435 205.172Z" fill="#051839"/>
<path d="M265.48 140.707C264.695 139.323 262.962 138.931 261.457 139.089C259.953 139.247 258.49 139.814 256.978 139.801C252.781 139.767 249.541 134.284 251.306 130.203C252.753 126.855 256.367 125.385 259.637 124.232C266.493 121.813 274.368 119.489 280.589 123.411C282.572 124.698 284.198 126.528 285.299 128.714C286.401 130.899 286.938 133.36 286.855 135.842C286.715 138.929 285.612 142.099 286.545 145.023C287.621 148.396 291.033 150.206 294.258 151.082C299.91 152.616 305.87 152.369 311.558 153.745C317.246 155.122 323.074 158.777 324.607 164.806C325.615 168.766 324.564 173.03 322.823 176.686C321.048 180.417 318.58 183.719 315.572 186.392C312.564 189.065 309.078 191.052 305.329 192.231C301.579 193.409 297.644 193.755 293.765 193.247C289.886 192.739 286.145 191.388 282.771 189.276C275.894 184.973 270.93 177.701 267.97 169.779C266.292 165.158 265.111 160.347 264.449 155.439C263.786 150.845 264.349 146.202 265.549 141.735C265.606 141.568 265.629 141.39 265.617 141.213C265.605 141.036 265.559 140.863 265.48 140.707Z" fill="#2F2E41"/>
<path d="M303.916 314H216.248C216.126 314 216.008 313.948 215.922 313.855C215.835 313.762 215.787 313.637 215.787 313.506C215.787 313.374 215.835 313.249 215.922 313.156C216.008 313.063 216.126 313.011 216.248 313.011H303.916C304.038 313.011 304.156 313.063 304.242 313.156C304.329 313.249 304.378 313.374 304.378 313.506C304.378 313.637 304.329 313.762 304.242 313.855C304.156 313.948 304.038 314 303.916 314Z" fill="#CCCCCC"/>
</g>
<defs>
<clipPath id="clip0_8_425">
<rect width="325" height="314" fill="white"/>
</clipPath>
</defs>
</svg>
