<svg width="364" height="313" viewBox="0 0 364 313" fill="none" xmlns="http://www.w3.org/2000/svg">
<g clip-path="url(#clip0_156_234)">
<path d="M336.144 282.291L336.766 268.325C343.254 264.865 350.49 263.037 357.847 263C347.722 271.261 348.988 287.185 342.123 298.294C339.956 301.742 337.039 304.66 333.588 306.83C330.137 309 326.241 310.368 322.188 310.831L313.716 316.008C312.553 309.54 312.809 302.897 314.467 296.537C316.125 290.178 319.144 284.252 323.317 279.169C325.687 276.341 328.404 273.821 331.404 271.67C333.433 277.01 336.144 282.291 336.144 282.291Z" fill="#F2F2F2"/>
<path d="M324.509 304.825L316.837 304.825L313.187 275.293L324.51 275.294L324.509 304.825Z" fill="#FFB6B6"/>
<path d="M327.466 312.247L302.728 312.246V311.933C302.728 309.385 303.743 306.941 305.549 305.139C307.354 303.337 309.803 302.325 312.357 302.325H312.357L316.876 298.904L325.307 302.325L327.466 302.325L327.466 312.247Z" fill="#2F2E41"/>
<path d="M288.867 304.825L281.195 304.825L277.545 275.293L288.868 275.294L288.867 304.825Z" fill="#FFB6B6"/>
<path d="M291.823 312.247L267.086 312.246V311.933C267.086 309.385 268.101 306.941 269.907 305.139C271.712 303.337 274.161 302.325 276.715 302.325H276.715L281.234 298.904L289.665 302.325L291.824 302.325L291.823 312.247Z" fill="#2F2E41"/>
<path d="M285.546 143.374L335.447 144.619C344.925 149.756 345.069 160.875 341.963 174.076C341.963 174.076 343.012 181.922 340.915 184.015C338.818 186.107 337.77 186.107 338.818 189.769C339.867 193.43 334.328 199.411 335.001 200.082C335.673 200.753 337.246 204.415 337.246 204.415L332.004 234.231C332.004 234.231 328.335 286.016 327.287 287.063C326.239 288.109 325.191 287.063 326.239 289.678C327.287 292.293 328.335 291.247 327.287 292.293C326.359 293.293 325.484 294.34 324.666 295.432H311.994C311.994 295.432 311.039 290.201 311.039 289.678C311.039 289.155 309.99 286.016 309.99 285.493C309.99 284.97 310.917 284.046 310.917 284.046C311.237 282.982 311.453 281.89 311.563 280.785C311.563 279.739 314.708 239.462 314.708 239.462L308.418 187.153L293.217 238.416C293.217 238.416 293.217 283.401 292.169 284.447C291.121 285.493 291.121 284.97 291.645 287.063C292.169 289.155 294.266 288.632 292.693 290.201C291.121 291.77 290.597 289.155 291.121 291.77L291.645 294.386L275.921 294.61C275.921 294.61 273.824 290.201 274.872 288.632C275.921 287.063 275.858 287.491 274.579 284.923C273.3 282.355 272.776 281.832 273.3 281.309C273.824 280.785 273.824 278.003 273.824 278.003L276.445 227.954C276.445 227.954 276.969 175.122 276.969 173.553C277.008 172.745 276.859 171.94 276.533 171.2V169.07L278.541 161.522L285.546 143.374Z" fill="#2F2E41"/>
<path d="M234.571 156.838L243.005 163.626L288.98 128.06L286.26 66.1599C283.674 68.2243 281.524 70.7797 279.934 73.6785C278.345 76.5773 277.346 79.7619 276.998 83.0481L269.121 118.015L234.571 156.838Z" fill="#E6E6E6"/>
<path d="M278.098 159.01C294.372 161.086 309.366 154.798 323.53 150.051C329.924 147.908 336.365 150.145 342.301 146.522C339.734 121.291 342.226 92.8704 347.678 62.5837C347.989 60.8692 347.665 59.1002 346.765 57.6069C345.865 56.1136 344.452 54.9979 342.789 54.468L325.22 49.4376L319.811 43.4824L305.84 47.0217L300.95 55.8432L284.144 67.1754C283.164 67.8364 282.395 68.7661 281.931 69.8527C281.467 70.9393 281.327 72.1366 281.529 73.3005C286.577 101.784 285.407 131.019 278.098 159.01Z" fill="#E6E6E6"/>
<path d="M330.037 166.819C331.529 166.04 332.654 164.706 333.17 163.106C333.686 161.506 333.551 159.767 332.794 158.266C332.626 157.934 332.429 157.618 332.205 157.322L344.65 138.487L333.016 138.495L322.981 156.379C321.711 157.495 320.931 159.065 320.81 160.75C320.69 162.435 321.239 164.099 322.338 165.383C323.268 166.459 324.537 167.187 325.936 167.448C327.335 167.709 328.781 167.487 330.037 166.819Z" fill="#FFB6B6"/>
<path d="M326.522 149.237L334.139 159.01L360.8 119.373L358.494 79.1029C358.2 73.974 356.611 69.0025 353.875 64.651C351.139 60.2994 347.345 56.7092 342.845 54.2144L343.389 116.115L326.522 149.237Z" fill="#E6E6E6"/>
<path d="M307.381 41.1784C316.797 41.1784 324.43 33.5607 324.43 24.1637C324.43 14.7668 316.797 7.14905 307.381 7.14905C297.965 7.14905 290.331 14.7668 290.331 24.1637C290.331 33.5607 297.965 41.1784 307.381 41.1784Z" fill="#FFB6B6"/>
<path d="M296.518 14.1783C297.177 14.1834 297.834 14.2694 298.473 14.4343C299.732 14.7364 301.01 14.9504 302.299 15.0747C306.246 15.4453 309.955 17.1251 312.833 19.8459C315.711 22.5667 317.592 26.1715 318.177 30.0846C319.167 29.2226 321.422 27.637 323.269 29.1107C323.298 29.134 323.314 29.1461 323.379 29.1153C324.606 28.5344 326.784 21.3838 326.85 15.0877C326.885 11.746 326.358 7.47882 323.65 6.1275L323.507 6.0563L323.47 5.90155C323.289 5.14985 321.267 3.86672 317.754 2.86802C311.369 1.05311 301.852 -2.48238 296.492 2.72069C296.087 4.47477 294.767 8.22851 293.434 8.65399C291.958 9.12493 290.684 9.53137 290.483 11.3383C290.315 13.9096 290.327 16.4895 290.519 19.0591C291.019 17.4867 292.001 16.1105 293.326 15.1242C294.268 14.4912 295.382 14.1611 296.518 14.1783Z" fill="#2F2E41"/>
<path d="M353 312.5C353 312.566 352.988 312.631 352.963 312.692C352.939 312.752 352.903 312.808 352.858 312.854C352.813 312.9 352.76 312.937 352.701 312.962C352.642 312.987 352.579 313 352.515 313H0.485255C0.356558 313 0.233136 312.947 0.142133 312.854C0.0511304 312.76 0 312.633 0 312.5C0 312.367 0.0511304 312.24 0.142133 312.146C0.233136 312.053 0.356558 312 0.485255 312H352.515C352.579 312 352.642 312.013 352.701 312.038C352.76 312.063 352.813 312.1 352.858 312.146C352.903 312.192 352.939 312.248 352.963 312.308C352.988 312.369 353 312.434 353 312.5Z" fill="#CCCCCC"/>
<path d="M138.39 54.908L74.3915 69.2771C72.6768 69.6642 71.186 70.7142 70.2461 72.1968C69.3061 73.6794 68.9939 75.4736 69.3778 77.1857L86.9268 155.03L162.121 138.148C162.739 138.011 163.304 137.7 163.75 137.251L146.315 59.9116C145.927 58.2004 144.875 56.7125 143.389 55.7745C141.903 54.8365 140.105 54.5248 138.39 54.908Z" fill="#E6E6E6"/>
<path d="M115.143 65.627L80.0699 73.5016C78.5084 73.8538 77.1507 74.8096 76.2945 76.1594C75.4383 77.5093 75.1535 79.1429 75.5026 80.702L92.002 153.891L158.785 138.897L146.77 85.5962C145.222 78.7668 141.023 72.829 135.094 69.0853C129.164 65.3417 121.989 64.098 115.143 65.627Z" fill="white"/>
<path d="M145.943 134.951L101.914 144.837C101.725 144.879 101.547 144.957 101.389 145.068C101.23 145.179 101.096 145.32 100.992 145.483C100.889 145.646 100.818 145.828 100.785 146.018C100.752 146.208 100.757 146.403 100.799 146.591C100.842 146.78 100.921 146.958 101.032 147.116C101.144 147.273 101.286 147.407 101.449 147.51C101.613 147.613 101.795 147.683 101.986 147.716C102.176 147.749 102.371 147.743 102.56 147.701L146.588 137.815C146.777 137.773 146.956 137.695 147.114 137.584C147.273 137.473 147.408 137.332 147.511 137.169C147.615 137.006 147.685 136.824 147.718 136.634C147.752 136.443 147.747 136.249 147.704 136.06C147.662 135.872 147.583 135.694 147.471 135.536C147.359 135.378 147.218 135.244 147.054 135.141C146.89 135.038 146.708 134.968 146.517 134.935C146.327 134.903 146.131 134.908 145.943 134.951Z" fill="#E4E4E4"/>
<path d="M144.666 129.287L100.637 139.172C100.256 139.258 99.925 139.491 99.7162 139.82C99.5074 140.15 99.4383 140.548 99.524 140.928C99.6097 141.309 99.8433 141.639 100.173 141.848C100.503 142.056 100.903 142.125 101.284 142.039L145.312 132.154C145.501 132.112 145.679 132.033 145.837 131.921C145.995 131.81 146.13 131.669 146.233 131.506C146.336 131.343 146.407 131.161 146.44 130.971C146.473 130.781 146.468 130.586 146.425 130.398C146.383 130.21 146.304 130.032 146.192 129.874C146.081 129.716 145.939 129.582 145.776 129.479C145.613 129.376 145.43 129.306 145.24 129.273C145.049 129.24 144.854 129.245 144.666 129.287Z" fill="#E4E4E4"/>
<path d="M118.447 129.226L99.361 133.511C98.9805 133.597 98.6495 133.829 98.4409 134.158C98.2323 134.487 98.1633 134.886 98.2489 135.265C98.3345 135.645 98.5678 135.976 98.8975 136.184C99.2271 136.392 99.6261 136.461 100.007 136.375L119.092 132.09C119.281 132.048 119.46 131.97 119.618 131.859C119.777 131.748 119.912 131.607 120.015 131.444C120.119 131.281 120.189 131.099 120.223 130.909C120.256 130.718 120.251 130.523 120.208 130.335C120.166 130.147 120.087 129.968 119.975 129.811C119.863 129.653 119.722 129.519 119.558 129.416C119.394 129.313 119.212 129.243 119.021 129.21C118.831 129.178 118.635 129.183 118.447 129.226Z" fill="#E4E4E4"/>
<path d="M140.716 111.766L96.6874 121.651C96.4988 121.693 96.3203 121.772 96.1623 121.884C96.0043 121.995 95.8697 122.136 95.7663 122.299C95.5575 122.628 95.4884 123.027 95.5741 123.407C95.6598 123.787 95.8934 124.118 96.2234 124.326C96.5534 124.535 96.9528 124.604 97.3338 124.518L141.362 114.633C141.551 114.59 141.729 114.511 141.887 114.4C142.045 114.289 142.18 114.148 142.283 113.985C142.387 113.822 142.457 113.64 142.49 113.45C142.523 113.26 142.518 113.065 142.475 112.877C142.433 112.688 142.354 112.51 142.242 112.353C142.131 112.195 141.99 112.061 141.826 111.958C141.663 111.854 141.481 111.784 141.29 111.751C141.1 111.718 140.904 111.723 140.716 111.766Z" fill="#E4E4E4"/>
<path d="M139.439 106.104L95.4111 115.99C95.2223 116.032 95.0437 116.111 94.8855 116.222C94.7273 116.333 94.5925 116.474 94.489 116.637C94.3854 116.8 94.3151 116.981 94.282 117.172C94.2489 117.362 94.2537 117.556 94.2962 117.745C94.3386 117.933 94.4179 118.111 94.5294 118.269C94.6409 118.427 94.7824 118.561 94.946 118.664C95.1095 118.767 95.2918 118.837 95.4824 118.869C95.673 118.902 95.8682 118.897 96.0568 118.854L140.085 108.969C140.274 108.927 140.452 108.848 140.61 108.737C140.768 108.626 140.903 108.485 141.006 108.322C141.11 108.159 141.18 107.977 141.213 107.787C141.246 107.597 141.241 107.402 141.199 107.214C141.156 107.026 141.077 106.848 140.966 106.69C140.854 106.533 140.713 106.398 140.549 106.295C140.386 106.192 140.204 106.122 140.014 106.09C139.823 106.057 139.628 106.062 139.439 106.104Z" fill="#E4E4E4"/>
<path d="M113.22 106.041L94.1342 110.326C93.9456 110.368 93.7672 110.447 93.6091 110.558C93.4511 110.67 93.3165 110.811 93.2132 110.974C93.1098 111.137 93.0396 111.319 93.0066 111.509C92.9736 111.699 92.9785 111.894 93.021 112.082C93.0634 112.27 93.1426 112.448 93.254 112.606C93.3654 112.764 93.5068 112.898 93.6702 113.001C93.8336 113.104 94.0158 113.174 94.2063 113.207C94.3968 113.24 94.592 113.235 94.7806 113.193L113.866 108.908C114.055 108.865 114.233 108.786 114.391 108.675C114.549 108.564 114.684 108.423 114.787 108.26C114.891 108.097 114.961 107.915 114.994 107.725C115.027 107.535 115.022 107.34 114.979 107.152C114.937 106.963 114.858 106.785 114.746 106.628C114.635 106.47 114.494 106.336 114.33 106.233C114.167 106.129 113.985 106.059 113.794 106.026C113.604 105.993 113.408 105.998 113.22 106.041Z" fill="#E4E4E4"/>
<path d="M135.489 88.5803L91.4605 98.4657C91.0796 98.5512 90.7482 98.7843 90.5395 99.1136C90.3307 99.4429 90.2615 99.8416 90.3473 100.222C90.433 100.602 90.6665 100.933 90.9965 101.141C91.3265 101.349 91.7259 101.418 92.1069 101.333L136.135 91.4474C136.324 91.405 136.502 91.326 136.66 91.2148C136.818 91.1037 136.953 90.9625 137.056 90.7994C137.16 90.6364 137.23 90.4546 137.263 90.2644C137.296 90.0743 137.291 89.8796 137.249 89.6913C137.206 89.503 137.127 89.325 137.015 89.1673C136.904 89.0095 136.763 88.8752 136.599 88.7721C136.436 88.6689 136.254 88.5989 136.063 88.566C135.873 88.533 135.678 88.5379 135.489 88.5803Z" fill="#E6E6E6"/>
<path d="M134.213 82.9191L90.1843 92.8045C89.9956 92.8469 89.8172 92.9259 89.6592 93.0371C89.5011 93.1483 89.3666 93.2894 89.2632 93.4525C89.0544 93.7818 88.9853 94.1804 89.071 94.5606C89.1567 94.9408 89.3903 95.2715 89.7203 95.4798C90.0503 95.6882 90.4497 95.7572 90.8307 95.6716L134.859 85.7863C135.048 85.7439 135.226 85.6649 135.384 85.5537C135.542 85.4425 135.677 85.3014 135.78 85.1383C135.883 84.9752 135.954 84.7934 135.987 84.6033C136.02 84.4132 136.015 84.2184 135.972 84.0302C135.93 83.8419 135.851 83.6638 135.739 83.5061C135.628 83.3484 135.486 83.2141 135.323 83.1109C135.16 83.0078 134.977 82.9377 134.787 82.9048C134.596 82.8719 134.401 82.8768 134.213 82.9191Z" fill="#E6E6E6"/>
<path d="M107.993 82.8553L88.9074 87.1404C88.5264 87.226 88.1951 87.4591 87.9863 87.7884C87.7775 88.1177 87.7084 88.5163 87.7941 88.8965C87.8798 89.2767 88.1134 89.6074 88.4434 89.8157C88.7734 90.0241 89.1728 90.0931 89.5538 90.0076L108.639 85.7224C108.828 85.68 109.006 85.601 109.164 85.4898C109.322 85.3787 109.457 85.2375 109.56 85.0745C109.664 84.9114 109.734 84.7296 109.767 84.5395C109.8 84.3493 109.795 84.1546 109.753 83.9663C109.71 83.7781 109.631 83.6 109.52 83.4423C109.408 83.2846 109.267 83.1503 109.103 83.0471C108.94 82.9439 108.758 82.8739 108.567 82.841C108.377 82.8081 108.182 82.8129 107.993 82.8553Z" fill="#E6E6E6"/>
<path d="M10.7126 145.228C10.2954 145.229 9.89543 145.394 9.60044 145.689C9.30544 145.983 9.1395 146.382 9.13904 146.799V309.177C9.13949 309.593 9.30543 309.992 9.60042 310.287C9.89541 310.581 10.2954 310.747 10.7126 310.747H214.716C215.133 310.747 215.533 310.581 215.828 310.287C216.123 309.992 216.289 309.593 216.289 309.177V172.864C216.289 172.447 216.123 172.048 215.828 171.754C215.533 171.459 215.133 171.294 214.716 171.293H97.6313C96.4428 171.294 95.2966 170.852 94.4175 170.054L68.0952 146.186C67.4162 145.569 66.5309 145.228 65.6128 145.228H10.7126Z" fill="#3F3D56"/>
<path d="M254.172 102.758L144.939 55.8922C142.01 54.6396 138.703 54.5975 135.743 55.7752C132.783 56.9529 130.413 59.2541 129.151 62.1742L71.9135 195.04L200.255 250.104C201.308 250.56 202.469 250.703 203.601 250.517L260.467 118.515C261.722 115.592 261.764 112.291 260.584 109.337C259.404 106.383 257.098 104.017 254.172 102.758Z" fill="#E6E6E6"/>
<path d="M208.63 93.8041L148.768 68.1205C146.102 66.9794 143.09 66.9404 140.395 68.0121C137.699 69.0838 135.54 71.1787 134.39 73.8372L80.5759 198.756L194.562 247.662L233.752 156.688C238.762 145.023 238.93 131.851 234.22 120.062C229.511 108.273 220.308 98.8301 208.63 93.8041Z" fill="white"/>
<path d="M235.148 173.83C236.797 173.486 238.244 172.509 239.178 171.11C240.111 169.711 240.456 168.002 240.139 166.351C240.068 165.987 239.965 165.629 239.83 165.282L256.953 150.552L245.759 147.391L231.215 161.864C229.687 162.591 228.507 163.889 227.931 165.478C227.354 167.066 227.427 168.817 228.134 170.352C228.734 171.64 229.756 172.685 231.03 173.317C232.305 173.949 233.757 174.13 235.148 173.83Z" fill="#FFB6B6"/>
<path d="M179.922 228.236L104.774 195.994C104.453 195.855 104.107 195.781 103.756 195.776C103.406 195.771 103.058 195.835 102.732 195.964C102.406 196.094 102.11 196.286 101.858 196.53C101.607 196.774 101.407 197.064 101.268 197.386C101.13 197.707 101.056 198.053 101.052 198.402C101.047 198.752 101.112 199.099 101.242 199.424C101.372 199.749 101.565 200.045 101.81 200.295C102.054 200.545 102.346 200.745 102.668 200.883L177.816 233.124C178.138 233.263 178.484 233.337 178.834 233.342C179.185 233.347 179.533 233.283 179.858 233.154C180.184 233.025 180.481 232.833 180.732 232.589C180.983 232.345 181.184 232.054 181.322 231.733C181.461 231.411 181.534 231.066 181.539 230.716C181.543 230.366 181.479 230.019 181.349 229.694C181.219 229.37 181.026 229.074 180.781 228.823C180.536 228.573 180.244 228.373 179.922 228.236Z" fill="#E4E4E4"/>
<path d="M184.087 218.568L108.939 186.326C108.289 186.048 107.554 186.038 106.897 186.3C106.24 186.562 105.714 187.073 105.434 187.722C105.155 188.371 105.145 189.104 105.407 189.76C105.669 190.416 106.181 190.941 106.831 191.22L181.979 223.462C182.301 223.6 182.647 223.673 182.997 223.678C183.348 223.683 183.695 223.619 184.021 223.489C184.347 223.359 184.643 223.167 184.894 222.923C185.146 222.679 185.346 222.388 185.484 222.067C185.623 221.746 185.697 221.4 185.701 221.05C185.706 220.701 185.641 220.354 185.512 220.029C185.382 219.704 185.189 219.408 184.945 219.157C184.7 218.906 184.409 218.706 184.087 218.568Z" fill="#E4E4E4"/>
<path d="M145.677 190.64L113.102 176.664C112.78 176.526 112.434 176.452 112.084 176.447C111.733 176.442 111.386 176.506 111.06 176.636C110.735 176.765 110.438 176.957 110.187 177.201C109.936 177.445 109.735 177.735 109.597 178.057C109.459 178.378 109.385 178.723 109.381 179.073C109.376 179.422 109.44 179.769 109.57 180.094C109.7 180.418 109.893 180.714 110.137 180.965C110.382 181.215 110.674 181.415 110.996 181.553L143.571 195.529C143.893 195.667 144.238 195.741 144.589 195.746C144.939 195.751 145.287 195.687 145.612 195.557C145.938 195.428 146.234 195.236 146.485 194.992C146.736 194.748 146.937 194.458 147.075 194.136C147.214 193.815 147.287 193.47 147.292 193.12C147.296 192.771 147.232 192.424 147.102 192.099C146.972 191.774 146.779 191.478 146.535 191.228C146.29 190.978 145.999 190.778 145.677 190.64Z" fill="#E4E4E4"/>
<path d="M196.97 188.663L121.822 156.421C121.172 156.143 120.438 156.134 119.781 156.396C119.124 156.657 118.598 157.169 118.319 157.817C118.039 158.466 118.03 159.198 118.291 159.854C118.553 160.51 119.064 161.035 119.714 161.315L194.862 193.556C195.184 193.695 195.53 193.769 195.881 193.774C196.231 193.779 196.58 193.715 196.906 193.586C197.232 193.456 197.529 193.264 197.78 193.02C198.032 192.776 198.232 192.485 198.371 192.163C198.509 191.841 198.583 191.496 198.588 191.146C198.592 190.796 198.528 190.448 198.397 190.123C198.267 189.798 198.074 189.502 197.829 189.251C197.584 189.001 197.292 188.801 196.97 188.663Z" fill="#E4E4E4"/>
<path d="M201.132 179L125.984 146.759C125.663 146.62 125.317 146.546 124.966 146.541C124.616 146.536 124.268 146.6 123.942 146.729C123.617 146.858 123.32 147.05 123.068 147.294C122.817 147.538 122.617 147.829 122.478 148.15C122.34 148.472 122.266 148.817 122.262 149.167C122.257 149.516 122.322 149.864 122.452 150.188C122.582 150.513 122.775 150.809 123.02 151.06C123.264 151.31 123.556 151.51 123.878 151.647L199.026 183.889C199.348 184.028 199.694 184.102 200.044 184.107C200.395 184.112 200.743 184.048 201.068 183.919C201.394 183.789 201.691 183.597 201.942 183.353C202.193 183.109 202.394 182.818 202.532 182.497C202.671 182.176 202.744 181.83 202.749 181.481C202.753 181.131 202.689 180.784 202.559 180.459C202.429 180.134 202.236 179.838 201.991 179.588C201.746 179.338 201.454 179.138 201.132 179Z" fill="#E4E4E4"/>
<path d="M162.724 151.067L130.149 137.091C129.499 136.812 128.764 136.803 128.107 137.065C127.45 137.326 126.924 137.838 126.644 138.486C126.365 139.135 126.355 139.868 126.617 140.524C126.879 141.18 127.391 141.706 128.041 141.985L160.616 155.961C160.938 156.099 161.284 156.173 161.635 156.178C161.986 156.182 162.334 156.118 162.659 155.989C162.985 155.859 163.282 155.667 163.533 155.423C163.784 155.179 163.985 154.888 164.123 154.567C164.262 154.245 164.335 153.9 164.34 153.55C164.345 153.2 164.28 152.853 164.15 152.528C164.02 152.203 163.827 151.907 163.583 151.656C163.338 151.405 163.047 151.205 162.724 151.067Z" fill="#E4E4E4"/>
<path d="M214.017 149.09L138.87 116.848C138.219 116.57 137.486 116.561 136.829 116.823C136.172 117.085 135.646 117.596 135.367 118.245C135.088 118.893 135.078 119.625 135.339 120.281C135.601 120.937 136.112 121.462 136.761 121.742L211.909 153.984C212.231 154.122 212.577 154.195 212.928 154.2C213.278 154.205 213.626 154.141 213.952 154.011C214.278 153.882 214.575 153.69 214.826 153.446C215.077 153.202 215.277 152.91 215.416 152.589C215.554 152.268 215.628 151.922 215.633 151.572C215.637 151.223 215.573 150.875 215.443 150.55C215.313 150.225 215.12 149.929 214.876 149.679C214.631 149.428 214.339 149.228 214.017 149.09Z" fill="#051839"/>
<path d="M218.18 139.427L143.032 107.186C142.382 106.908 141.648 106.898 140.991 107.16C140.334 107.422 139.808 107.933 139.529 108.582C139.25 109.23 139.24 109.963 139.501 110.619C139.763 111.274 140.274 111.8 140.924 112.079L216.072 144.321C216.394 144.46 216.74 144.535 217.091 144.54C217.442 144.546 217.791 144.482 218.117 144.353C218.444 144.224 218.741 144.031 218.993 143.787C219.245 143.543 219.446 143.251 219.585 142.929C219.723 142.607 219.797 142.261 219.801 141.911C219.806 141.561 219.741 141.213 219.61 140.887C219.48 140.562 219.286 140.266 219.041 140.015C218.795 139.765 218.503 139.565 218.18 139.427Z" fill="#051839"/>
<path d="M179.772 111.495L147.197 97.5182C146.546 97.2396 145.812 97.23 145.155 97.4917C144.498 97.7533 143.971 98.2648 143.692 98.9135C143.412 99.5623 143.402 100.295 143.664 100.951C143.926 101.607 144.439 102.133 145.089 102.412L177.664 116.388C177.986 116.526 178.332 116.6 178.683 116.605C179.033 116.61 179.381 116.545 179.707 116.416C180.032 116.286 180.329 116.094 180.58 115.85C180.832 115.606 181.032 115.315 181.171 114.994C181.309 114.672 181.383 114.327 181.387 113.977C181.392 113.627 181.328 113.28 181.198 112.955C181.068 112.63 180.875 112.334 180.63 112.083C180.386 111.833 180.094 111.633 179.772 111.495Z" fill="#051839"/>
<path d="M98.6715 151.016L34.6731 165.385C32.9585 165.772 31.4676 166.822 30.5277 168.305C29.5878 169.788 29.2755 171.582 29.6594 173.294L47.2084 251.139L122.403 234.256C123.021 234.119 123.586 233.808 124.031 233.359L106.596 156.02C106.208 154.309 105.156 152.821 103.671 151.883C102.185 150.945 100.387 150.633 98.6715 151.016Z" fill="#E6E6E6"/>
<path d="M75.4242 161.735L40.3515 169.61C38.7901 169.962 37.4323 170.918 36.5761 172.268C35.7199 173.618 35.4351 175.251 35.7842 176.81L52.2836 249.999L119.067 235.005L107.051 181.704C105.503 174.875 101.304 168.937 95.3751 165.194C89.446 161.45 82.271 160.206 75.4242 161.735Z" fill="white"/>
<path d="M106.224 231.059L62.1958 240.945C62.0071 240.987 61.8285 241.066 61.6702 241.177C61.512 241.287 61.3772 241.429 61.2737 241.592C61.1701 241.755 61.0998 241.936 61.0667 242.126C61.0336 242.317 61.0385 242.511 61.0809 242.7C61.1234 242.888 61.2026 243.066 61.3141 243.224C61.4256 243.381 61.5672 243.516 61.7307 243.619C61.8942 243.722 62.0765 243.792 62.2671 243.824C62.4577 243.857 62.6529 243.852 62.8415 243.809L106.87 233.924C107.059 233.882 107.238 233.803 107.396 233.692C107.554 233.581 107.689 233.44 107.793 233.277C107.897 233.114 107.967 232.932 108 232.742C108.033 232.552 108.028 232.357 107.986 232.168C107.943 231.98 107.864 231.802 107.753 231.644C107.641 231.486 107.499 231.352 107.336 231.249C107.172 231.146 106.99 231.076 106.799 231.044C106.608 231.011 106.413 231.016 106.224 231.059Z" fill="#E4E4E4"/>
<path d="M104.947 225.395L60.9189 235.281C60.5379 235.366 60.2066 235.599 59.9978 235.929C59.7891 236.258 59.7199 236.657 59.8056 237.037C59.8913 237.417 60.1249 237.748 60.4549 237.956C60.7849 238.164 61.1843 238.233 61.5653 238.148L105.594 228.262C105.975 228.177 106.306 227.944 106.515 227.614C106.723 227.285 106.793 226.886 106.707 226.506C106.621 226.126 106.388 225.795 106.058 225.587C105.728 225.379 105.328 225.31 104.947 225.395Z" fill="#E4E4E4"/>
<path d="M78.7282 225.334L59.6427 229.619C59.4542 229.662 59.276 229.741 59.1181 229.852C58.9602 229.963 58.8258 230.104 58.7225 230.267C58.6192 230.43 58.5491 230.611 58.5162 230.801C58.4832 230.991 58.4881 231.186 58.5305 231.374C58.5729 231.562 58.652 231.74 58.7633 231.897C58.8746 232.055 59.0159 232.189 59.1791 232.292C59.3423 232.395 59.5243 232.465 59.7146 232.498C59.9049 232.531 60.0999 232.526 60.2883 232.484L79.3739 228.198C79.5628 228.157 79.7416 228.078 79.9 227.967C80.0583 227.856 80.1932 227.715 80.2969 227.552C80.4006 227.389 80.471 227.207 80.5042 227.017C80.5373 226.827 80.5325 226.632 80.49 226.443C80.4475 226.255 80.3682 226.077 80.2567 225.919C80.1451 225.761 80.0034 225.627 79.8397 225.524C79.6761 225.421 79.4936 225.351 79.3029 225.319C79.1122 225.286 78.9169 225.291 78.7282 225.334Z" fill="#E4E4E4"/>
<path d="M100.997 207.874L56.969 217.759C56.7804 217.802 56.6019 217.881 56.4439 217.992C56.2859 218.103 56.1513 218.244 56.0479 218.407C55.8392 218.737 55.77 219.135 55.8557 219.515C55.9415 219.896 56.175 220.226 56.505 220.435C56.835 220.643 57.2344 220.712 57.6154 220.626L101.644 210.741C102.025 210.656 102.356 210.422 102.565 210.093C102.774 209.764 102.843 209.365 102.757 208.985C102.671 208.605 102.438 208.274 102.108 208.066C101.778 207.857 101.378 207.788 100.997 207.874Z" fill="#E4E4E4"/>
<path d="M99.7211 202.213L55.6928 212.098C55.504 212.14 55.3254 212.219 55.1672 212.33C55.0089 212.441 54.8742 212.582 54.7706 212.745C54.6671 212.908 54.5967 213.09 54.5637 213.28C54.5306 213.47 54.5354 213.665 54.5779 213.853C54.6203 214.041 54.6996 214.22 54.8111 214.377C54.9226 214.535 55.0641 214.669 55.2277 214.772C55.3912 214.875 55.5735 214.945 55.7641 214.978C55.9547 215.01 56.1499 215.005 56.3385 214.962L100.367 205.077C100.555 205.035 100.734 204.956 100.892 204.845C101.05 204.734 101.185 204.593 101.288 204.43C101.391 204.267 101.462 204.085 101.495 203.895C101.528 203.705 101.523 203.511 101.48 203.322C101.438 203.134 101.359 202.956 101.247 202.799C101.136 202.641 100.995 202.507 100.831 202.404C100.668 202.301 100.486 202.231 100.295 202.198C100.105 202.165 99.9097 202.17 99.7211 202.213Z" fill="#E4E4E4"/>
<path d="M73.5014 202.149L54.4159 206.434C54.0349 206.52 53.7036 206.753 53.4948 207.082C53.286 207.411 53.2169 207.81 53.3026 208.19C53.3883 208.57 53.6218 208.901 53.9518 209.109C54.2818 209.318 54.6813 209.387 55.0622 209.301L74.1478 205.016C74.5288 204.931 74.8601 204.697 75.0689 204.368C75.2777 204.039 75.3468 203.64 75.2611 203.26C75.1754 202.88 74.9418 202.549 74.6118 202.341C74.2818 202.132 73.8824 202.063 73.5014 202.149Z" fill="#E4E4E4"/>
<path d="M95.7705 184.689L51.7421 194.574C51.5535 194.616 51.3751 194.695 51.217 194.807C51.059 194.918 50.9245 195.059 50.8211 195.222C50.6123 195.551 50.5432 195.95 50.6289 196.33C50.7146 196.71 50.9481 197.041 51.2781 197.249C51.6081 197.458 52.0075 197.527 52.3885 197.441L96.4169 187.556C96.6055 187.513 96.7839 187.434 96.942 187.323C97.1 187.212 97.2346 187.071 97.3379 186.908C97.4413 186.745 97.5115 186.563 97.5445 186.373C97.5774 186.183 97.5726 185.988 97.5301 185.8C97.4877 185.611 97.4085 185.433 97.2971 185.276C97.1857 185.118 97.0443 184.984 96.8809 184.88C96.7175 184.777 96.5353 184.707 96.3448 184.674C96.1543 184.641 95.9591 184.646 95.7705 184.689Z" fill="#E6E6E6"/>
<path d="M94.4943 179.027L50.466 188.913C50.2773 188.955 50.0989 189.034 49.9409 189.145C49.7828 189.257 49.6483 189.398 49.5449 189.561C49.3361 189.89 49.267 190.289 49.3527 190.669C49.4384 191.049 49.6719 191.38 50.0019 191.588C50.3319 191.796 50.7314 191.865 51.1123 191.78L95.1407 181.895C95.5216 181.809 95.853 181.576 96.0617 181.247C96.2705 180.917 96.3397 180.519 96.254 180.138C96.1682 179.758 95.9347 179.428 95.6047 179.219C95.2747 179.011 94.8753 178.942 94.4943 179.027Z" fill="#E6E6E6"/>
<path d="M68.2746 178.964L49.189 183.249C48.8081 183.334 48.4768 183.567 48.268 183.897C48.0592 184.226 47.9901 184.625 48.0758 185.005C48.1615 185.385 48.395 185.716 48.725 185.924C49.055 186.132 49.4545 186.201 49.8354 186.116L68.921 181.831C69.1097 181.788 69.2881 181.709 69.4461 181.598C69.6042 181.487 69.7387 181.346 69.8421 181.183C69.9455 181.02 70.0156 180.838 70.0486 180.648C70.0816 180.458 70.0767 180.263 70.0343 180.075C69.9918 179.886 69.9127 179.708 69.8013 179.551C69.6899 179.393 69.5484 179.259 69.385 179.155C69.2216 179.052 69.0395 178.982 68.8489 178.949C68.6584 178.916 68.4633 178.921 68.2746 178.964Z" fill="#E6E6E6"/>
<path d="M9.36086 187.878C9.15425 187.878 8.94965 187.918 8.75874 187.997C8.56784 188.076 8.39437 188.191 8.24825 188.337C8.10212 188.483 7.9862 188.656 7.9071 188.847C7.828 189.037 7.78727 189.241 7.78723 189.447C7.78723 189.506 7.83567 310.439 7.83567 310.439C7.87876 310.823 8.06207 311.177 8.35056 311.434C8.63905 311.692 9.01247 311.834 9.39937 311.834H228.543C228.93 311.834 229.303 311.692 229.592 311.434C229.88 311.177 230.063 310.823 230.106 310.439L243.747 189.624C243.772 189.404 243.75 189.182 243.683 188.971C243.615 188.76 243.504 188.566 243.357 188.401C243.21 188.236 243.029 188.103 242.827 188.013C242.625 187.923 242.405 187.876 242.184 187.878L9.36086 187.878Z" fill="#3F3D56"/>
<path d="M24.825 194.573C22.6017 194.579 20.4703 195.458 18.8913 197.02C17.3124 198.582 16.4127 200.702 16.3869 202.921L16.6605 296.644C16.6508 297.756 16.8619 298.859 17.2816 299.889C17.7013 300.919 18.3213 301.856 19.1058 302.646C19.8904 303.436 20.8239 304.063 21.8526 304.491C22.8812 304.918 23.9846 305.139 25.0989 305.138H164.21C180.164 305.149 195.563 299.289 207.46 288.679C219.356 278.069 226.915 263.454 228.691 247.631L233.624 203.937C233.757 202.759 233.64 201.566 233.279 200.437C232.918 199.307 232.323 198.266 231.531 197.382C230.74 196.498 229.77 195.791 228.686 195.307C227.602 194.823 226.427 194.573 225.239 194.573H24.825ZM238.004 194.573L237.979 194.03H238.004V194.573Z" fill="#051839"/>
<path d="M85.5903 264.79H31.7005C31.1436 264.79 30.6096 264.569 30.2158 264.176C29.8221 263.783 29.6009 263.25 29.6009 262.694C29.6009 262.139 29.8221 261.606 30.2158 261.213C30.6096 260.82 31.1436 260.599 31.7005 260.599H85.5903C88.2979 260.561 88.325 264.828 85.5903 264.79Z" fill="#E4E4E4"/>
<path d="M158.186 275.751H31.7005C31.1436 275.751 30.6096 275.53 30.2158 275.137C29.8221 274.744 29.6009 274.211 29.6009 273.655C29.6009 273.099 29.8221 272.566 30.2158 272.174C30.6096 271.781 31.1436 271.56 31.7005 271.56H158.186C160.894 271.522 160.921 275.789 158.186 275.751Z" fill="#E4E4E4"/>
</g>
<defs>
<clipPath id="clip0_156_234">
<rect width="364" height="313" fill="white"/>
</clipPath>
</defs>
</svg>
