<svg width="241" height="287" viewBox="0 0 241 287" fill="none" xmlns="http://www.w3.org/2000/svg">
<g clip-path="url(#clip0_133_237)">
<path d="M93.3415 235.559C88.5461 230.617 81.5969 227.782 74.2757 227.782L73.9934 227.783C69.1711 227.785 64.4349 226.507 60.2691 224.079L59.8356 223.827L60.1848 223.468C62.075 221.513 63.6532 219.28 64.8644 216.847C64.0042 217.648 62.9783 218.251 61.8592 218.612C60.7402 218.973 59.5553 219.085 58.3885 218.937C57.1567 218.791 55.9741 218.367 54.9295 217.699C53.8848 217.03 53.0053 216.134 52.3568 215.077C49.798 210.928 46.7478 205.041 46.7478 200.557C46.7518 196.766 47.546 193.018 49.0799 189.551C50.6138 186.084 52.8537 182.974 55.6568 180.42C57.4315 178.821 58.8489 176.867 59.8168 174.684C60.7847 172.5 61.2813 170.138 61.2742 167.75L61.2728 167.41C61.2723 164.267 61.6568 161.135 62.4176 158.084L62.4948 157.776L62.812 157.787C64.8571 157.857 66.9034 157.686 68.9085 157.277C67.0277 157.047 65.1878 156.558 63.4409 155.824L63.0997 155.686L63.2155 155.337C71.1973 150.398 89.2143 152.956 99.6719 129.046C108.152 109.659 138.071 146.256 138.071 167.41C138.071 169.569 135.933 172.421 137.533 173.848C154.833 189.271 142.897 199.174 139.133 209.139C138.24 211.503 140.176 214.099 140.176 216.657C140.176 217.091 140.165 217.539 140.143 217.989L140.11 218.68L139.533 218.296C138.392 217.549 137.335 216.682 136.378 215.71C137.37 217.992 137.838 220.466 137.746 222.952C137.655 225.438 137.007 227.872 135.85 230.074C134.037 233.493 132.283 235.941 130.637 237.349C125.364 241.859 118.566 244.185 111.634 243.852C104.701 243.519 98.1578 240.552 93.3415 235.559Z" fill="#E6E6E6"/>
<path d="M122.304 287C122.422 287 122.536 286.957 122.625 286.88C122.714 286.803 122.772 286.696 122.789 286.579C122.809 286.433 124.848 271.738 123.017 252.207C121.326 234.17 115.895 208.191 99.6254 186.854C99.5865 186.803 99.5378 186.76 99.4821 186.727C99.4265 186.695 99.365 186.674 99.3012 186.665C99.2374 186.657 99.1725 186.661 99.1103 186.677C99.048 186.693 98.9896 186.722 98.9384 186.761C98.8871 186.8 98.8441 186.849 98.8118 186.904C98.7794 186.96 98.7583 187.021 98.7497 187.085C98.7412 187.149 98.7452 187.214 98.7617 187.276C98.7782 187.338 98.8069 187.397 98.846 187.448C114.975 208.6 120.362 234.389 122.042 252.299C123.862 271.716 121.839 286.296 121.818 286.441C121.809 286.511 121.814 286.582 121.834 286.649C121.854 286.716 121.888 286.778 121.934 286.831C121.98 286.884 122.037 286.927 122.101 286.956C122.165 286.985 122.234 287 122.304 287Z" fill="#3F3D56"/>
<path d="M109.027 216.95C109.131 216.951 109.232 216.918 109.315 216.857C109.399 216.796 109.462 216.711 109.494 216.612C109.526 216.514 109.526 216.408 109.494 216.31C109.462 216.211 109.4 216.126 109.316 216.065C104.68 212.929 99.6719 210.381 94.407 208.481C86.1815 205.471 73.6735 202.743 60.7967 206.839C60.7353 206.858 60.6783 206.889 60.6289 206.931C60.5796 206.972 60.539 207.023 60.5093 207.08C60.4796 207.137 60.4615 207.2 60.4561 207.264C60.4506 207.328 60.4578 207.393 60.4773 207.454C60.4969 207.515 60.5284 207.572 60.5699 207.621C60.6115 207.671 60.6624 207.711 60.7197 207.741C60.7769 207.77 60.8394 207.788 60.9037 207.793C60.9679 207.799 61.0325 207.791 61.0939 207.772C73.7068 203.761 85.9882 206.444 94.0701 209.4C99.2504 211.269 104.178 213.773 108.74 216.857C108.823 216.918 108.924 216.95 109.027 216.95Z" fill="#3F3D56"/>
<path d="M131.453 161.136C131.461 161.033 131.435 160.93 131.381 160.842C131.326 160.754 131.245 160.686 131.149 160.647C131.053 160.608 130.948 160.6 130.847 160.625C130.747 160.65 130.657 160.706 130.59 160.785C127.126 165.179 124.223 169.987 121.946 175.098C118.351 183.08 114.727 195.35 117.887 208.479C117.902 208.541 117.929 208.6 117.967 208.653C118.005 208.705 118.053 208.749 118.108 208.782C118.162 208.816 118.223 208.839 118.287 208.849C118.351 208.859 118.416 208.856 118.478 208.841C118.541 208.826 118.6 208.799 118.652 208.761C118.704 208.723 118.748 208.675 118.782 208.62C118.815 208.565 118.838 208.504 118.848 208.441C118.858 208.377 118.855 208.312 118.84 208.25C115.745 195.39 119.307 183.342 122.84 175.5C125.078 170.471 127.933 165.74 131.339 161.416C131.406 161.337 131.446 161.239 131.453 161.136Z" fill="#3F3D56"/>
<path d="M225.964 286.482H186.958L186.79 286.178C186.291 285.274 185.81 284.316 185.36 283.332C181.342 274.736 179.644 264.905 178.145 256.232L177.017 249.694C176.88 248.902 176.983 248.088 177.313 247.355C177.642 246.622 178.183 246.003 178.866 245.579C179.548 245.155 180.342 244.944 181.146 244.974C181.949 245.003 182.726 245.272 183.376 245.745C189.304 250.055 195.234 254.361 201.166 258.663C203.413 260.297 205.978 262.187 208.435 264.23C208.672 263.079 208.92 261.925 209.168 260.788C209.339 260.002 209.74 259.285 210.321 258.729C210.902 258.173 211.636 257.803 212.429 257.666C213.222 257.529 214.038 257.631 214.772 257.96C215.506 258.289 216.125 258.83 216.55 259.512L221.114 266.839C224.442 272.19 227.38 277.463 226.782 283.15C226.785 283.219 226.779 283.288 226.766 283.356C226.646 284.29 226.424 285.208 226.104 286.094L225.964 286.482Z" fill="#F0F0F0"/>
<path d="M207.791 133.242L200.263 105.399C199.941 104.221 199.168 103.216 198.11 102.602C197.053 101.988 195.797 101.814 194.612 102.117C194 102.274 193.425 102.555 192.924 102.941C192.423 103.327 192.006 103.811 191.699 104.363C191.391 104.915 191.199 105.525 191.135 106.153C191.071 106.782 191.135 107.418 191.325 108.021L200.032 136.703L204.587 154.355C203.924 154.861 203.432 155.559 203.18 156.354C202.927 157.149 202.925 158.003 203.175 158.799C203.425 159.595 203.914 160.295 204.575 160.803C205.237 161.312 206.039 161.605 206.873 161.642C207.707 161.679 208.532 161.459 209.236 161.011C209.941 160.563 210.49 159.91 210.81 159.139C211.129 158.369 211.204 157.518 211.023 156.704C210.842 155.89 210.415 155.151 209.799 154.587L207.791 133.242Z" fill="#A0616A"/>
<path d="M144.446 127.246L167.318 109.656C168.285 108.908 168.919 107.81 169.083 106.599C169.247 105.388 168.927 104.161 168.194 103.183C167.815 102.677 167.336 102.254 166.788 101.939C166.239 101.624 165.633 101.424 165.004 101.351C164.376 101.278 163.739 101.333 163.133 101.514C162.527 101.695 161.964 101.997 161.479 102.403L138.28 121.402L123.697 132.354C122.975 131.934 122.142 131.747 121.31 131.818C120.478 131.888 119.688 132.213 119.048 132.748C118.407 133.282 117.946 134.001 117.729 134.807C117.511 135.612 117.547 136.465 117.831 137.249C118.115 138.033 118.634 138.711 119.318 139.19C120.001 139.67 120.815 139.927 121.65 139.928C122.485 139.929 123.299 139.673 123.983 139.195C124.667 138.717 125.188 138.04 125.473 137.256L144.446 127.246Z" fill="#A0616A"/>
<path d="M163.088 131.29L162.08 153.791L193.736 146.915C191.041 137.874 189.209 136.332 191.234 130.039L163.088 131.29Z" fill="#A0616A"/>
<path d="M182.553 90.0389H172.004L167.475 97.7848L165.316 97.6658C164.261 97.6075 163.204 97.765 162.211 98.1286C161.219 98.4922 160.311 99.0543 159.543 99.7805C158.775 100.507 158.163 101.382 157.745 102.352C157.327 103.323 157.111 104.368 157.111 105.425L159.771 109.544C159.771 109.544 155.015 117.827 161.866 121.902C161.866 121.902 160.644 129.579 161.866 129.497C163.088 129.414 165.902 127.852 163.088 129.414C160.273 130.977 160.483 131.187 160.847 131.551L161.211 131.915L190.807 136.881C190.807 136.881 191.673 131.147 191.766 130.125C191.86 129.102 191.234 131.602 191.86 129.102C192.485 126.602 193.423 127.539 192.485 126.602C191.547 125.664 198.564 114.049 195.681 109.544L200.303 105.038C200.303 100.717 193.357 97.2131 189.033 97.2131H188.479L182.553 90.0389Z" fill="#E6E6E6"/>
<path d="M157.138 277.807H152.869L150.838 261.351L157.139 261.352L157.138 277.807Z" fill="#A0616A"/>
<path d="M144.252 284.102C144.254 284.58 144.445 285.037 144.783 285.376C145.121 285.714 145.578 285.905 146.057 285.909H154.094L154.343 285.393L155.479 283.049L155.92 285.393L156.017 285.909H159.048L159.005 285.389L158.197 275.703L157.139 275.638L152.571 275.367L151.448 275.299V278.191C150.597 279.096 143.913 282.519 144.252 284.102Z" fill="#2F2E41"/>
<path d="M220.588 266.632L216.997 268.94L206.38 256.199L211.679 252.793L220.588 266.632Z" fill="#A0616A"/>
<path d="M213.159 278.893C213.419 279.294 213.827 279.576 214.295 279.677C214.762 279.779 215.251 279.693 215.654 279.437L222.413 275.092L222.344 274.523L222.031 271.937L223.67 273.671L224.031 274.052L226.581 272.413L226.263 272L220.339 264.29L219.414 264.807L215.426 267.05L214.445 267.599L216.011 270.032C215.784 271.253 212.016 277.745 213.159 278.893Z" fill="#2F2E41"/>
<path d="M240.503 286.782L108.305 286.911C108.173 286.91 108.047 286.857 107.954 286.764C107.861 286.671 107.809 286.544 107.809 286.412C107.809 286.28 107.861 286.154 107.954 286.06C108.047 285.967 108.173 285.914 108.305 285.913L240.503 285.785C240.635 285.785 240.762 285.838 240.855 285.932C240.948 286.025 241 286.152 241 286.283C241 286.415 240.948 286.542 240.855 286.635C240.762 286.729 240.635 286.782 240.503 286.782Z" fill="#CACACA"/>
<path d="M193.24 144.373C193.24 144.373 173.005 155.069 162.302 147.772C162.302 147.772 159.96 159.103 159.022 160.041C158.084 160.978 156.589 161.387 157.649 162.433C158.709 163.478 159.3 164.891 157.284 166.685C155.269 168.479 153.26 167.91 155.203 169.757C157.146 171.604 149.327 216.918 149.327 216.918C149.327 216.918 150.578 259.059 149.327 260.333C148.076 261.608 146.404 261.893 148.022 263.469C149.64 265.046 149.64 263.823 149.64 265.997V268.171L150.38 270.331H160.535C160.535 270.331 162.985 267.487 160.535 265.016C158.084 262.546 161.28 261.869 162.028 259.551C162.775 257.233 164.026 259.733 162.775 257.233C161.524 254.733 160.923 255.208 160.911 253.564C160.899 251.92 179.35 187.542 179.35 187.542L181.585 223.174L208.466 262.198L216.379 256.268C216.379 256.268 210.618 248.164 211.965 247.05C213.312 245.936 207.995 244.538 209.671 243.282C211.348 242.025 207.312 240.759 208.833 239.093C210.354 237.427 206.737 233.228 204.641 233.228C202.545 233.228 199.603 226.229 199.603 226.229L203.995 170.937L193.24 144.373Z" fill="#2F2E41"/>
<path d="M171.792 67.2948C171.649 67.4827 170.508 67.3815 169.136 67.1813C166.424 66.7855 166.054 67.2558 164.026 69.0992C161.088 71.7693 162.759 88.0557 161.315 91.5845L160.849 91.9279C161.774 91.7514 162.682 91.4973 163.565 91.1684C164.063 89.5969 164.563 88.0203 165.066 86.4501C165.541 87.6718 165.839 88.9549 165.953 90.2607C166.651 89.9856 167.345 89.3129 170.263 88.4106C171.732 87.4146 182.362 86.4131 183.728 85.9749C187.196 74.1834 181.608 69.4149 171.792 67.2948Z" fill="#2F2E41"/>
<path d="M175.381 85.4776C180.991 85.4776 185.539 80.9331 185.539 75.3271C185.539 69.7212 180.991 65.1766 175.381 65.1766C169.771 65.1766 165.224 69.7212 165.224 75.3271C165.224 80.9331 169.771 85.4776 175.381 85.4776Z" fill="#A0616A"/>
<path d="M181.776 66.4002C181.204 66.3158 180.653 66.1227 180.153 65.8315C179.905 65.6819 179.705 65.4657 179.574 65.2076C179.443 64.9495 179.388 64.6599 179.414 64.3718C179.539 63.6506 180.355 63.2199 181.086 63.2638C181.814 63.3687 182.506 63.6484 183.102 64.079C183.036 63.382 182.738 62.7272 182.256 62.2198C181.773 61.7124 181.134 61.3818 180.441 61.2812C181.402 61.2294 182.402 61.1837 183.291 61.5533C184.18 61.9229 184.921 62.8381 184.761 63.7871C186.256 63.5946 187.73 64.6355 188.348 66.0098C188.965 67.384 188.843 68.9979 188.349 70.4213C188.301 70.6393 188.206 70.8443 188.071 71.0224C187.936 71.2005 187.765 71.3475 187.568 71.4536C187.065 71.6444 186.523 71.3244 186.087 71.009C183.81 69.3613 181.737 67.4484 179.913 65.3106" fill="#2F2E41"/>
<path d="M186.205 86.1187C185.775 86.3213 185.999 87.075 185.664 87.4125C185.519 87.5554 185.344 87.6643 185.151 87.7313C185.101 87.1022 184.954 86.4846 184.717 85.9C184.673 85.7937 184.601 85.6749 184.488 85.6843C184.357 85.6999 184.323 85.8718 184.319 85.9999C184.293 86.6356 184.152 87.2612 183.904 87.8469C183.9 87.8532 183.897 87.8625 183.894 87.8688C183.797 87.8657 183.697 87.8625 183.603 87.8594C182.878 87.8313 181.27 85.9687 180.914 86.6C182.171 84.3718 183.703 81.0216 183.938 78.4746C184.019 77.9414 183.98 77.3967 183.822 76.8808C183.74 76.6241 183.586 76.3964 183.378 76.2247C183.17 76.0529 182.917 75.9444 182.649 75.912C182.517 75.906 182.386 75.9292 182.264 75.98C182.142 76.0308 182.032 76.1079 181.943 76.2059C181.855 76.3038 181.789 76.4202 181.75 76.5466C181.712 76.673 181.702 76.8063 181.721 76.9371L181.539 76.9121C179.857 75.5432 181.308 73.165 179.35 72.2243C178.687 71.9056 174.628 72.9712 173.912 72.7837C173.896 72.0298 173.743 71.2852 173.458 70.5868C173.414 70.4805 173.342 70.3617 173.23 70.3711C173.098 70.3867 173.064 70.5586 173.061 70.6867C173.034 71.3224 172.894 71.948 172.645 72.5337C171.653 72.3931 170.643 72.4461 169.671 72.69C168.814 72.915 168.001 73.3025 167.141 73.5088C166.716 73.6389 166.269 73.6811 165.827 73.6328C165.385 73.5844 164.957 73.4465 164.57 73.2275C163.479 72.4962 163.288 70.8774 163.832 69.6836C164.226 68.9175 164.758 68.231 165.402 67.6585C165.893 67.1835 166.403 66.7272 166.913 66.2709C167.369 65.8615 167.826 65.4521 168.282 65.0427C168.857 64.5021 169.47 64.003 170.115 63.5489C171.145 62.8739 172.303 62.4165 173.517 62.2048C174.731 61.993 175.975 62.0314 177.173 62.3176C178.612 62.6614 180.535 62.177 181.852 62.8489C182.54 63.202 184.063 64.5552 184.667 65.0365C186.212 66.2647 185.166 65.2639 186.856 65.974C190.885 67.6672 189.103 84.7554 186.205 86.1187Z" fill="#2F2E41"/>
<path d="M73.736 160.206C108.527 160.206 136.73 132.023 136.73 97.2567C136.73 62.4906 108.527 34.3071 73.736 34.3071C38.9452 34.3071 10.7416 62.4906 10.7416 97.2567C10.7416 132.023 38.9452 160.206 73.736 160.206Z" fill="white"/>
<path d="M73.7361 160.834C38.6542 160.834 10.1129 132.313 10.1129 97.2566C10.1129 62.1997 38.6542 33.6787 73.7361 33.6787C108.818 33.6787 137.359 62.1997 137.359 97.2566C137.359 132.313 108.818 160.834 73.7361 160.834ZM73.7361 34.9354C39.3477 34.9354 11.3705 62.8927 11.3705 97.2566C11.3705 131.62 39.3477 159.578 73.7361 159.578C108.124 159.578 136.102 131.62 136.102 97.2566C136.102 62.8927 108.124 34.9354 73.7361 34.9354Z" fill="#051839"/>
<path d="M65.1423 130.019C64.0545 130.019 62.9816 129.766 62.0087 129.28C61.0358 128.793 60.1895 128.087 59.5371 127.217L42.3512 104.319C41.7991 103.583 41.3975 102.746 41.1691 101.855C40.9408 100.965 40.8902 100.038 41.0204 99.1274C41.1506 98.2171 41.4589 97.3414 41.9277 96.5502C42.3966 95.759 43.0168 95.0678 43.753 94.5161C44.4891 93.9644 45.3268 93.563 46.2183 93.3348C47.1097 93.1066 48.0373 93.0561 48.9482 93.1862C49.8592 93.3163 50.7355 93.6244 51.5273 94.0929C52.3191 94.5614 53.0108 95.1812 53.5629 95.9168L64.8064 110.896L93.684 67.6114C94.7155 66.0674 96.3182 64.9959 98.14 64.6324C99.9618 64.2689 101.853 64.6431 103.399 65.6729C104.945 66.7026 106.018 68.3036 106.383 70.1238C106.748 71.9441 106.375 73.8346 105.345 75.3799L70.9734 126.901C70.3516 127.832 69.5153 128.602 68.5347 129.144C67.554 129.686 66.4576 129.985 65.3373 130.017C65.2723 130.018 65.2073 130.019 65.1423 130.019Z" fill="#051839"/>
<path d="M138.639 38.2402C138.814 37.0367 137.552 35.857 135.821 35.6053C134.09 35.3536 132.544 36.1251 132.369 37.3287C132.194 38.5322 133.455 39.7119 135.187 39.9636C136.918 40.2153 138.463 39.4437 138.639 38.2402Z" fill="#E6E6E6"/>
<path d="M159.251 36.2304C159.426 35.0269 158.165 33.8472 156.434 33.5955C154.702 33.3437 153.157 34.1153 152.982 35.3188C152.806 36.5223 154.068 37.702 155.799 37.9537C157.53 38.2054 159.076 37.4339 159.251 36.2304Z" fill="#3F3D56"/>
<path d="M132.994 21.5645C133.169 20.361 131.908 19.1813 130.177 18.9296C128.445 18.6779 126.9 19.4495 126.725 20.653C126.549 21.8565 127.811 23.0362 129.542 23.2879C131.273 23.5396 132.819 22.768 132.994 21.5645Z" fill="#FF6584"/>
<path d="M124.037 14.7338C124.046 13.629 123.429 12.7286 122.66 12.7228C121.891 12.717 121.26 13.6079 121.252 14.7128C121.244 15.8177 121.861 16.718 122.63 16.7239C123.399 16.7297 124.029 15.8387 124.037 14.7338Z" fill="#E6E6E6"/>
<path d="M121 2.01109C121.008 0.906226 120.392 0.00583831 119.623 2.62991e-05C118.853 -0.00578572 118.223 0.885179 118.215 1.99005C118.206 3.09492 118.823 3.9953 119.592 4.00112C120.361 4.00693 120.992 3.11596 121 2.01109Z" fill="#3F3D56"/>
<path d="M144.62 24.4022C144.628 23.2974 144.012 22.397 143.242 22.3912C142.473 22.3854 141.843 23.2763 141.835 24.3812C141.826 25.4861 142.443 26.3864 143.212 26.3923C143.981 26.3981 144.612 25.5071 144.62 24.4022Z" fill="#E6E6E6"/>
<path d="M134.659 29.3721C134.667 28.2672 134.051 27.3669 133.282 27.361C132.512 27.3552 131.882 28.2462 131.874 29.3511C131.865 30.4559 132.482 31.3563 133.251 31.3621C134.02 31.3679 134.651 30.477 134.659 29.3721Z" fill="#FF6584"/>
<path d="M148.525 38.5577C148.533 37.4528 147.917 36.5524 147.148 36.5466C146.378 36.5408 145.748 37.4318 145.74 38.5367C145.731 39.6415 146.348 40.5419 147.117 40.5477C147.886 40.5535 148.517 39.6626 148.525 38.5577Z" fill="#3F3D56"/>
<path d="M20.424 187.37C20.5992 186.166 19.3378 184.986 17.6065 184.735C15.8753 184.483 14.3297 185.254 14.1545 186.458C13.9793 187.662 15.2407 188.841 16.972 189.093C18.7032 189.345 20.2488 188.573 20.424 187.37Z" fill="#E6E6E6"/>
<path d="M41.0367 185.36C41.212 184.156 39.9505 182.976 38.2193 182.725C36.488 182.473 34.9425 183.245 34.7672 184.448C34.592 185.652 35.8534 186.831 37.5847 187.083C39.316 187.335 40.8615 186.563 41.0367 185.36Z" fill="#3F3D56"/>
<path d="M14.7796 170.694C14.9548 169.49 13.6934 168.311 11.9621 168.059C10.2309 167.807 8.68533 168.579 8.51009 169.782C8.33486 170.986 9.59629 172.165 11.3276 172.417C13.0588 172.669 14.6044 171.897 14.7796 170.694Z" fill="#FF6584"/>
<path d="M5.82283 163.863C5.83119 162.758 5.21445 161.858 4.4453 161.852C3.67615 161.846 3.04584 162.737 3.03748 163.842C3.02912 164.947 3.64587 165.847 4.41502 165.853C5.18417 165.859 5.81447 164.968 5.82283 163.863Z" fill="#E6E6E6"/>
<path d="M2.78546 151.14C2.79382 150.036 2.17708 149.135 1.40793 149.129C0.638781 149.124 0.00848454 150.015 0.000123814 151.119C-0.00823691 152.224 0.608504 153.125 1.37765 153.13C2.14681 153.136 2.7771 152.245 2.78546 151.14Z" fill="#3F3D56"/>
<path d="M26.4054 173.532C26.4138 172.427 25.797 171.526 25.0279 171.521C24.2587 171.515 23.6284 172.406 23.6201 173.511C23.6117 174.615 24.2284 175.516 24.9976 175.522C25.7667 175.527 26.397 174.636 26.4054 173.532Z" fill="#E6E6E6"/>
<path d="M16.4444 178.501C16.4528 177.397 15.836 176.496 15.0669 176.49C14.2977 176.485 13.6674 177.376 13.6591 178.48C13.6507 179.585 14.2675 180.486 15.0366 180.491C15.8058 180.497 16.4361 179.606 16.4444 178.501Z" fill="#FF6584"/>
<path d="M30.3104 187.687C30.3188 186.582 29.702 185.682 28.9329 185.676C28.1637 185.67 27.5334 186.561 27.5251 187.666C27.5167 188.771 28.1335 189.671 28.9026 189.677C29.6718 189.683 30.3021 188.792 30.3104 187.687Z" fill="#3F3D56"/>
</g>
<defs>
<clipPath id="clip0_133_237">
<rect width="241" height="287" fill="white"/>
</clipPath>
</defs>
</svg>
